<svg width="145" height="173" viewBox="0 0 145 173" fill="none" xmlns="http://www.w3.org/2000/svg">
<g clip-path="url(#clip0_608_5321)">
<path d="M146.045 55.6209C144.183 55.6209 112.889 55.829 110.921 55.7633C110.782 55.7633 110.706 55.5515 110.844 55.4822C112.086 54.8688 113.491 54.9929 114.78 54.5584C115.54 54.3028 116.003 53.8063 116.529 53.2404C116.965 52.7442 117.528 52.3757 118.158 52.1742C118.734 52.0012 119.346 51.9823 119.932 52.1195C120.544 52.3249 121.143 52.5688 121.725 52.8497C123.225 53.4156 124.689 52.8789 125.759 51.7543C126.646 50.8379 127.515 49.9726 128.72 49.4797C129.714 49.0294 130.851 49.0135 131.857 49.4359C133.003 49.9543 133.792 51.0022 134.869 51.6265C136.147 52.3568 137.677 52.1961 139.086 52.4225C140.495 52.6489 141.598 53.8647 142.821 54.5584C143.225 54.8182 143.692 54.9622 144.172 54.9747C144.448 54.9501 144.722 54.911 144.994 54.8578C145.396 54.7483 145.826 54.8706 146.111 55.1755C146.18 55.2558 146.166 55.6209 146.045 55.6209Z" fill="#EBEBEB"/>
<path d="M43.1048 76.2092C41.2427 76.2092 9.94864 76.4137 7.98067 76.3516C7.84192 76.3516 7.76524 76.1398 7.90399 76.0704C9.14538 75.457 10.5511 75.5812 11.8399 75.1467C12.5994 74.8911 13.0631 74.3946 13.5888 73.825C14.0256 73.3301 14.5884 72.963 15.2173 72.7625C15.7938 72.5894 16.4056 72.5706 16.9917 72.7077C17.6047 72.9116 18.2035 73.1555 18.7844 73.4379C20.2887 74.0039 21.7492 73.4635 22.8226 72.3426C23.7062 71.4262 24.5752 70.5608 25.7801 70.0643C26.7743 69.6157 27.91 69.5999 28.9164 70.0205C30.0629 70.5426 30.8515 71.5868 31.9286 72.2112C33.2065 72.9414 34.7363 72.7807 36.1457 73.0071C37.555 73.2335 38.6431 74.4201 39.8808 75.1029C40.2843 75.3723 40.7543 75.5252 41.2391 75.5447C41.5165 75.5447 41.7867 75.4607 42.0606 75.4278C42.4624 75.3182 42.8919 75.4389 43.1778 75.7418C43.2399 75.8404 43.2253 76.2092 43.1048 76.2092Z" fill="#EBEBEB"/>
<path d="M75.6757 63.4402C75.6392 63.5424 26.3523 63.4402 26.9729 63.4402C27.2578 63.4402 26.5421 63.013 26.8196 62.8779C28.4261 62.082 30.1823 62.0601 31.9312 61.8994C32.9639 61.8546 33.9776 61.6064 34.9142 61.1692C35.8453 60.6836 36.4221 59.8402 37.083 59.0588C39.1454 56.6195 42.3191 55.4148 45.4807 55.8714C48.9858 56.419 51.7497 59.088 55.2585 59.5809C57.3688 59.8767 59.3624 59.0588 61.4253 58.7704C63.0233 58.551 64.6496 58.8491 66.0659 59.6211C67.1795 60.1724 68.2054 60.6361 69.4615 60.7164C70.429 60.7858 71.3966 60.6763 72.3641 60.6653C73.9471 60.6948 75.4648 61.3011 76.6323 62.3704C76.7893 62.5165 77.2859 63.4402 75.6757 63.4402Z" fill="#EBEBEB"/>
<path d="M122.437 12.0671L56.1904 26.2665L115.639 8.72266L122.437 12.0671Z" fill="#BDECEB"/>
<path d="M113.192 16.325C109.669 17.2195 106.123 18.0081 102.575 18.7566C100.8 19.1217 99.0219 19.4868 97.2438 19.852L91.9022 20.8925L86.5496 21.8674C84.7605 22.1741 82.9751 22.4991 81.1824 22.7838C77.6043 23.3753 74.0152 23.9303 70.4078 24.3757C73.9312 23.4812 77.4728 22.6926 81.0254 21.9441C82.7999 21.5607 84.578 21.2138 86.3561 20.8487L91.6977 19.7972L97.0394 18.8369C98.8248 18.5303 100.61 18.2053 102.403 17.9205C105.996 17.329 109.585 16.774 113.192 16.325Z" fill="#BDECEB"/>
<path d="M88.1002 15.1882C85.8827 16.0183 83.6506 16.8045 81.404 17.5469C79.1621 18.299 76.9057 19.0073 74.6493 19.712C72.3929 20.4167 70.1255 21.0849 67.8472 21.7238C65.5689 22.3628 63.2869 22.9798 60.983 23.5494C63.2029 22.7169 65.435 21.9295 67.6793 21.1871C69.9211 20.4349 72.1775 19.7266 74.4339 19.0219C76.6903 18.3173 78.9613 17.6528 81.236 17.0102C83.5107 16.3676 85.7999 15.7505 88.1002 15.1882Z" fill="#BDECEB"/>
<path d="M124.11 12.5897C123.982 12.4436 122.207 11.2022 122.076 11.1109L122.379 11.0598C122.379 11.0598 124 12.4363 124.11 12.5897Z" fill="#00B3AC"/>
<path opacity="0.5" d="M124.11 12.5897C123.982 12.4436 122.207 11.2022 122.076 11.1109L122.379 11.0598C122.379 11.0598 124 12.4363 124.11 12.5897Z" fill="white"/>
<path d="M124.116 12.5993C124.116 12.6321 123.981 12.6577 123.846 12.676C123.719 12.6985 123.589 12.6985 123.463 12.676C123.426 12.6504 122.145 12.0115 121.36 11.6171H121.33L121.221 11.5624L120.881 11.3981L120.757 11.336L122.075 11.1096L123.28 11.9603L123.331 12.0005L123.477 12.1027C123.697 12.2528 123.907 12.4149 124.109 12.5883L124.116 12.5993Z" fill="#00B3AC"/>
<g opacity="0.1">
<path d="M124.119 12.5993C124.119 12.6322 123.983 12.6577 123.848 12.676C123.722 12.6985 123.592 12.6985 123.465 12.676C123.429 12.6504 122.114 11.9932 121.333 11.6025C121.461 11.6646 123.158 12.4752 123.487 12.0881C123.706 12.2382 123.917 12.4003 124.119 12.5737V12.5993Z" fill="#151515"/>
</g>
<path d="M141.476 14.0454C141.476 14.2243 140.505 14.2791 140.381 14.2425C140.257 14.206 129.665 10.0401 129.665 10.0401L133.55 8.49927L133.663 8.57959L133.71 8.61246C134.441 9.10901 136.569 10.595 138.439 11.8985L138.552 11.9788L138.698 12.0811C139.99 12.9865 141.115 13.7752 141.476 14.0454Z" fill="#00B3AC"/>
<path d="M141.477 14.0463C140.531 13.3416 134.357 9.06242 133.547 8.50015L134.04 8.30664C134.04 8.30664 141.232 13.7834 141.451 13.9952C141.466 14.0082 141.475 14.0266 141.477 14.0463Z" fill="#00B3AC"/>
<path opacity="0.5" d="M141.477 14.0463C140.531 13.3416 134.357 9.06242 133.547 8.50015L134.04 8.30664C134.04 8.30664 141.232 13.7834 141.451 13.9952C141.466 14.0082 141.475 14.0266 141.477 14.0463Z" fill="white"/>
<g opacity="0.5">
<path opacity="0.1" d="M141.476 14.0451C141.476 14.224 140.505 14.2788 140.381 14.2423C140.257 14.2058 129.665 10.0398 129.665 10.0398L133.549 8.49902C133.549 8.49902 132.589 9.59438 134.871 11.2922C136.427 12.4459 138.084 12.6869 138.698 12.0808C139.99 12.9863 141.115 13.775 141.476 14.0451Z" fill="#151515"/>
</g>
<path d="M132.665 11.399C132.362 11.545 132.037 11.6582 132.011 11.3588C132.011 11.2347 132.099 11.0996 132.581 10.8696C132.694 10.8148 132.971 10.6943 133.055 10.9426C133.139 11.1909 132.778 11.3515 132.665 11.399Z" fill="#00B3AC"/>
<path opacity="0.1" d="M132.665 11.399C132.362 11.545 132.037 11.6582 132.011 11.3588C132.011 11.2347 132.099 11.0996 132.581 10.8696C132.694 10.8148 132.971 10.6943 133.055 10.9426C133.139 11.1909 132.778 11.3515 132.665 11.399Z" fill="#151515"/>
<path d="M135.114 12.4107C134.815 12.5567 134.49 12.6699 134.464 12.3705C134.464 12.2464 134.552 12.1113 135.034 11.8813C135.147 11.8265 135.424 11.706 135.505 11.9543C135.585 12.2026 135.227 12.3559 135.114 12.4107Z" fill="#00B3AC"/>
<path opacity="0.1" d="M135.114 12.4107C134.815 12.5567 134.49 12.6699 134.464 12.3705C134.464 12.2464 134.552 12.1113 135.034 11.8813C135.147 11.8265 135.424 11.706 135.505 11.9543C135.585 12.2026 135.227 12.3559 135.114 12.4107Z" fill="#151515"/>
<path d="M137.568 13.4144C137.269 13.5604 136.94 13.6736 136.918 13.3705C136.918 13.2501 137.006 13.115 137.488 12.8849C137.601 12.8302 137.878 12.706 137.959 12.9579C138.039 13.2099 137.681 13.3596 137.568 13.4144Z" fill="#00B3AC"/>
<path opacity="0.1" d="M137.568 13.4144C137.269 13.5604 136.94 13.6736 136.918 13.3705C136.918 13.2501 137.006 13.115 137.488 12.8849C137.601 12.8302 137.878 12.706 137.959 12.9579C138.039 13.2099 137.681 13.3596 137.568 13.4144Z" fill="#151515"/>
<path d="M136.769 10.7784C136.473 11.3005 135.802 11.5087 135.378 11.662C134.25 12.1111 133.432 12.3667 133.027 11.3407C132.979 11.2241 132.95 11.101 132.939 10.9756C132.873 10.2015 133.669 9.81452 134.078 9.60275C134.568 9.34352 134.914 9.17557 135.174 9.06603C135.424 8.94235 135.698 8.8727 135.977 8.86157C136.203 8.86157 136.707 8.90903 136.89 9.85469C136.96 10.1672 136.917 10.4944 136.769 10.7784Z" fill="#00B3AC"/>
<path d="M136.779 10.0408C136.779 10.6177 136.414 11.0851 135.976 11.0851C135.538 11.0851 135.173 10.6177 135.173 10.0408C135.173 9.46394 135.538 9.00024 135.976 9.00024C136.414 9.00024 136.779 9.46759 136.779 10.0408Z" fill="#151515"/>
<path d="M136.687 10.0402C136.589 10.4048 136.229 10.6345 135.857 10.5697C135.485 10.505 135.224 10.1673 135.254 9.79092C135.285 9.41455 135.598 9.12367 135.975 9.12012C136.423 9.18257 136.739 9.59105 136.687 10.0402Z" fill="#505050"/>
<path d="M119.94 9.76724L119.754 9.83296L119.334 9.9863L117.874 9.36196C116.468 8.75586 114.803 8.04754 114.486 7.94165H114.526H114.562H114.61H114.639L114.748 7.97816L114.862 8.01468L115.183 8.12056L115.289 8.15707L115.391 8.18993H115.449L115.621 8.24835L115.738 8.28852L117.239 8.84349L117.381 8.89096L117.936 9.07717L118.896 9.40213L119.031 9.44958L119.447 9.58833L119.553 9.62119H119.601H119.626L119.94 9.76724Z" fill="#00B3AC"/>
<path opacity="0.5" d="M119.94 9.76724L119.754 9.83296L119.334 9.9863L117.874 9.36196C116.468 8.75586 114.803 8.04754 114.486 7.94165H114.526H114.562H114.61H114.639L114.748 7.97816L114.862 8.01468L115.183 8.12056L115.289 8.15707L115.391 8.18993H115.449L115.621 8.24835L115.738 8.28852L117.239 8.84349L117.381 8.89096L117.936 9.07717L118.896 9.40213L119.031 9.44958L119.447 9.58833L119.553 9.62119H119.601H119.626L119.94 9.76724Z" fill="white"/>
<path d="M119.333 9.98657L118.216 10.3955C118.216 10.3955 115.708 9.23078 114.2 8.5042H114.178L113.747 8.29243C113.529 8.20005 113.321 8.08501 113.126 7.94923C113.569 7.85286 114.027 7.85286 114.47 7.94923H114.496C114.802 8.05146 116.369 8.71962 117.742 9.30746H117.771L117.884 9.35492L119.333 9.98657Z" fill="#00B3AC"/>
<g opacity="0.1">
<path d="M119.333 9.98726L118.216 10.3962C118.216 10.3962 115.708 9.23146 114.2 8.50488C114.448 8.60712 116.986 9.72802 117.614 9.57102C117.731 9.54945 117.831 9.47171 117.88 9.36291L119.333 9.98726Z" fill="#151515"/>
</g>
<path d="M122.232 8.38665L119.509 9.6974C119.509 9.6974 119.534 7.36067 119.556 5.68114C119.556 5.62272 119.556 5.56795 119.556 5.50954V5.37444C119.556 4.79756 119.556 4.33386 119.556 4.12574C119.556 3.45028 119.636 3.31154 119.815 3.42108C120.256 3.74515 120.663 4.11205 121.031 4.51642C121.228 4.772 121.663 6.30549 121.944 7.36067C121.945 7.36912 121.945 7.37778 121.944 7.38623C121.962 7.4483 121.977 7.50671 121.991 7.56514C122.137 8.05075 122.232 8.38665 122.232 8.38665Z" fill="#00B3AC"/>
<g opacity="0.1">
<path d="M122.232 8.38715L119.508 9.69791C119.508 9.69791 119.534 7.36117 119.556 5.68164C119.957 6.57617 120.75 7.79931 122.02 7.58024C122.137 8.05124 122.232 8.38715 122.232 8.38715Z" fill="#151515"/>
</g>
<path d="M117.593 11.1239C117.312 10.4228 118.505 9.78389 119.856 9.17779C121.207 8.5717 134.538 2.69334 136.473 2.16758C138.408 1.64181 140.657 2.36109 141.037 3.46738C141.606 5.12136 139.211 6.5088 130.569 10.0906C129.437 10.5579 124.362 11.7738 121.529 11.7811C118.484 11.792 117.731 11.4707 117.593 11.1239Z" fill="#00B3AC"/>
<path opacity="0.5" d="M117.593 11.1239C117.312 10.4228 118.505 9.78389 119.856 9.17779C121.207 8.5717 134.538 2.69334 136.473 2.16758C138.408 1.64181 140.657 2.36109 141.037 3.46738C141.606 5.12136 139.211 6.5088 130.569 10.0906C129.437 10.5579 124.362 11.7738 121.529 11.7811C118.484 11.792 117.731 11.4707 117.593 11.1239Z" fill="white"/>
<path opacity="0.1" d="M130.565 10.0907C129.433 10.558 124.358 11.7739 121.525 11.7812C118.483 11.7812 117.731 11.4708 117.592 11.1239C117.454 10.7771 117.702 10.3937 118.173 10.0724C118.169 10.1425 118.182 10.2124 118.209 10.2769C118.337 10.5909 119.016 10.8866 121.777 10.8757C124.361 10.8757 128.075 8.77625 129.101 8.34907C136.936 5.10319 139.996 4.833 139.477 3.32873C139.251 2.67517 138.302 2.17132 137.181 2.03257C138.919 1.82445 140.697 2.49627 141.033 3.46747C141.602 5.12144 139.2 6.50889 130.565 10.0907Z" fill="#151515"/>
<path d="M121.82 8.8099L122.123 8.67847V9.12755L121.82 9.26264V8.8099Z" fill="#505050"/>
<path d="M122.379 8.56941L122.704 8.43066V8.87976L122.379 9.02216V8.56941Z" fill="#505050"/>
<path d="M122.955 8.316L123.284 8.17725V8.62634L122.955 8.76873V8.316Z" fill="#505050"/>
<path d="M123.536 8.06915L123.864 7.92676V8.37585L123.536 8.51825V8.06915Z" fill="#505050"/>
<path d="M124.116 7.81598L124.441 7.67358V8.12633L124.116 8.26507V7.81598Z" fill="#505050"/>
<path d="M124.697 7.56452L125.022 7.42578V7.87488L124.697 8.01727V7.56452Z" fill="#505050"/>
<path d="M125.275 7.31745L125.604 7.17505V7.62414L125.275 7.76653V7.31745Z" fill="#505050"/>
<path d="M125.854 7.06427L126.179 6.92188V7.37462L125.854 7.51337V7.06427Z" fill="#505050"/>
<path d="M126.435 6.81378L126.76 6.67139V7.12412L126.435 7.26652V6.81378Z" fill="#505050"/>
<path d="M127.011 6.56451L127.34 6.42212V6.87121L127.011 7.01361V6.56451Z" fill="#505050"/>
<path d="M127.593 6.3128L127.922 6.17041V6.6195L127.593 6.76189V6.3128Z" fill="#505050"/>
<path d="M128.174 6.06208L128.499 5.91968V6.37243L128.174 6.51482V6.06208Z" fill="#505050"/>
<path d="M128.754 5.80793L129.079 5.66919V6.11828L128.754 6.26068V5.80793Z" fill="#505050"/>
<path d="M129.332 5.55963L129.661 5.41724V5.86632L129.332 6.00872V5.55963Z" fill="#505050"/>
<path d="M129.91 5.30914L130.239 5.16675V5.61949L129.91 5.75823V5.30914Z" fill="#505050"/>
<path d="M130.492 5.05744L130.817 4.91504V5.36779L130.492 5.51018V5.05744Z" fill="#505050"/>
<path d="M131.068 4.80817L131.397 4.66577V5.11487L131.068 5.25726V4.80817Z" fill="#505050"/>
<path d="M131.65 4.55621L131.979 4.41382V4.8629L131.65 5.0053V4.55621Z" fill="#505050"/>
<path d="M132.231 4.30573L132.559 4.16333V4.61607L132.231 4.75847V4.30573Z" fill="#505050"/>
<path d="M132.81 4.05281L133.135 3.91406V4.36315L132.81 4.50555V4.05281Z" fill="#505050"/>
<path d="M133.39 3.80451L133.715 3.66211V4.1112L133.39 4.2536V3.80451Z" fill="#505050"/>
<path d="M134.297 3.4104V3.86314L133.968 4.00188V3.55279L134.297 3.4104Z" fill="#505050"/>
<path d="M134.876 3.15991V3.609L134.548 3.75141V3.29866L134.876 3.15991Z" fill="#505050"/>
<path d="M135.453 2.90918V3.35827L135.128 3.50067V3.05157L135.453 2.90918Z" fill="#505050"/>
<path d="M136.033 2.65869V3.11143L135.705 3.25018V2.80109L136.033 2.65869Z" fill="#505050"/>
<path d="M137.567 2.4762C137.747 2.33946 137.954 2.24239 138.173 2.19141V2.4908L137.567 2.4762Z" fill="#505050"/>
<path d="M138.867 2.12095V2.53353C138.714 2.53353 138.564 2.51162 138.411 2.50431V2.1392C138.562 2.11848 138.715 2.11237 138.867 2.12095Z" fill="#505050"/>
<path d="M140.325 2.70413C140.197 2.70413 140.08 2.67857 139.96 2.66397C139.839 2.64936 139.726 2.62746 139.613 2.61651C139.445 2.59095 139.281 2.57269 139.116 2.55809V2.14551C139.316 2.17149 139.511 2.2243 139.697 2.3025C139.813 2.3487 139.924 2.40617 140.029 2.47411C140.083 2.50605 140.134 2.54142 140.183 2.58C140.234 2.63476 140.281 2.66032 140.325 2.70413Z" fill="#505050"/>
<path d="M129.9 6.37509L126.07 8.22258C126.07 8.22258 119.965 4.93653 115.584 2.55964C113.244 1.28172 111.458 0.288616 111.487 0.252106C111.56 0.153523 112.736 0.164474 113.203 0.226547C113.248 0.23081 113.292 0.239369 113.335 0.252106C113.532 0.306873 120.44 2.86632 125.278 4.65905L129.9 6.37509Z" fill="#00B3AC"/>
<g opacity="0.1">
<path d="M129.899 6.37454L126.069 8.22202C126.069 8.22202 119.964 4.93598 115.583 2.55908C115.926 2.73069 123.78 6.68854 124.806 6.0934C125.193 5.87068 125.295 5.29015 125.266 4.65119L129.899 6.37454Z" fill="#151515"/>
</g>
<path d="M130.474 6.11953L129.331 6.67086C126.41 5.44772 114.273 0.646441 113.266 0.244814C113.255 0.243265 113.244 0.243265 113.233 0.244814H113.207C113.252 0.249074 113.296 0.257637 113.339 0.270373C113.631 0.328793 130.474 6.11953 130.474 6.11953Z" fill="#00B3AC"/>
<path opacity="0.5" d="M130.474 6.11953L129.331 6.67086C126.41 5.44772 114.273 0.646441 113.266 0.244814C113.255 0.243265 113.244 0.243265 113.233 0.244814H113.207C113.252 0.249074 113.296 0.257637 113.339 0.270373C113.631 0.328793 130.474 6.11953 130.474 6.11953Z" fill="white"/>
<path d="M122.233 6.21123C121.868 6.39378 121.452 6.53618 121.423 6.15646C121.423 6.00311 121.528 5.83881 122.135 5.54672C122.273 5.47734 122.62 5.32765 122.722 5.64165C122.825 5.95564 122.387 6.14185 122.233 6.21123Z" fill="#00B3AC"/>
<path opacity="0.1" d="M122.233 6.21123C121.868 6.39378 121.452 6.53618 121.423 6.15646C121.423 6.00311 121.528 5.83881 122.135 5.54672C122.273 5.47734 122.62 5.32765 122.722 5.64165C122.825 5.95564 122.387 6.14185 122.233 6.21123Z" fill="#151515"/>
<path d="M118.993 4.56787C118.628 4.75043 118.208 4.89282 118.179 4.51675C118.179 4.35975 118.288 4.19545 118.891 3.90336C119.033 3.83764 119.38 3.68429 119.482 3.99829C119.585 4.31229 119.136 4.4985 118.993 4.56787Z" fill="#00B3AC"/>
<path opacity="0.1" d="M118.993 4.56787C118.628 4.75043 118.208 4.89282 118.179 4.51675C118.179 4.35975 118.288 4.19545 118.891 3.90336C119.033 3.83764 119.38 3.68429 119.482 3.99829C119.585 4.31229 119.136 4.4985 118.993 4.56787Z" fill="#151515"/>
<path d="M115.734 2.90754C115.369 3.07549 115.004 3.21059 114.975 2.86008C114.975 2.71403 115.077 2.56068 115.639 2.2905C115.771 2.22477 116.096 2.08603 116.19 2.37812C116.285 2.67022 115.865 2.84181 115.734 2.90754Z" fill="#00B3AC"/>
<path opacity="0.1" d="M115.734 2.90754C115.369 3.07549 115.004 3.21059 114.975 2.86008C114.975 2.71403 115.077 2.56068 115.639 2.2905C115.771 2.22477 116.096 2.08603 116.19 2.37812C116.285 2.67022 115.865 2.84181 115.734 2.90754Z" fill="#151515"/>
<path d="M127.095 5.83776C126.799 6.36352 126.128 6.56799 125.704 6.72134C124.576 7.17408 123.758 7.42601 123.353 6.40004C123.305 6.28344 123.276 6.16034 123.265 6.03492C123.199 5.26088 123.995 4.8775 124.404 4.66209C124.893 4.40285 125.24 4.2349 125.5 4.12902C125.75 4.00478 126.024 3.93391 126.303 3.9209C126.533 3.9209 127.033 3.97202 127.216 4.91402C127.286 5.22649 127.243 5.55377 127.095 5.83776Z" fill="#00B3AC"/>
<ellipse cx="126.303" cy="5.10284" rx="0.803254" ry="1.04058" fill="#151515"/>
<path d="M127.016 5.10368C126.918 5.46832 126.558 5.69794 126.186 5.63322C125.814 5.56849 125.552 5.23078 125.583 4.8544C125.614 4.47802 125.926 4.18714 126.304 4.18359C126.751 4.24784 127.066 4.65509 127.016 5.10368Z" fill="#505050"/>
<path d="M141.287 73.0473L137.417 75.5885L127.789 75.4936L129.475 69.8927L139.169 69.7686L141.287 73.0473Z" fill="#939393"/>
<path d="M139.169 69.7681L138.347 69.3591L128.931 69.4577L127.27 75.3361L127.788 75.4931L129.475 69.8922L139.169 69.7681Z" fill="#505050"/>
<path d="M145.003 86.3953L141.22 88.1515L125.509 82.5506L127.474 77.041L143.185 82.6419L145.003 86.3953Z" fill="#00B3AC"/>
<path d="M143.185 82.6428L143.831 83.3475L145.558 86.8343L141.341 88.7694L125.477 83.07L125.51 82.5515L141.221 88.1524L145.003 86.3962L143.185 82.6428Z" fill="#00B3AC"/>
<path opacity="0.1" d="M143.185 82.6428L143.831 83.3475L145.558 86.8343L141.341 88.7694L125.477 83.07L125.51 82.5515L141.221 88.1524L145.003 86.3962L143.185 82.6428Z" fill="#151515"/>
<path d="M107.74 71.079L110.026 74.5658L126.332 78.0892L127.562 72.3715L111.26 68.8445L107.74 71.079Z" fill="white"/>
<path d="M107.74 71.0791L110.026 74.566L126.332 78.0893L125.977 79.035L110.026 75.57L107.798 72.2511L107.74 71.0791Z" fill="#505050"/>
<path d="M108.098 145.978L103.717 144.664L129.059 64.2761C129.381 63.2575 130.122 62.593 130.731 62.7755L130.83 62.8047C131.44 62.9909 131.688 63.9548 131.392 64.9772L108.098 145.978Z" fill="#00B3AC"/>
<path opacity="0.4" d="M108.098 145.978L103.717 144.664L129.059 64.2761C129.381 63.2575 130.122 62.593 130.731 62.7755L130.83 62.8047C131.44 62.9909 131.688 63.9548 131.392 64.9772L108.098 145.978Z" fill="#151515"/>
<g opacity="0.3">
<path d="M129.454 65.7771C128.48 68.7126 127.522 71.653 126.58 74.5983C125.631 77.5411 124.693 80.4876 123.791 83.445C122.889 86.4025 122.009 89.3672 121.188 92.3502L120.585 94.5884L120.023 96.8375C119.676 98.3381 119.369 99.857 118.971 101.358C118.172 104.352 117.146 107.272 116.083 110.179L112.863 118.88C110.685 124.669 108.906 130.602 107.54 136.635C108.168 133.605 108.938 130.607 109.818 127.642C110.698 124.678 111.702 121.749 112.739 118.839L115.934 110.128C116.981 107.207 118 104.286 118.789 101.31C119.176 99.8205 119.49 98.3053 119.844 96.7973L120.417 94.5482L121.023 92.3064C121.859 89.3271 122.747 86.366 123.663 83.4085C125.496 77.501 127.426 71.6238 129.454 65.7771Z" fill="#151515"/>
<path d="M130.145 64.1228L129.287 67.7228L128.37 71.3119C127.75 73.6998 127.114 76.084 126.446 78.4609C125.778 80.8378 125.059 83.2074 124.303 85.5514C123.547 87.8955 122.758 90.2395 121.82 92.5251L122.455 90.7872L123.051 89.0346C123.441 87.8663 123.828 86.6942 124.186 85.5149C124.916 83.1599 125.606 80.7867 126.271 78.4134C126.935 76.0402 127.614 73.6669 128.253 71.2791L130.145 64.1228Z" fill="#151515"/>
<path d="M110.299 128.073C110.803 126.978 111.289 125.861 111.76 124.747C112.231 123.634 112.72 122.52 113.187 121.399C114.118 119.161 115.013 116.905 115.831 114.626C116.649 112.348 117.474 110.062 118.146 107.737C118.321 107.156 118.489 106.572 118.631 105.984C118.774 105.396 118.945 104.812 119.062 104.217C119.179 103.622 119.321 103.034 119.427 102.439L119.697 100.642C119.436 103.057 118.953 105.443 118.255 107.769C117.602 110.106 116.824 112.41 115.995 114.688C115.166 116.967 114.243 119.216 113.29 121.447C112.337 123.678 111.365 125.894 110.299 128.073Z" fill="#151515"/>
<path d="M123.791 88.9653C123.255 90.2944 122.732 91.6331 122.221 92.9816C121.713 94.3216 121.217 95.6689 120.793 97.0344C120.574 97.7127 120.409 98.4074 120.3 99.1119C120.277 99.2803 120.277 99.4511 120.3 99.6194C120.304 99.6453 120.316 99.6694 120.333 99.6888C120.333 99.6888 120.333 99.6888 120.37 99.6888C120.433 99.6412 120.488 99.5846 120.534 99.5208C120.735 99.23 120.907 98.9207 121.049 98.5971C121.338 97.9439 121.575 97.2687 121.757 96.578C121.952 95.8869 122.081 95.1792 122.144 94.464C122.065 95.9056 121.736 97.3225 121.173 98.6519C121.038 98.9909 120.867 99.3141 120.662 99.6158C120.604 99.6966 120.532 99.767 120.45 99.8239C120.386 99.8669 120.302 99.8669 120.238 99.8239C120.189 99.7814 120.156 99.7235 120.143 99.6596C120.118 99.473 120.118 99.2839 120.143 99.0973C120.248 98.3818 120.41 97.676 120.629 96.9869C121.064 95.6141 121.564 94.2668 122.089 92.9342C122.615 91.6015 123.192 90.2688 123.791 88.9653Z" fill="#151515"/>
<path d="M115.164 118.672C114.116 121.373 113.046 124.064 111.9 126.704C111.615 127.369 111.327 128.033 111.024 128.694C110.72 129.355 110.385 129.994 110.089 130.651C109.494 131.965 109.005 133.326 108.628 134.718C108.437 135.411 108.299 136.118 108.216 136.832C108.172 137.183 108.186 137.538 108.256 137.884C108.283 138.043 108.369 138.185 108.497 138.282C108.574 138.322 108.606 138.329 108.672 138.282C108.74 138.238 108.799 138.183 108.847 138.118C109.242 137.519 109.555 136.871 109.778 136.19C110.027 135.514 110.242 134.824 110.432 134.127C110.627 133.432 110.78 132.726 110.888 132.013C110.915 131.836 110.932 131.658 110.94 131.48C110.96 131.311 110.936 131.14 110.87 130.983C110.837 130.932 110.764 130.94 110.699 130.983C110.63 131.035 110.571 131.098 110.523 131.169C110.419 131.315 110.327 131.469 110.249 131.63C109.942 132.282 109.689 132.958 109.494 133.652C109.391 133.999 109.3 134.35 109.227 134.704C109.191 134.883 109.161 135.069 109.139 135.241C109.103 135.418 109.103 135.6 109.139 135.777C109.093 135.601 109.084 135.417 109.114 135.237C109.133 135.057 109.159 134.878 109.191 134.7C109.256 134.335 109.34 133.992 109.432 133.641C109.616 132.938 109.86 132.251 110.162 131.589C110.241 131.423 110.333 131.263 110.436 131.111C110.491 131.032 110.557 130.962 110.633 130.903C110.676 130.87 110.728 130.85 110.783 130.845C110.845 130.84 110.906 130.867 110.943 130.918C111.025 131.093 111.058 131.287 111.038 131.48C111.038 131.662 111.013 131.845 110.991 132.024C110.885 132.756 110.735 133.482 110.542 134.196C110.355 134.897 110.144 135.591 109.899 136.277C109.778 136.617 109.647 136.957 109.497 137.289C109.358 137.631 109.178 137.954 108.961 138.253C108.901 138.334 108.827 138.404 108.742 138.457C108.689 138.489 108.628 138.506 108.566 138.505C108.51 138.495 108.455 138.476 108.406 138.446C108.237 138.329 108.12 138.151 108.081 137.95C108.006 137.589 107.99 137.22 108.033 136.854C108.105 136.129 108.245 135.411 108.449 134.711C108.841 133.311 109.346 131.946 109.961 130.629C110.264 129.968 110.611 129.333 110.907 128.676C111.202 128.019 111.505 127.358 111.798 126.697C112.944 124.027 114.066 121.352 115.164 118.672Z" fill="#151515"/>
<path d="M104.918 145.018C105.13 144.001 105.353 142.983 105.586 141.966L106.298 138.924L107.054 135.894C107.31 134.882 107.58 133.878 107.857 132.874C107.646 133.897 107.423 134.912 107.189 135.927L106.477 138.968L105.721 141.998C105.455 143.006 105.185 144.014 104.918 145.018Z" fill="#151515"/>
<path d="M106.056 145.364C106.478 144.62 106.788 143.818 106.976 142.983C107.174 142.156 107.221 141.3 107.115 140.457C107.006 139.597 107.006 138.728 107.115 137.868C107.208 137.009 107.35 136.155 107.542 135.312C107.393 136.159 107.298 137.014 107.225 137.868C107.146 138.719 107.164 139.577 107.28 140.424C107.408 141.288 107.359 142.168 107.137 143.013C106.923 143.856 106.557 144.653 106.056 145.364Z" fill="#151515"/>
<path d="M114.338 121.417C113.623 123.41 112.992 125.431 112.447 127.478C112.177 128.5 111.936 129.533 111.768 130.574C111.6 131.614 111.45 132.673 111.235 133.71C111.02 134.747 110.786 135.784 110.479 136.803C110.196 137.83 109.804 138.824 109.307 139.767C108.759 140.671 108.289 141.621 107.901 142.604C107.503 143.585 107.157 144.585 106.865 145.602C107.348 143.532 108.124 141.542 109.168 139.691C109.653 138.755 110.035 137.77 110.308 136.752C110.6 135.737 110.854 134.712 111.071 133.677C111.29 132.64 111.465 131.6 111.629 130.552C111.794 129.504 112.064 128.474 112.359 127.452C112.907 125.411 113.59 123.403 114.338 121.417Z" fill="#151515"/>
<path d="M131.074 62.9375C130.811 64.1886 130.533 65.4373 130.238 66.6836C129.95 67.9323 129.636 69.17 129.325 70.4114C129.015 71.6528 128.672 72.8869 128.314 74.1173C127.956 75.3478 127.584 76.5709 127.116 77.7685C127.317 77.1588 127.5 76.549 127.671 75.9429C127.843 75.3368 128.015 74.7125 128.179 74.0918C128.508 72.8577 128.836 71.62 129.147 70.3822L130.11 66.6507L131.074 62.9375Z" fill="#151515"/>
</g>
<path d="M145.558 173.759H-0.283447C1.27408 170.648 3.04803 167.65 5.02534 164.788C5.66064 163.863 6.31784 162.953 6.99695 162.057C7.21968 161.761 7.4497 161.458 7.67972 161.166C8.13977 160.574 8.61077 159.99 9.08542 159.413C9.56007 158.837 10.053 158.267 10.5459 157.701L11.2761 156.865C11.7763 156.306 12.2911 155.77 12.8096 155.215C13.3281 154.66 13.8575 154.119 14.3942 153.608C14.6571 153.342 14.9309 153.082 15.2048 152.819C18.2115 149.937 21.4392 147.294 24.8584 144.915C26.1095 144.038 27.3899 143.197 28.6994 142.392C29.1339 142.122 29.572 141.859 30.0175 141.596C30.9011 141.074 31.7956 140.57 32.7011 140.077L33.7964 139.489L34.4135 139.175C34.6216 139.069 34.8297 138.96 35.0415 138.857L35.3956 138.708L35.5636 138.627L36.5896 138.131C37.0277 137.923 37.4658 137.715 37.9113 137.517C38.2764 137.353 38.6415 137.196 38.9811 137.043C39.3206 136.889 39.7113 136.732 40.0545 136.586L40.2444 136.506L41.1389 136.141C41.6172 135.951 42.1065 135.758 42.5994 135.571L43.3296 135.294C45.0335 134.659 46.7787 134.078 48.5654 133.552L49.2335 133.362C49.2443 133.366 49.2556 133.366 49.2664 133.362L49.4635 133.308C49.8214 133.205 50.1792 133.107 50.537 133.012L50.9204 132.913C51.2855 132.811 51.6506 132.716 52.034 132.625C52.505 132.508 52.976 132.391 53.4433 132.285C53.9107 132.179 54.3086 132.085 54.7504 131.99L54.9731 131.946L55.7034 131.796L55.7837 131.778L55.9334 131.749L56.2291 131.69H56.262L56.5943 131.628H56.6381L57.2734 131.508H57.3026C57.4997 131.468 57.6969 131.435 57.8977 131.398L59.4896 131.135H59.5225C60.019 131.062 60.5156 130.989 61.0122 130.923C61.1148 130.905 61.2184 130.891 61.3225 130.883C61.7606 130.818 62.2061 130.766 62.6442 130.715L62.8049 130.697C63.2211 130.646 63.63 130.606 64.0499 130.566C64.3019 130.533 64.5611 130.507 64.8167 130.489C64.9919 130.471 65.1818 130.453 65.3497 130.445C65.7441 130.405 66.1384 130.376 66.54 130.35H66.6824C67.0475 130.317 67.4382 130.292 67.8179 130.274C68.3108 130.248 68.7964 130.222 69.2784 130.208C69.6691 130.19 70.0597 130.175 70.4504 130.171C70.6658 130.171 70.8812 130.171 71.0967 130.171C71.6042 130.171 72.1117 130.171 72.6192 130.171C74.8367 130.171 77.0274 130.253 79.1913 130.416L80.3962 130.518L80.984 130.577L81.5901 130.635C82.1548 130.696 82.7171 130.762 83.2769 130.832C83.9049 130.909 84.5293 130.997 85.1536 131.088L86.3293 131.267C87.505 131.46 88.6697 131.672 89.8234 131.909C90.5938 132.07 91.3569 132.238 92.12 132.417C93.2616 132.687 94.3935 132.979 95.5156 133.293C96.2458 133.501 97.0126 133.724 97.7501 133.954C103.587 135.761 109.205 138.21 114.502 141.256C120.146 144.508 125.376 148.431 130.077 152.94C130.496 153.349 130.914 153.76 131.33 154.174C132.159 155.007 132.962 155.857 133.751 156.73C134.539 157.603 135.306 158.479 136.051 159.377C139.756 163.825 142.941 168.682 145.544 173.854L145.558 173.759Z" fill="white"/>
<g opacity="0.2">
<path d="M87.2754 136.884C86.6693 137.957 85.6945 138.169 84.5626 138.245C83.4308 138.322 82.3719 137.745 81.1743 138.457C79.9768 139.169 78.7609 143.025 77.1763 143.24C75.5917 143.456 72.7949 139.815 72.2035 138.742C71.612 137.668 73.5617 135.383 72.6379 134.317C71.7142 133.251 70.0821 133.455 67.5263 133.243C67.3657 133.243 67.1941 133.221 67.0115 133.218C64.2476 133.145 59.0265 134.014 59.2346 134.89C59.293 135.138 59.9648 135.255 60.9141 135.299C63.4699 135.449 68.0375 135.248 68.2164 136.599C68.4391 138.457 61.9583 141.597 60.8338 141.312C59.7092 141.028 58.1903 139.173 56.5364 138.957C54.8824 138.742 53.5169 140.027 52.4763 140.17C52.0379 140.188 51.6019 140.096 51.2093 139.899C50.4608 139.611 49.6138 139.206 48.6243 139.385C47.0433 139.666 46.6636 140.955 45.8348 141.455C45.006 141.955 43.0453 141.955 42.8226 143.094C42.7131 143.667 43.3265 144.113 44.0567 144.503C44.7869 144.894 45.645 145.234 45.9845 145.599C46.6636 146.329 45.1557 148.742 45.8348 149.25C46.5139 149.758 50.7347 146.245 51.7862 145.391C52.8377 144.536 53.7469 140.819 56.0069 140.889C58.267 140.958 59.0191 144.606 59.7749 144.96C60.5307 145.314 62.1883 144.105 64.6711 144.595C67.1539 145.084 68.8882 150.247 69.3519 151.813C69.8156 153.379 70.8598 154.96 69.958 155.603C69.0562 156.246 64.9815 155.172 64.4594 154.175C63.9373 153.179 67.1685 151.674 66.9421 151.32C66.7158 150.966 64.8318 150.459 63.8569 151.017C62.8821 151.576 62.4257 152.741 61.3668 153.029C60.308 153.317 57.5222 150.316 56.7737 151.17C56.0252 152.025 57.5039 154.745 58.278 155.388C59.052 156.03 61.8196 156.388 62.0423 157.1C62.265 157.812 60.162 159.382 57.5988 159.243C55.0357 159.104 52.929 157.242 51.9469 158.027C50.9647 158.812 51.4978 160.883 50.8187 161.598C50.1395 162.314 46.4373 161.814 44.6409 163.665C42.8445 165.516 42.0011 168.305 40.1938 169.872C38.3865 171.438 37.5613 169.445 35.1479 171.657C34.5287 172.253 34.0325 172.966 33.6874 173.753H7.5853C7.5853 173.651 7.5853 173.548 7.55609 173.446C7.11065 169.16 8.68795 164.662 11.8535 161.032C11.8535 161.032 12.3062 158.674 12.7553 157.177C13.2044 155.68 22.9275 149.677 24.0739 147.965C24.5449 147.235 24.7056 146.139 24.8735 144.92C26.1247 144.043 27.405 143.202 28.7146 142.397C29.149 142.127 29.5872 141.864 30.0326 141.601C30.9162 141.079 31.8107 140.575 32.7162 140.082L33.8116 139.494L34.4286 139.18C34.6367 139.074 34.8448 138.965 35.0566 138.862L35.3962 138.709L35.5641 138.629C35.9037 138.457 36.2469 138.293 36.5901 138.132L36.8566 137.979C37.5576 137.647 38.2696 137.329 38.9853 137.019L40.0587 136.559L40.2485 136.478L41.1431 136.113C41.6214 135.923 42.1106 135.73 42.6035 135.544L43.3338 135.266C45.0377 134.631 46.7829 134.05 48.5695 133.524L49.2377 133.335C49.2484 133.338 49.2598 133.338 49.2706 133.335L49.4677 133.28C49.8255 133.178 50.1833 133.079 50.5412 132.984L50.9245 132.885C51.2896 132.783 51.6548 132.688 52.0381 132.597C52.5091 132.48 52.9801 132.363 53.4475 132.257C53.9148 132.152 54.3128 132.057 54.7546 131.962L54.9773 131.918L55.7076 131.768L55.7879 131.75L56.2333 131.662H56.2662L56.5984 131.6H56.6422L57.2775 131.48H57.3031C57.5003 131.44 57.6974 131.407 57.8982 131.37L59.4901 131.107H59.523C60.0196 131.034 60.5161 130.961 61.0127 130.896C61.1153 130.877 61.2189 130.863 61.323 130.855C61.7612 130.79 62.2066 130.739 62.6448 130.688L62.8054 130.669C63.2216 130.618 63.6306 130.578 64.0504 130.538C64.3024 130.505 64.5616 130.479 64.8172 130.461C64.9924 130.443 65.1823 130.425 65.3503 130.417C65.7446 130.377 66.1389 130.348 66.5405 130.322H66.6829C67.048 130.29 67.4387 130.264 67.8184 130.246C68.3113 130.22 68.7969 130.195 69.2789 130.18C69.6696 130.162 70.0602 130.147 70.4509 130.144C70.6663 130.144 70.8817 130.144 71.0972 130.144C71.6047 130.144 72.1122 130.144 72.6197 130.144C74.8372 130.144 77.0279 130.225 79.1918 130.388C79.2684 130.49 79.3451 130.582 79.4182 130.673C79.4273 130.69 79.4397 130.705 79.4547 130.717C79.8656 131.224 80.3491 131.668 80.8896 132.035C81.9596 132.702 83.1105 133.23 84.3143 133.605C87.2024 134.536 87.8815 135.821 87.2754 136.884Z" fill="#151515"/>
<path d="M89.2367 137.465C88.8424 138.363 90.668 138.681 91.7231 139.25C92.7783 139.82 93.6035 140.178 94.2096 139.25C94.8157 138.323 93.9832 137.249 93.1544 137.038C92.3256 136.826 89.6128 136.607 89.2367 137.465Z" fill="#151515"/>
<path d="M103.475 145.817C104.169 146.511 105.359 146.387 106.188 147.387C107.017 148.388 106.714 150.1 107.769 150.6C108.824 151.1 109.576 150.6 109.653 149.888C109.73 149.176 108.145 147.387 108.298 147.029C108.452 146.672 110.489 147.53 110.935 148.603C111.38 149.676 110.482 151.159 111.537 151.458C112.592 151.758 112.366 150.458 112.819 150.173C113.271 149.888 114.25 150.031 114.173 149.173C114.096 148.315 112.892 146.46 111.913 145.817C110.935 145.175 110.182 144.459 108.525 144.105C106.867 143.751 105.283 144.032 104.454 144.674C103.625 145.317 103.044 145.39 103.475 145.817Z" fill="#151515"/>
<path d="M136.073 159.272C136.025 159.565 135.875 159.832 135.649 160.024C134.064 161.098 132.18 157.384 129.997 156.673C127.814 155.961 126.831 153.313 126.382 153.887C125.933 154.46 126.079 155.241 125.4 156.169C124.721 157.096 123.743 156.899 123.29 158.67C122.837 160.44 125.4 163.737 124.798 164.811C124.195 165.884 123.443 165.523 122.242 165.454C121.041 165.384 121.264 166.381 119.686 165.95C118.109 165.519 119.46 163.668 116.973 161.456C114.487 159.243 113.658 158.812 114.188 157.804C114.717 156.797 113.961 155.38 115.089 155.249C116.218 155.117 117.123 156.68 117.875 157.107C118.627 157.534 119.61 156.249 119.701 155.106C119.792 153.963 117.061 152.393 116.082 151.506C115.104 150.619 115.027 147.395 115.403 146.76C115.779 146.124 116.911 146.332 117.229 144.762C117.404 143.839 115.863 142.294 114.56 141.181C122.744 145.891 130.028 152.017 136.073 159.272Z" fill="#151515"/>
<path d="M145.559 173.762H122.421C121.819 172.597 120.935 171.144 120.88 170.034C120.804 168.61 122.308 168.672 125.174 166.671C128.04 164.67 128.789 164.816 130.976 165.528C132.55 166.082 134.163 166.515 135.803 166.824C137.055 167.032 138.746 170.063 139.308 170.045C139.308 170.045 139.333 170.045 139.341 170.045C139.867 169.899 139.947 168.971 140.17 167.617C140.318 167.022 140.646 166.486 141.108 166.083C142.743 168.552 144.229 171.116 145.559 173.762Z" fill="#151515"/>
</g>
<path opacity="0.1" d="M81.0059 130.483C80.4911 130.53 79.9836 130.592 79.4761 130.651C77.9572 130.837 76.4602 131.063 74.9742 131.337C72.2911 131.824 69.6364 132.457 67.0219 133.232C64.9517 133.842 62.9144 134.536 60.9245 135.313C57.5813 136.615 54.3346 138.153 51.2088 139.914C49.1496 141.08 47.1572 142.333 45.2319 143.674C44.8339 143.952 44.4432 144.233 44.0562 144.518C33.7133 151.967 25.5723 162.07 20.4916 173.76H-0.283447C1.27408 170.649 3.04803 167.651 5.02534 164.789C5.66064 163.864 6.31784 162.954 6.99695 162.058C7.21968 161.762 7.4497 161.459 7.67972 161.167C8.13977 160.576 8.61077 159.991 9.08542 159.415C9.56007 158.838 10.053 158.268 10.5459 157.702L11.2761 156.866C11.7763 156.307 12.2911 155.771 12.8096 155.216C13.3281 154.661 13.8575 154.12 14.3942 153.609C14.6571 153.343 14.9309 153.083 15.2048 152.821C18.2115 149.938 21.4392 147.295 24.8584 144.916C26.1095 144.04 27.3899 143.199 28.6994 142.393C29.1339 142.123 29.572 141.86 30.0175 141.597C30.9011 141.075 31.7956 140.571 32.7011 140.078L33.7964 139.49L34.4135 139.176C34.6216 139.07 34.8297 138.961 35.0415 138.859L35.3956 138.709L35.5636 138.629L36.5896 138.132L36.8561 137.979L37.9149 137.493C38.6233 137.172 39.3377 136.861 40.0582 136.562L41.1535 136.117C41.6318 135.927 42.1211 135.733 42.614 135.547L43.3442 135.27C45.0481 134.639 46.7933 134.059 48.58 133.528L49.2481 133.338C49.2589 133.341 49.2702 133.341 49.281 133.338L49.4782 133.283C49.8359 133.181 50.1938 133.082 50.5516 132.988L50.935 132.889C51.3001 132.787 51.6652 132.692 52.0486 132.601C52.5196 132.484 52.9906 132.367 53.4579 132.261C53.9253 132.155 54.3232 132.06 54.765 131.965L54.9877 131.921L55.718 131.772L55.7983 131.753L56.2437 131.666H56.2766L56.6089 131.604H56.6527L57.288 131.483H57.3026C57.4997 131.443 57.6969 131.41 57.8977 131.374L59.4896 131.111H59.5225C60.019 131.038 60.5156 130.965 61.0122 130.899C61.1148 130.88 61.2184 130.867 61.3225 130.859C61.7606 130.793 62.2061 130.742 62.6442 130.691L62.8049 130.673C63.2211 130.622 63.63 130.581 64.0499 130.541C64.3018 130.508 64.5611 130.483 64.8167 130.465C64.9919 130.446 65.1818 130.428 65.3497 130.421C65.7441 130.381 66.1384 130.351 66.54 130.326H66.6824C67.0475 130.293 67.4382 130.267 67.8179 130.249C68.3108 130.224 68.7964 130.198 69.2784 130.184C69.6691 130.165 70.0597 130.151 70.4504 130.147C70.6658 130.147 70.8812 130.147 71.0967 130.147C71.6042 130.147 72.1117 130.147 72.6192 130.147C74.8367 130.147 77.0274 130.229 79.1913 130.392L80.3961 130.494L81.0059 130.483Z" fill="#151515"/>
<path opacity="0.3" d="M145.559 173.759H141.408C140.747 172.496 140.042 171.255 139.308 170.031C138.763 169.111 138.195 168.203 137.603 167.308C136.035 164.939 134.337 162.66 132.517 160.48C130.595 158.168 128.542 155.967 126.369 153.89C123.317 150.972 120.041 148.299 116.569 145.897C114.721 144.612 112.812 143.404 110.84 142.272C101.607 136.963 91.4454 133.466 80.9007 131.968C79.063 131.705 77.2057 131.503 75.329 131.362C75.2049 131.362 75.0844 131.34 74.9639 131.336C72.9047 131.183 70.8223 131.106 68.7168 131.106C62.1712 131.102 55.6465 131.848 49.2708 133.33L49.4679 133.275C49.8258 133.173 50.1835 133.074 50.5414 132.979L50.9248 132.881C51.2898 132.779 51.6549 132.684 52.0383 132.592C52.5093 132.476 52.9803 132.359 53.4477 132.253C53.915 132.147 54.313 132.052 54.7548 131.957L54.9775 131.913L55.7078 131.764L55.7881 131.745L56.2335 131.658H56.2664L56.5986 131.596H56.6424L57.2778 131.475H57.3033C57.5004 131.435 57.6976 131.402 57.8984 131.366L59.4904 131.103H59.5232C60.0198 131.03 60.5163 130.957 61.0129 130.891C61.1155 130.872 61.2191 130.859 61.3232 130.851C61.7614 130.785 62.2068 130.734 62.6449 130.683L62.8056 130.665C63.2218 130.614 63.6307 130.573 64.0507 130.533C64.3026 130.5 64.5618 130.475 64.8174 130.457C64.9926 130.438 65.1825 130.42 65.3504 130.413C65.7448 130.373 66.1391 130.343 66.5407 130.318H66.6831C67.0482 130.285 67.4389 130.259 67.8186 130.241C68.3115 130.216 68.7972 130.19 69.2791 130.175C69.6698 130.157 70.0604 130.143 70.4511 130.139C70.6665 130.139 70.882 130.139 71.0974 130.139C71.6049 130.139 72.1124 130.139 72.6199 130.139C74.8374 130.139 77.0281 130.22 79.192 130.384L80.3969 130.486L80.9847 130.544L81.5908 130.603C82.1555 130.663 82.7178 130.729 83.2776 130.8C83.9056 130.876 84.53 130.964 85.1543 131.055L86.33 131.234C87.5057 131.428 88.6704 131.64 89.8242 131.877C90.5945 132.041 91.3576 132.209 92.1207 132.384C93.2623 132.655 94.3942 132.947 95.5163 133.261C96.2465 133.469 97.0133 133.692 97.7508 133.922C103.588 135.729 109.206 138.178 114.502 141.224C120.147 144.476 125.377 148.399 130.078 152.908C130.497 153.316 130.914 153.728 131.331 154.142C132.159 154.974 132.963 155.825 133.751 156.697C134.54 157.57 135.307 158.446 136.051 159.345C139.757 163.793 142.942 168.65 145.544 173.821L145.559 173.759Z" fill="white"/>
<path d="M109.646 139.291C108.874 139.377 88.2802 134.851 87.6054 134.179C87.3433 133.928 87.8279 130.891 88.5208 127.233L88.5423 127.118C88.6823 126.368 91.5397 113.56 91.5397 113.56L105.181 116.74L101.864 129.893L101.806 130.116C101.806 130.116 108.914 135.375 109.578 136.189C110.242 137.004 110.418 139.212 109.646 139.291Z" fill="#FFC4C0"/>
<path d="M87.6042 134.18C88.279 134.851 108.873 139.378 109.645 139.295C110.417 139.213 110.237 137.001 109.577 136.19C108.916 135.379 101.805 130.116 101.805 130.116L101.862 129.894L102.34 128.415L89.0042 125.385C88.857 125.92 88.5627 127.011 88.5411 127.123C88.5411 127.159 88.5411 127.198 88.516 127.234C87.8411 130.892 87.3421 133.932 87.6042 134.18Z" fill="#EBEBEB"/>
<path d="M109.648 139.292C109.249 139.335 103.642 138.164 98.1785 136.922C97.0836 136.675 95.9924 136.423 94.9478 136.179C91.0602 135.264 87.8618 134.438 87.5997 134.18C87.3377 133.921 87.8115 130.974 88.4864 127.388C88.4864 127.338 88.5043 127.288 88.5151 127.234C88.5258 127.18 88.533 127.155 88.5366 127.119H88.5581L101.862 129.887L101.808 130.113C101.808 130.113 108.915 135.372 109.579 136.186C110.243 137.001 110.416 139.209 109.648 139.292Z" fill="#00B3AC"/>
<path d="M109.587 138.443C106.134 137.592 92.1268 134.495 88.6484 133.924C88.6197 133.924 88.6161 133.924 88.6484 133.945C92.0514 134.861 106.084 137.84 109.58 138.497C109.648 138.511 109.659 138.461 109.587 138.443Z" fill="#151515"/>
<path d="M103.33 130.257C102.02 129.701 100.304 129.539 99.048 130.286C98.9977 130.315 99.048 130.386 99.0874 130.379C100.485 130.248 101.893 130.263 103.287 130.426C103.329 130.426 103.365 130.398 103.375 130.358C103.385 130.319 103.367 130.277 103.33 130.257Z" fill="#151515"/>
<path d="M104.19 131.067C102.879 130.51 101.16 130.349 99.9034 131.096C99.8532 131.124 99.9034 131.196 99.9429 131.189C101.341 131.057 102.748 131.073 104.143 131.236C104.185 131.238 104.222 131.21 104.234 131.17C104.245 131.129 104.226 131.087 104.19 131.067Z" fill="#151515"/>
<path d="M105.042 131.879C103.732 131.323 102.016 131.161 100.756 131.908C100.709 131.937 100.756 132.005 100.795 132.001C102.194 131.868 103.603 131.883 104.999 132.048C105.04 132.048 105.076 132.02 105.086 131.98C105.096 131.94 105.078 131.899 105.042 131.879Z" fill="#151515"/>
<path d="M102.487 127.467L89.3276 124.236C89.3276 124.236 94.3926 100.045 94.2705 99.4279C94.1198 98.6345 81.3477 62.1848 81.3477 62.1848H94.2167C94.2167 62.1848 107.499 91.0747 108.421 96.7895C109.283 102.196 102.487 127.467 102.487 127.467Z" fill="#FFC4C0"/>
<path d="M88.5836 84.1825L102.54 79.3471L94.2194 62.1848H81.3503L88.5836 84.1825Z" fill="#505050"/>
<path d="M100.384 78.2186C98.1257 78.7032 90.2355 81.2088 89.4351 81.6396V81.6862C90.3397 81.5893 97.178 79.5324 100.391 78.2832C100.437 78.2724 100.405 78.2114 100.384 78.2186Z" fill="#151515"/>
<path d="M94.0973 62.1848L88.4615 83.8163L81.3503 62.1848H94.0973Z" fill="#151515"/>
<path d="M95.573 144.727C94.8299 144.96 73.7477 144.573 72.958 144.049C72.6564 143.855 72.5308 140.778 72.4913 137.06V136.941C72.4913 136.176 73.1626 123.322 73.1626 123.322L86.6921 123.537L86.0962 137.042V137.271C86.0962 137.271 94.1012 141.03 94.9125 141.697C95.7238 142.365 96.3125 144.494 95.573 144.727Z" fill="#FFC4C0"/>
<path d="M72.4739 135.468C72.4739 135.967 72.4739 136.458 72.4739 136.943V137.058C72.5134 140.777 72.6354 143.853 72.9441 144.047C73.7339 144.571 94.8197 144.959 95.5592 144.725C96.2987 144.492 95.6884 142.363 94.8807 141.696C94.073 141.028 86.068 137.27 86.068 137.27V137.04L86.1291 135.604C83.7276 135.575 76.7564 135.511 72.4739 135.468Z" fill="#EBEBEB"/>
<path d="M95.573 144.726C94.8299 144.959 73.7477 144.571 72.958 144.047C72.6564 143.853 72.5308 140.777 72.4913 137.058V136.94L86.0962 137.04V137.27C86.0962 137.27 94.1013 141.028 94.9125 141.696C95.7238 142.364 96.3125 144.492 95.573 144.726Z" fill="#00B3AC"/>
<path d="M95.3511 143.904C91.7973 143.75 77.4564 143.47 73.9313 143.589C73.9026 143.589 73.9026 143.61 73.9313 143.614C77.4493 143.84 91.7937 144.005 95.3475 143.973C95.4228 143.962 95.4228 143.908 95.3511 143.904Z" fill="#151515"/>
<path d="M87.6041 137.12C86.2112 136.833 84.4953 137.016 83.4113 137.992C83.3682 138.032 83.4113 138.089 83.4688 138.078C84.8128 137.671 86.1968 137.408 87.5969 137.296C87.6392 137.289 87.6709 137.254 87.6726 137.211C87.6744 137.168 87.6457 137.13 87.6041 137.12Z" fill="#151515"/>
<path d="M88.6036 137.733C87.2108 137.446 85.4949 137.629 84.4108 138.605C84.3677 138.644 84.4108 138.702 84.4682 138.687C85.8125 138.281 87.1965 138.02 88.5964 137.909C88.6387 137.902 88.6704 137.866 88.6722 137.824C88.6739 137.781 88.6451 137.743 88.6036 137.733Z" fill="#151515"/>
<path d="M89.6004 138.358C88.2076 138.071 86.4953 138.258 85.4076 139.234C85.3646 139.27 85.4076 139.331 85.4651 139.317C86.8093 138.91 88.1933 138.649 89.5932 138.538C89.6428 138.54 89.6846 138.501 89.6865 138.452C89.6885 138.402 89.6499 138.36 89.6004 138.358Z" fill="#151515"/>
<path d="M94.2198 62.1848C94.2198 62.1848 92.7839 70.4411 91.7465 73.4852C91.7465 73.4852 89.3127 74.3467 89.0398 74.5118L86.2292 133.921H72.5668C72.5668 133.921 74.3042 103.33 74.2863 101.327C74.2539 98.0961 76.0236 76.3102 75.8406 75.7611C73.9524 70.1288 77.0754 62.1848 77.0754 62.1848L94.2198 62.1848Z" fill="#FFC4C0"/>
<path d="M74.6748 83.7122L88.7105 84.0102L89.0407 74.5118L91.7474 73.4852C91.7474 73.4852 93.6786 68.9909 94.2207 62.1848H77.0727C77.0727 62.1848 73.623 69.3104 75.443 75.2872L74.6748 83.7122Z" fill="#505050"/>
<path d="M87.7008 81.5256C83.9855 81.2779 76.7845 81.2241 75.8548 81.3892C75.8332 81.3892 75.8332 81.4323 75.8548 81.4359C76.7738 81.6225 85.5183 81.7948 87.7008 81.5938C87.7367 81.5902 87.7367 81.5292 87.7008 81.5256Z" fill="#151515"/>
<path d="M78.7292 68.8841C78.9841 68.7836 79.2713 68.7585 79.5333 68.6795C79.8127 68.6037 80.0863 68.5077 80.3517 68.3923C80.8561 68.1731 81.3292 67.8883 81.7589 67.5452C82.1704 67.1846 82.4851 66.7267 82.6743 66.2134C82.7892 65.9406 83.2846 64.4939 83.2882 64.4831C83.2917 64.4724 83.3707 64.4616 83.3707 64.4831C83.3707 64.677 83.08 65.919 82.9831 66.2241C82.8308 66.8111 82.5131 67.3419 82.0676 67.7533C81.6028 68.1478 81.07 68.4543 80.4954 68.658C80.1999 68.7715 79.8947 68.8581 79.5836 68.9164C79.2998 68.9879 79.0053 69.0061 78.7149 68.9703C78.679 68.9595 78.6933 68.8949 78.7292 68.8841Z" fill="#151515"/>
<path d="M92.1744 73.0619C90.7577 73.5775 89.3884 74.2152 88.0822 74.9681C88.0319 74.9968 88.0642 75.0758 88.1181 75.0506C89.5001 74.4583 90.9036 73.8948 92.2498 73.2271C92.2954 73.2062 92.3155 73.1524 92.2947 73.1068C92.2738 73.0612 92.22 73.0411 92.1744 73.0619Z" fill="#151515"/>
<path d="M92.6123 63.6007C92.6123 63.554 92.5262 63.5432 92.5262 63.6007C92.5262 65.1316 92.4485 66.6664 92.2933 68.1943C92.2318 68.917 91.6574 72.8333 90.4262 72.5462C90.2215 72.4995 90.1174 72.2949 90.0851 71.9862C90.0894 71.579 90.1436 71.174 90.2467 70.78C90.3831 69.9616 90.4944 69.136 90.5625 68.3067C90.7068 66.7609 90.6912 65.2043 90.5159 63.6617C90.5105 63.6434 90.4937 63.6309 90.4747 63.6309C90.4556 63.6309 90.4388 63.6434 90.4334 63.6617C90.4754 65.8035 90.3554 67.9455 90.0744 70.0693C89.92 71.0888 89.4067 72.6287 90.4728 72.7831C91.5389 72.9374 92.2677 70.3708 92.3969 69.6672C92.7295 67.6627 92.8019 65.6237 92.6123 63.6007Z" fill="#151515"/>
<path d="M90.4605 72.6557C90.349 72.9195 90.2555 73.1905 90.1805 73.4669C90.1015 73.6818 90.0626 73.9093 90.0656 74.1382C90.0747 74.1533 90.091 74.1626 90.1087 74.1626C90.1263 74.1626 90.1427 74.1533 90.1518 74.1382C90.2791 73.9357 90.3759 73.7156 90.4389 73.4849C90.5323 73.2336 90.6292 72.9859 90.719 72.731C90.727 72.6647 90.6858 72.6023 90.6217 72.5836C90.5575 72.5649 90.4893 72.5954 90.4605 72.6557Z" fill="#151515"/>
<path d="M87.6361 52.0434C86.778 52.4551 85.8761 52.7682 84.9474 52.9767C86.7136 51.1065 87.6218 46.1922 87.3094 46.8491C85.8126 50.0044 82.8977 53.1706 82.0613 53.1706C80.0327 52.9503 78.1306 52.0773 76.6409 50.6829C78.8414 48.6152 79.8932 43.6471 79.7137 43.9235C77.7752 46.8814 74.846 48.2024 74.4153 48.0983C73.1589 46.203 72.6563 44.4763 72.9184 44.3758C74.8389 43.622 76.9173 41.0266 78.8916 38.2338C80.8444 35.4806 82.1223 32.738 84.5274 30.4263C86.7136 28.3119 90.07 28.5776 91.6207 30.2647C95.6878 34.6549 88.8458 51.4619 87.6361 52.0434Z" fill="#151515"/>
<path d="M91.3299 29.9597C91.6967 30.2671 91.994 30.6488 92.2022 31.0797C92.4168 31.5069 92.5922 31.9526 92.7262 32.4115C92.9736 33.3348 93.1216 34.2818 93.1678 35.2366C93.2599 37.1429 93.0957 39.0529 92.6796 40.9155C92.2667 42.7741 91.6975 44.5946 90.9781 46.3574C90.8022 46.799 90.6191 47.2333 90.4181 47.6677L89.8186 48.9636L89.1689 50.2487L88.4868 51.4943L89.0935 50.2092L89.6751 48.9133L90.2314 47.6067C90.4037 47.1651 90.5904 46.7308 90.7483 46.2856C91.4289 44.5233 91.9725 42.7111 92.3745 40.8652C92.7937 39.0255 92.9818 37.1408 92.9344 35.2545C92.9103 34.3126 92.7901 33.3756 92.5755 32.4581C92.4729 31.9989 92.33 31.5497 92.1483 31.1156C92.0448 30.9031 91.9248 30.6991 91.7894 30.5053C91.6661 30.3003 91.511 30.1161 91.3299 29.9597Z" fill="#151515"/>
<path d="M72.8322 43.7877C73.478 43.2813 74.0974 42.7422 74.688 42.1723C75.2863 41.6123 75.8606 41.0284 76.4111 40.4206C76.9531 39.8103 77.488 39.1893 77.9726 38.5324C78.4572 37.8755 78.931 37.2006 79.4085 36.5329C80.3813 35.2083 81.3577 33.8802 82.4094 32.6094C82.9371 31.9776 83.4864 31.3566 84.0607 30.7679C84.3536 30.4768 84.6616 30.2012 84.9833 29.9423C85.2975 29.6709 85.664 29.4669 86.0602 29.3428C85.6797 29.4966 85.3324 29.722 85.0371 30.0069C84.7319 30.2797 84.4484 30.574 84.172 30.8756C83.6192 31.4786 83.0951 32.1176 82.5997 32.7638C81.591 34.056 80.6182 35.3807 79.6633 36.7124C79.1751 37.3729 78.7049 38.0406 78.1988 38.7011C77.6975 39.358 77.1581 39.9849 76.5834 40.5785C75.4493 41.7772 74.1919 42.8529 72.8322 43.7877Z" fill="#151515"/>
<path d="M92.7933 46.6092C99.5096 48.1312 111.578 46.9969 111.873 43.8452C112.074 41.6554 110.67 34.3935 106.642 30.8002C106.05 30.2689 100.64 36.6945 101.401 37.5094C102.148 38.3577 102.722 39.3444 103.089 40.4134C103.211 40.8298 96.2502 42.1436 93.4502 42.7862C88.2739 43.978 90.9231 46.1856 92.7933 46.6092Z" fill="#FFC4C0"/>
<path d="M94.2335 46.8817C94.2335 46.8817 95.2242 45.0115 93.7561 42.7284C93.7561 42.7284 96.6278 40.0685 99.3847 41.3967C100.888 42.9815 101.158 45.3715 100.045 47.2515C100.045 47.2515 98.0242 48.953 94.2335 46.8817Z" fill="#00B3AC"/>
<path d="M98.4197 45.1629C98.156 45.1629 97.9422 45.3767 97.9423 45.6403C97.9423 45.904 98.156 46.1178 98.4197 46.1178C98.6833 46.1178 98.8971 45.904 98.8971 45.6403C98.8971 45.3767 98.6833 45.1629 98.4197 45.1629ZM98.4197 46.0352C98.2016 46.0352 98.0248 45.8584 98.0248 45.6403C98.0248 45.4222 98.2016 45.2455 98.4197 45.2455C98.6377 45.2455 98.8145 45.4222 98.8145 45.6403C98.8155 45.7454 98.7742 45.8464 98.7 45.9206C98.6257 45.9949 98.5246 46.0362 98.4197 46.0352ZM95.5479 42.0686C95.3542 42.0671 95.1787 42.1829 95.1039 42.3617C95.0291 42.5404 95.0698 42.7466 95.2067 42.8836C95.3438 43.0206 95.55 43.0612 95.7287 42.9864C95.9074 42.9116 96.0232 42.7362 96.0217 42.5424C96.0199 42.2843 95.8131 42.0744 95.5551 42.0686H95.5479ZM95.5479 42.9373C95.3879 42.9388 95.2427 42.8435 95.1805 42.696C95.1183 42.5486 95.1512 42.3782 95.2638 42.2645C95.3765 42.1508 95.5466 42.1164 95.6946 42.1773C95.8426 42.2382 95.9392 42.3824 95.9392 42.5424C95.9393 42.7564 95.7689 42.9315 95.5551 42.9373H95.5479ZM100.261 42.7111C100.047 42.7072 99.8754 42.5338 99.8735 42.3199C99.8738 42.2477 99.8936 42.177 99.9309 42.1153L99.8806 42.0435C99.8219 42.1236 99.7904 42.2205 99.791 42.3199C99.7929 42.5841 100.008 42.7973 100.272 42.7973H100.297C100.287 42.7676 100.275 42.7388 100.261 42.7111Z" fill="white"/>
<rect x="44.9429" y="139.954" width="20.2259" height="37.6417" transform="rotate(15.7086 44.9429 139.954)" fill="#00B3AC"/>
<g opacity="0.1">
<rect x="44.1426" y="107.772" width="20.2818" height="0.981129" transform="rotate(15.5298 44.1426 107.772)" fill="#151515"/>
<rect x="43.0515" y="111.707" width="20.2818" height="0.981129" transform="rotate(15.5298 43.0515 111.707)" fill="#151515"/>
<rect x="41.9618" y="115.636" width="20.2818" height="0.981129" transform="rotate(15.5298 41.9618 115.636)" fill="#151515"/>
<rect x="40.868" y="119.564" width="20.2818" height="0.981129" transform="rotate(15.5298 40.868 119.564)" fill="#151515"/>
<rect x="39.7716" y="123.493" width="20.2818" height="0.981129" transform="rotate(15.5298 39.7716 123.493)" fill="#151515"/>
<rect x="38.2346" y="127.174" width="20.2259" height="0.981129" transform="rotate(15.7086 38.2346 127.174)" fill="#151515"/>
<rect x="37.1368" y="131.087" width="20.2259" height="0.981129" transform="rotate(15.7086 37.1368 131.087)" fill="#151515"/>
<rect x="36.4971" y="135.284" width="20.2818" height="0.981129" transform="rotate(15.5298 36.4971 135.284)" fill="#151515"/>
</g>
<rect x="53.6956" y="137.708" width="1.56511" height="37.7456" transform="rotate(15.5197 53.6956 137.708)" fill="#00635F"/>
<rect x="53.0665" y="124.79" width="1.68609" height="11.373" transform="rotate(15.7086 53.0665 124.79)" fill="#151515"/>
<path d="M54.8058 136.113L50.1105 134.81L47.4792 137.011L54.0484 138.838L54.8058 136.113Z" fill="#151515"/>
<path d="M35.2612 130.687L39.9529 131.99L41.0765 135.235L34.5038 133.412L35.2612 130.687Z" fill="#151515"/>
<path d="M49.8163 141.184L51.5537 141.665L53.6106 138.718L49.8629 137.677L50.4804 139.608L49.8163 141.184Z" fill="#151515"/>
<path d="M47.9326 141.725C47.5657 143.047 48.3405 144.416 49.663 144.783C50.9855 145.149 52.3546 144.374 52.7204 143.051C53.0863 141.728 52.3103 140.36 50.9874 139.995C49.6662 139.63 48.2991 140.404 47.9326 141.725Z" fill="#505050"/>
<path d="M49.0151 142.026C48.8225 142.748 49.2508 143.491 49.9728 143.685C50.6947 143.88 51.4382 143.454 51.6352 142.733C51.8322 142.012 51.4086 141.267 50.6879 141.067C50.3389 140.971 49.9658 141.018 49.6517 141.198C49.3375 141.378 49.1083 141.676 49.0151 142.026Z" fill="#DBDBDB"/>
<path d="M50.508 141.589C50.4577 141.775 50.4362 141.948 50.4649 141.948C50.4936 141.948 50.5582 141.808 50.6085 141.621C50.6587 141.434 50.6803 141.262 50.6551 141.262C50.63 141.262 50.569 141.402 50.508 141.589Z" fill="#151515"/>
<path d="M51.0245 141.958C50.8558 142.055 50.7301 142.155 50.7409 142.181C50.7516 142.206 50.906 142.148 51.0747 142.051C51.2434 141.954 51.3726 141.857 51.3583 141.832C51.3439 141.807 51.1932 141.865 51.0245 141.958Z" fill="#151515"/>
<path d="M51.1235 142.584C50.9368 142.53 50.7645 142.512 50.7645 142.54C50.7645 142.569 50.9045 142.63 51.0912 142.684C51.2778 142.738 51.4502 142.756 51.4502 142.727C51.4502 142.698 51.3102 142.634 51.1235 142.584Z" fill="#151515"/>
<path d="M50.7523 143.093C50.6554 142.921 50.5585 142.795 50.5334 142.81C50.5083 142.824 50.5657 142.975 50.659 143.144C50.7523 143.312 50.8528 143.438 50.878 143.424C50.9031 143.409 50.8457 143.262 50.7523 143.093Z" fill="#151515"/>
<path d="M50.1284 143.189C50.1822 142.999 50.2002 142.83 50.175 142.83C50.1499 142.83 50.0817 142.97 50.0279 143.157C49.974 143.343 49.9561 143.516 49.9848 143.516C50.0135 143.516 50.0781 143.376 50.1284 143.189Z" fill="#151515"/>
<path d="M49.6218 142.816C49.7906 142.723 49.9162 142.623 49.9018 142.597C49.8875 142.572 49.7403 142.63 49.568 142.727C49.3957 142.824 49.2737 142.921 49.288 142.946C49.3024 142.971 49.4495 142.913 49.6218 142.816Z" fill="#151515"/>
<path d="M49.5206 142.196C49.7109 142.246 49.8796 142.268 49.8796 142.239C49.8796 142.21 49.7432 142.145 49.553 142.095C49.3627 142.045 49.194 142.023 49.194 142.052C49.194 142.081 49.334 142.145 49.5206 142.196Z" fill="#151515"/>
<path d="M49.8939 141.686C49.9908 141.855 50.0877 141.984 50.1129 141.97C50.138 141.955 50.0806 141.804 49.9836 141.636C49.8867 141.467 49.7898 141.338 49.7647 141.352C49.7395 141.367 49.7898 141.517 49.8939 141.686Z" fill="#151515"/>
<path d="M36.9244 137.601L35.187 137.12L34.9429 133.531L38.6905 134.575L37.1649 135.911L36.9244 137.601Z" fill="#151515"/>
<path d="M38.26 139.037C37.893 140.359 36.5241 141.133 35.2023 140.766C33.8805 140.399 33.1061 139.031 33.4727 137.709C33.8392 136.387 35.2078 135.612 36.5297 135.979C37.8523 136.345 38.6271 137.714 38.26 139.037Z" fill="#505050"/>
<path d="M37.1758 138.735C36.9764 139.457 36.2293 139.881 35.507 139.682C34.7846 139.482 34.3605 138.735 34.5596 138.013C34.7587 137.291 35.5057 136.866 36.2281 137.065C36.9495 137.266 37.3731 138.012 37.1758 138.735Z" fill="#DBDBDB"/>
<path d="M36.1148 137.586C36.0609 137.776 35.9963 137.923 35.9712 137.912C35.9461 137.902 35.9712 137.747 36.0143 137.554C36.0573 137.36 36.1291 137.22 36.1578 137.227C36.1865 137.234 36.1686 137.399 36.1148 137.586Z" fill="#151515"/>
<path d="M35.4854 137.643C35.5823 137.812 35.6397 137.963 35.6146 137.977C35.5895 137.991 35.489 137.866 35.3956 137.694C35.3023 137.521 35.2413 137.374 35.2664 137.36C35.2915 137.345 35.3885 137.478 35.4854 137.643Z" fill="#151515"/>
<path d="M35.0727 138.124C35.2593 138.178 35.4065 138.243 35.3957 138.271C35.385 138.3 35.2306 138.271 35.0368 138.228C34.8429 138.185 34.7029 138.11 34.7101 138.081C34.7173 138.053 34.8932 138.074 35.0727 138.124Z" fill="#151515"/>
<path d="M35.1373 138.752C35.306 138.655 35.4568 138.597 35.4712 138.623C35.4855 138.648 35.3599 138.748 35.1876 138.845C35.0153 138.942 34.8681 138.996 34.8538 138.971C34.8394 138.946 34.9686 138.849 35.1373 138.752Z" fill="#151515"/>
<path d="M35.6198 139.159C35.6736 138.969 35.7382 138.825 35.767 138.833C35.7957 138.84 35.767 138.998 35.7239 139.192C35.6808 139.385 35.6054 139.525 35.5767 139.518C35.548 139.511 35.5695 139.346 35.6198 139.159Z" fill="#151515"/>
<path d="M36.2463 139.102C36.153 138.933 36.0955 138.786 36.1207 138.771C36.1458 138.757 36.2427 138.883 36.3396 139.051C36.4365 139.22 36.4904 139.371 36.4653 139.385C36.4401 139.4 36.3432 139.274 36.2463 139.102Z" fill="#151515"/>
<path d="M36.6517 138.62C36.4651 138.566 36.3179 138.502 36.3251 138.473C36.3323 138.444 36.4902 138.473 36.6841 138.52C36.8779 138.566 37.0179 138.635 37.0107 138.663C37.0035 138.692 36.8384 138.671 36.6517 138.62Z" fill="#151515"/>
<path d="M36.5943 137.993C36.4256 138.09 36.2784 138.147 36.2641 138.122C36.2497 138.097 36.3753 137.996 36.5441 137.903C36.7128 137.81 36.8636 137.749 36.8779 137.774C36.8923 137.799 36.7666 137.896 36.5943 137.993Z" fill="#151515"/>
<rect x="56.1821" y="101.056" width="3.38508" height="1.70151" transform="rotate(15.5197 56.1821 101.056)" fill="#151515"/>
<rect x="69.7395" y="103.336" width="1.53998" height="29.3098" transform="rotate(15.5298 69.7395 103.336)" fill="#C7C7C7"/>
<rect x="69.567" y="77.3909" width="2.1933" height="3.6902" transform="rotate(15.5298 69.567 77.3909)" fill="#151515"/>
<path d="M94.7216 56.7793L94.219 62.1854H77.071C77.071 62.1854 81.9566 48.6846 86.8171 44.1293C88.7519 42.3344 90.5468 42.8549 91.9144 44.2441C92.2267 44.56 95.9995 50.7882 96.319 53.0138C96.581 54.8445 94.7216 56.7793 94.7216 56.7793Z" fill="#FFC4C0"/>
<path d="M94.7224 56.7793L94.6003 58.1039L78.8667 57.6696C80.7261 53.3117 83.7738 46.9759 86.8143 44.1293C88.7491 42.3344 90.544 42.8549 91.9117 44.2441C92.2239 44.56 95.9967 50.7917 96.3162 53.0173C96.5818 54.8445 94.7224 56.7793 94.7224 56.7793Z" fill="#00B3AC"/>
<path d="M94.7228 56.7788L94.7049 56.987L94.6834 57.2096C94.6868 57.2382 94.6868 57.2671 94.6834 57.2957V57.5147L94.6295 58.089L81.7461 57.7301H81.6671L80.8846 57.7085H80.802L78.9031 57.6547C80.2653 54.3787 81.8671 51.2077 83.6953 48.1671L83.7384 48.0917C83.864 47.8871 83.9932 47.6861 84.1225 47.4923L84.1692 47.4205C84.9337 46.2215 85.8307 45.1125 86.8435 44.1144C88.7783 42.3195 90.5731 42.84 91.9408 44.2292C92.0906 44.4204 92.2285 44.6206 92.3537 44.8287C92.3654 44.853 92.3799 44.8759 92.3967 44.8969C92.5116 45.0872 92.648 45.3061 92.7951 45.5538L92.8383 45.6292C93.3443 46.4764 93.9905 47.6107 94.5936 48.763C94.607 48.7917 94.6226 48.8193 94.6403 48.8456C94.7408 49.0394 94.8413 49.2333 94.9382 49.4271L94.9813 49.5133C95.6633 50.8845 96.2233 52.1984 96.3381 52.9989C96.5823 54.844 94.7228 56.7788 94.7228 56.7788Z" fill="#00B3AC"/>
<path d="M90.8071 49.4319C90.6272 49.4163 90.454 49.5034 90.3593 49.657C90.2646 49.8106 90.2646 50.0045 90.3593 50.1581C90.454 50.3117 90.6272 50.3988 90.8071 50.3832C91.0538 50.3617 91.2431 50.1552 91.2431 49.9075C91.2431 49.6599 91.0538 49.4534 90.8071 49.4319ZM90.8071 50.3006C90.6467 50.3021 90.5014 50.2064 90.4394 50.0585C90.3773 49.9107 90.4109 49.74 90.5242 49.6266C90.6377 49.5132 90.8084 49.4796 90.9562 49.5417C91.1042 49.6037 91.1998 49.749 91.1983 49.9093C91.1964 50.1246 91.0223 50.2987 90.8071 50.3006ZM83.222 53.1724C83.0287 53.1724 82.8543 53.2891 82.7806 53.4679C82.7069 53.6468 82.7485 53.8524 82.8857 53.9887C83.0231 54.1249 83.229 54.1649 83.4073 54.0899C83.5855 54.0148 83.7009 53.8396 83.6995 53.6462C83.7024 53.5177 83.6533 53.3935 83.5635 53.3016C83.4737 53.2098 83.3506 53.158 83.222 53.158V53.1724ZM83.222 54.0447C83.0049 54.0427 82.8301 53.8658 82.8308 53.6486C82.8314 53.4315 83.0073 53.2556 83.2245 53.255C83.4416 53.2543 83.6185 53.4291 83.6205 53.6462C83.6128 53.8606 83.4366 54.0304 83.222 54.0303V54.0447ZM86.2553 50.5806C85.9916 50.5806 85.7779 50.7944 85.7779 51.058C85.7779 51.3217 85.9916 51.5355 86.2553 51.5355C86.519 51.5355 86.7327 51.3217 86.7327 51.058C86.7366 50.929 86.6881 50.8038 86.5981 50.7111C86.5082 50.6185 86.3845 50.5662 86.2553 50.5663V50.5806ZM86.2553 51.4493C86.0392 51.4493 85.8641 51.2741 85.8641 51.058C85.8497 50.9086 85.9214 50.764 86.0489 50.6849C86.1765 50.6058 86.3378 50.6058 86.4653 50.6849C86.5928 50.764 86.6645 50.9086 86.6502 51.058C86.6425 51.2699 86.4673 51.4371 86.2553 51.435V51.4493ZM92.7778 45.5838C92.7346 45.6022 92.6883 45.6119 92.6414 45.6125C92.537 45.6134 92.4366 45.5726 92.3624 45.4992C92.2882 45.4257 92.2466 45.3256 92.2466 45.2212C92.2454 45.1083 92.294 45.0007 92.3793 44.9268C92.3625 44.9058 92.348 44.8829 92.3362 44.8586C92.2285 44.9469 92.1654 45.0783 92.164 45.2176C92.1659 45.4805 92.3785 45.6931 92.6414 45.695C92.7045 45.6948 92.7669 45.6813 92.8245 45.6556L92.7778 45.5838ZM94.9316 49.4606C94.7277 49.442 94.5718 49.2706 94.5726 49.0658C94.5717 48.9996 94.5904 48.9346 94.6265 48.8791C94.6089 48.8528 94.5932 48.8252 94.5798 48.7965C94.5211 48.8753 94.4896 48.9711 94.4901 49.0694C94.4901 49.3336 94.7033 49.5484 94.9675 49.5504L94.9316 49.4606ZM89.9419 53.6534C89.7482 53.652 89.5728 53.7677 89.498 53.9465C89.4231 54.1252 89.4638 54.3314 89.6008 54.4684C89.7378 54.6054 89.944 54.646 90.1228 54.5712C90.3015 54.4964 90.4172 54.321 90.4158 54.1272C90.4187 53.9981 90.3692 53.8733 90.2786 53.7814C90.1879 53.6894 90.0639 53.638 89.9348 53.639L89.9419 53.6534ZM89.9419 54.5221C89.7238 54.5221 89.5471 54.3453 89.5471 54.1272C89.5471 53.9092 89.7238 53.7324 89.9419 53.7324C90.16 53.7324 90.3368 53.9092 90.3368 54.1272C90.329 54.3425 90.1501 54.5118 89.9348 54.5077L89.9419 54.5221ZM94.3034 56.8303C94.5154 56.8302 94.6888 56.9989 94.6947 57.2108L94.7162 56.9882C94.6081 56.802 94.3887 56.7113 94.1806 56.7667C93.9725 56.822 93.8272 57.0098 93.826 57.2251C93.8279 57.488 94.0405 57.7006 94.3034 57.7026C94.4427 57.7011 94.5741 57.638 94.6624 57.5303V57.3113C94.6155 57.5103 94.4233 57.6396 94.2213 57.6082C94.0193 57.5767 93.8756 57.395 93.8915 57.1912C93.9074 56.9873 94.0775 56.8301 94.2819 56.8303H94.3034ZM88.201 45.5981C87.9373 45.5981 87.7235 45.8119 87.7235 46.0756C87.7235 46.3392 87.9373 46.553 88.201 46.553C88.4646 46.553 88.6784 46.3392 88.6784 46.0756C88.6826 45.942 88.6306 45.8128 88.5351 45.7193C88.4396 45.6258 88.3093 45.5767 88.1758 45.5838L88.201 45.5981ZM88.201 46.4704C87.9829 46.4704 87.8061 46.2936 87.8061 46.0756C87.8061 45.8575 87.9829 45.6807 88.201 45.6807C88.419 45.6807 88.5959 45.8575 88.5959 46.0755C88.5961 46.1848 88.551 46.2892 88.4714 46.364C88.3918 46.4389 88.2848 46.4774 88.1758 46.4704H88.201ZM84.1733 47.436L84.1266 47.5078C84.1699 47.5699 84.1926 47.644 84.1913 47.7196C84.1922 47.824 84.1514 47.9245 84.0779 47.9986C84.0045 48.0728 83.9044 48.1145 83.8 48.1145C83.781 48.118 83.7615 48.118 83.7425 48.1145L83.6995 48.1899C83.734 48.1949 83.769 48.1949 83.8036 48.1899C84.0473 48.1772 84.2415 47.9814 84.2523 47.7376C84.2557 47.6277 84.2187 47.5204 84.1481 47.436H84.1733ZM86.1297 55.6564C85.9363 55.655 85.7611 55.7704 85.686 55.9487C85.6111 56.1269 85.651 56.3329 85.7873 56.4702C85.9235 56.6075 86.1291 56.649 86.308 56.5753C86.4868 56.5016 86.6035 56.3273 86.6035 56.1339C86.6037 56.0034 86.5504 55.8786 86.4562 55.7884C86.3619 55.6982 86.2349 55.6506 86.1046 55.6564H86.1297ZM86.1297 56.5287C85.9697 56.5302 85.8246 56.4349 85.7623 56.2875C85.7001 56.14 85.733 55.9696 85.8457 55.8559C85.9583 55.7423 86.1284 55.7078 86.2763 55.7687C86.4244 55.8296 86.521 55.9738 86.521 56.1339C86.5212 56.2424 86.4766 56.3463 86.3978 56.421C86.3191 56.4957 86.213 56.5347 86.1046 56.5287H86.1297ZM81.2728 57.2251C81.0092 57.2251 80.7955 57.4389 80.7955 57.7026C80.7938 57.7096 80.7938 57.717 80.7954 57.7241H80.878C80.8763 57.717 80.8763 57.7096 80.878 57.7026C80.878 57.4845 81.0548 57.3077 81.2728 57.3077C81.4909 57.3077 81.6677 57.4845 81.6677 57.7026C81.6695 57.7169 81.6695 57.7313 81.6677 57.7456H81.7467C81.7485 57.7301 81.7485 57.7145 81.7467 57.699C81.7459 57.5692 81.6922 57.4453 81.5981 57.3559C81.5039 57.2665 81.3774 57.2193 81.2477 57.2251H81.2728ZM94.709 52.9175C94.4454 52.9175 94.2316 53.1313 94.2316 53.3949C94.2316 53.6586 94.4454 53.8724 94.709 53.8724C94.9727 53.8724 95.1865 53.6586 95.1865 53.3949C95.1865 53.1313 94.9727 52.9175 94.709 52.9175ZM94.709 53.7898C94.491 53.7898 94.3141 53.613 94.3141 53.3949C94.3141 53.1769 94.491 53.0001 94.709 53.0001C94.9271 53.0001 95.1039 53.1769 95.1039 53.3949C95.1032 53.5035 95.0577 53.607 94.9783 53.6811C94.8988 53.7551 94.7923 53.7931 94.684 53.7862L94.709 53.7898Z" fill="white"/>
<path d="M92.3349 55.7557C91.4704 55.7768 90.6097 55.8802 89.7647 56.0644C89.3412 56.1614 88.9248 56.287 88.5047 56.4234C88.2966 56.4916 88.0884 56.5491 87.8802 56.6065C87.6656 56.6752 87.4414 56.7091 87.2161 56.707C87.2082 56.7104 87.2031 56.7182 87.2031 56.7268C87.2031 56.7353 87.2082 56.7431 87.2161 56.7465C87.4227 56.7787 87.6316 56.7931 87.8407 56.7896C88.0464 56.7763 88.2506 56.7451 88.4509 56.6962C88.8817 56.6029 89.3089 56.4809 89.736 56.3803C90.6048 56.1757 91.4698 55.9711 92.3421 55.8491C92.3781 55.8383 92.3744 55.7521 92.3349 55.7557Z" fill="#151515"/>
<path d="M94.3414 56.9144C93.6526 56.7563 92.9531 56.6496 92.2486 56.5949C91.8959 56.5751 91.5424 56.5751 91.1896 56.5949C91.0209 56.5949 90.8522 56.5949 90.6835 56.6236C90.5148 56.6523 90.3245 56.681 90.1235 56.6918C90.1056 56.6918 90.1019 56.7313 90.1235 56.7313C90.2994 56.7313 90.4825 56.7636 90.6476 56.7744L91.1753 56.8031C91.5342 56.8246 91.8932 56.8497 92.2306 56.8641C92.9486 56.8964 93.6342 56.9395 94.3378 57.0041C94.3737 56.9933 94.3773 56.9215 94.3414 56.9144Z" fill="#151515"/>
<path d="M90.6838 60.0525C90.515 60.171 90.3891 60.3411 90.3249 60.5371C90.2534 60.7254 90.2146 60.9245 90.21 61.1259C90.21 61.334 90.3357 61.3986 90.4326 61.194C90.4716 61.1015 90.4958 61.0034 90.5044 60.9033C90.5191 60.7986 90.5105 60.692 90.4793 60.591C90.5996 60.7869 90.6272 61.0261 90.5546 61.2443C90.5378 61.3073 90.5058 61.3653 90.4613 61.413C90.4039 61.4725 90.3185 61.4959 90.2387 61.474C90.1604 61.4537 90.0972 61.3959 90.07 61.3197C90.0457 61.2604 90.0323 61.1971 90.0305 61.133C90.0302 60.9019 90.0856 60.674 90.1921 60.4689C90.2893 60.2665 90.4682 60.1151 90.6838 60.0525Z" fill="#151515"/>
<path d="M86.3583 47.0926C84.8649 49.2464 78.565 58.1955 78.382 58.6621C78.1989 59.1288 74.9718 68.5805 74.6343 70.1061C74.3974 71.183 66.9775 67.5933 67.2396 66.6743C67.8462 64.5205 69.5334 57.9945 71.1523 55.6396C73.2667 52.5632 81.9609 45.2582 84.5993 44.1993C87.2378 43.1403 88.8136 43.5531 86.3583 47.0926Z" fill="#FFC4C0"/>
<path d="M70.4254 73.6109C70.892 73.3309 71.0392 73.575 70.6982 74.4724C70.3571 75.3699 68.2357 78.6437 69.4382 79.2862C70.6407 79.9288 73.5663 75.2729 74.0222 73.733C74.3559 72.3547 74.5744 70.9511 74.6756 69.5366C73.9253 70.33 71.9187 72.0745 70.4254 73.6109Z" fill="#FFC4C0"/>
<path d="M68.2702 64.6794C66.2348 66.9876 63.5641 69.7373 62.9072 73.1475C62.8243 73.524 62.8711 73.9174 63.04 74.2639C62.7205 75.786 63.3415 76.3962 63.3415 76.3962C63.4744 77.9039 64.1995 78.4387 64.1995 78.4387C64.1995 78.4387 63.8405 80.2336 64.8887 80.6285C66.0589 81.0772 66.3246 78.4746 67.3584 77.1321C69.7097 74.0593 73.9096 70.3547 74.6742 69.5363L68.2702 64.6794Z" fill="#FFC4C0"/>
<path d="M67.5588 72.1804C66.8623 73.0723 66.2267 74.0102 65.6563 74.9876C65.0935 76.0944 64.6136 77.2415 64.2204 78.4193C64.2204 78.4352 64.2075 78.448 64.1917 78.448C64.1758 78.448 64.163 78.4352 64.163 78.4193C64.6852 76.0595 65.8463 73.8887 67.5193 72.1445C67.5588 72.1086 67.5947 72.1445 67.5588 72.1804Z" fill="#151515"/>
<path d="M65.9106 70.4945C65.3075 71.4242 64.2522 73.0647 63.3762 76.4031H63.3547C63.6245 74.229 64.4946 72.1731 65.8675 70.4658C65.9106 70.412 65.9429 70.4335 65.9106 70.4945Z" fill="#151515"/>
<path d="M65.0107 69.6048C64.1475 71.0636 63.4881 72.6337 63.0507 74.2714C63.0507 74.2714 63.0255 74.2714 63.0292 74.2714C63.4671 72.053 63.8799 71.2991 64.9604 69.5832C64.9963 69.5043 65.0501 69.5402 65.0107 69.6048Z" fill="#151515"/>
<path d="M76.8757 63.0645C76.9619 62.6193 77.0803 62.1814 77.2024 61.7435C77.3244 61.3055 77.4573 60.8747 77.6009 60.4476C77.7444 60.0204 77.8952 59.5897 78.0711 59.1732C78.153 58.956 78.2552 58.7469 78.3762 58.5486C78.5162 58.3692 78.6454 58.1897 78.7926 58.0066C78.6993 58.2148 78.5916 58.4158 78.4911 58.6168C78.3972 58.8175 78.3227 59.0266 78.2685 59.2414C78.1393 59.6758 77.9957 60.103 77.8557 60.5337C77.7157 60.9645 77.5614 61.3881 77.3962 61.8081C77.2311 62.2281 77.0731 62.6517 76.8757 63.0645Z" fill="#151515"/>
<path d="M82.5398 45.2222C83.0901 46.6711 84.298 47.7711 85.792 48.1837C85.792 48.1837 85.329 52.0785 82.3782 52.8503C80.2053 52.6203 78.4477 50.9785 78.0706 48.8262C78.0706 48.8262 78.3183 46.1268 82.5398 45.2222Z" fill="#00B3AC"/>
<path d="M83.7738 47.2441C83.512 47.2442 83.2991 47.4551 83.2966 47.7168C83.294 47.9786 83.5028 48.1936 83.7645 48.1988C84.0262 48.204 84.2434 47.9975 84.2513 47.7359C84.2551 47.6068 84.2065 47.4816 84.1166 47.3889C84.0266 47.2963 83.903 47.244 83.7738 47.2441ZM83.7738 48.1128C83.6138 48.1142 83.4687 48.0189 83.4064 47.8715C83.3442 47.7241 83.3771 47.5537 83.4897 47.44C83.6024 47.3263 83.7725 47.2919 83.9205 47.3528C84.0685 47.4137 84.1651 47.5579 84.1651 47.7179C84.1651 47.9346 83.9905 48.1108 83.7738 48.1128ZM80.3995 49.825C80.2061 49.825 80.0318 49.9418 79.9581 50.1206C79.8843 50.2994 79.9259 50.5051 80.0632 50.6413C80.2005 50.7776 80.4064 50.8176 80.5847 50.7425C80.763 50.6675 80.8784 50.4923 80.8769 50.2989C80.8749 50.0366 80.6618 49.825 80.3995 49.825ZM80.3995 50.6938C80.2395 50.6952 80.0944 50.5999 80.0322 50.4525C79.9699 50.3051 80.0028 50.1346 80.1154 50.021C80.2281 49.9073 80.3981 49.8728 80.5462 49.9337C80.6942 49.9946 80.7908 50.1389 80.7908 50.2989C80.7917 50.4033 80.7509 50.5037 80.6774 50.5779C80.604 50.652 80.5039 50.6938 80.3995 50.6938ZM79.4374 46.623C79.4154 46.6389 79.3949 46.657 79.3764 46.6769C79.4459 46.7493 79.4844 46.8458 79.4841 46.9461C79.4841 47.0505 79.4424 47.1506 79.3682 47.2241C79.2941 47.2976 79.1937 47.3383 79.0892 47.3374C78.9931 47.3399 78.9 47.3037 78.8308 47.2369C78.8108 47.2557 78.7938 47.2775 78.7805 47.3015C78.8648 47.3785 78.9751 47.4208 79.0892 47.42C79.2186 47.4258 79.3447 47.3785 79.4383 47.289C79.5319 47.1995 79.5848 47.0756 79.5846 46.9461C79.5808 46.8231 79.5278 46.7067 79.4374 46.623Z" fill="white"/>
<path d="M85.8443 49.6458C85.8443 49.6458 85.8443 49.6207 85.8228 49.6458C85.6936 49.8289 85.5536 50.0048 85.41 50.1771C85.3393 50.2627 85.2638 50.3442 85.1838 50.4212C85.4158 49.8899 85.6136 49.3443 85.7761 48.7879C85.7761 48.7879 85.7761 48.7664 85.7582 48.7879C85.4109 49.6901 84.9475 50.5433 84.3797 51.3258C83.8919 52.0451 83.186 52.5887 82.3659 52.8766C82.3515 52.8776 82.3391 52.8871 82.3345 52.9008C82.3298 52.9144 82.3337 52.9296 82.3445 52.9392C82.3553 52.9488 82.3708 52.951 82.3838 52.9448C83.2154 52.7094 83.9546 52.2245 84.5018 51.5556C84.7479 51.2469 84.9575 50.9108 85.1264 50.554C85.2341 50.4463 85.3454 50.3386 85.4459 50.2238C85.5965 50.044 85.7299 49.8505 85.8443 49.6458Z" fill="#151515"/>
<path d="M88.0142 43.9014C88.1543 44.2173 90.1322 46.0732 91.6326 45.7214C92.1208 45.6065 91.6075 42.9106 91.6075 42.9106V42.706L91.7116 39.802L88.0573 38.3087L87.5332 38.1184C87.5332 38.1184 87.5547 38.9153 87.5942 39.9133C87.5942 39.9599 87.5942 40.003 87.5942 40.0533C87.5942 40.1035 87.5942 40.1609 87.5942 40.2148C87.5942 40.362 87.5942 40.5127 87.5942 40.6635C87.5942 40.8143 87.5942 40.8897 87.6158 41.0225C87.6373 41.1553 87.6337 41.2594 87.6409 41.3814C87.7072 42.229 87.832 43.071 88.0142 43.9014Z" fill="#FFC4C0"/>
<path d="M87.5942 39.9061C88.4592 41.3851 89.9308 42.409 91.6183 42.706L91.7224 39.802L88.0573 38.3087L87.5332 38.1184C87.5332 38.1184 87.5547 38.9153 87.5942 39.9061Z" fill="#151515"/>
<path d="M94.9241 34.8143C96.1231 39.7716 93.2908 41.0496 92.2211 41.308C91.2518 41.5414 87.9134 42.2126 86.2119 37.4096C84.5104 32.6066 86.4309 30.4779 88.6206 29.8246C90.8103 29.1713 93.7215 29.8641 94.9241 34.8143Z" fill="#FFC4C0"/>
<path d="M93.6068 33.8724C93.4847 33.8724 93.3735 33.8724 93.2479 33.8724C93.1251 33.8929 92.999 33.8728 92.8889 33.815C92.8244 33.7635 92.8024 33.6753 92.835 33.5996C92.9245 33.4621 93.0804 33.3828 93.2443 33.3914C93.4069 33.3773 93.5691 33.4233 93.7002 33.5206C93.7667 33.5673 93.7971 33.6505 93.7763 33.7291C93.7554 33.8077 93.6877 33.8649 93.6068 33.8724Z" fill="#151515"/>
<path d="M90.3539 34.703C90.4651 34.6599 90.562 34.6024 90.6697 34.5486C90.7897 34.5127 90.8936 34.4366 90.9641 34.3332C90.9988 34.2584 90.9781 34.1696 90.9139 34.1178C90.7736 34.0333 90.5982 34.0333 90.458 34.1178C90.3006 34.1744 90.1717 34.2904 90.099 34.4409C90.0625 34.5145 90.0765 34.6032 90.1337 34.6621C90.191 34.721 90.2792 34.7373 90.3539 34.703Z" fill="#151515"/>
<path d="M91.3087 35.7893C91.3087 35.7893 91.2871 35.8108 91.2908 35.8252C91.3913 36.159 91.4523 36.5431 91.1794 36.7478C91.542 36.6078 91.4594 36.0873 91.3087 35.7893Z" fill="#151515"/>
<path d="M90.9173 35.5314C90.3681 35.6355 90.6121 36.7268 91.1255 36.6334C91.6388 36.5401 91.3768 35.4345 90.9173 35.5314Z" fill="#151515"/>
<path d="M90.7138 35.628C90.6312 35.7106 90.563 35.8398 90.4482 35.8757C90.3333 35.9116 90.1932 35.829 90.0892 35.7393C90.0892 35.7393 90.0676 35.7393 90.0712 35.7393C90.1179 35.9475 90.2471 36.1449 90.4768 36.1234C90.7066 36.1018 90.7928 35.8864 90.7999 35.6675C90.7964 35.6423 90.7496 35.5921 90.7138 35.628Z" fill="#151515"/>
<path d="M93.251 35.2668C93.251 35.2668 93.2833 35.2668 93.2833 35.292C93.3479 35.6509 93.4771 36.0099 93.8074 36.0602C93.4232 36.1104 93.2582 35.6007 93.251 35.2668Z" fill="#151515"/>
<path d="M93.478 34.8445C94.0129 34.6866 94.2965 35.7707 93.7975 35.9214C93.2986 36.0722 93.0293 34.9809 93.478 34.8445Z" fill="#151515"/>
<path d="M93.7203 34.8581C93.8208 34.894 93.9321 34.9765 94.0362 34.955C94.1403 34.9335 94.2157 34.7935 94.2623 34.6606C94.2623 34.6606 94.2623 34.6606 94.2839 34.6606C94.3413 34.8653 94.3305 35.0986 94.1403 35.1919C93.9501 35.2853 93.7814 35.1309 93.6844 34.937C93.6665 34.9083 93.6808 34.8437 93.7203 34.8581Z" fill="#151515"/>
<path d="M92.0388 38.4789C92.1357 38.5435 92.2362 38.6405 92.3619 38.6297C92.4919 38.6065 92.6147 38.5537 92.7209 38.4753C92.7209 38.4753 92.746 38.4753 92.7388 38.4753C92.6647 38.6296 92.5114 38.7304 92.3403 38.7374C92.1898 38.7287 92.0608 38.6269 92.0173 38.4825C92.0173 38.4825 92.0245 38.4717 92.0388 38.4789Z" fill="#151515"/>
<path d="M93.1564 36.9211C93.1564 36.9211 93.3467 37.4093 93.404 37.6391C93.404 37.6642 93.3538 37.6857 93.2748 37.7108C92.8765 37.8863 92.4135 37.8239 92.0759 37.5493C92.0543 37.5314 92.0759 37.4991 92.1046 37.5098C92.4574 37.6434 92.8438 37.6597 93.2066 37.5565C93.2066 37.4883 92.8476 36.7345 92.8907 36.7201C93.0802 36.6965 93.272 36.6965 93.4615 36.7201C93.1026 35.6934 92.5677 34.735 92.2159 33.7048C92.2159 33.6688 92.2554 33.6437 92.2733 33.676C92.8731 34.687 93.3686 35.7562 93.7522 36.8673C93.7953 37.0001 93.2605 36.9391 93.1564 36.9211Z" fill="#151515"/>
<path d="M93.0493 37.6853C92.9634 37.8792 92.8286 38.0474 92.6581 38.1735C92.5631 38.2387 92.4502 38.2726 92.335 38.2705C92.0801 38.2705 92.0227 38.0479 92.0227 37.8505C92.0239 37.7464 92.0371 37.6428 92.0622 37.5417C92.3677 37.693 92.7134 37.7433 93.0493 37.6853Z" fill="#151515"/>
<path d="M92.6581 38.1614C92.5631 38.2265 92.4502 38.2604 92.335 38.2583C92.0801 38.2583 92.0227 38.0357 92.0227 37.8383C92.2836 37.787 92.5458 37.9203 92.6581 38.1614Z" fill="#FF9CBD"/>
<path d="M86.3725 37.4949C86.9911 37.1191 87.3662 36.4454 87.3596 35.7216C91.4268 34.1852 91.8934 31.1699 91.8934 31.1699C93.4298 33.0365 94.2626 33.155 94.4888 33.4386C94.4888 33.4386 94.1801 31.4606 93.0529 30.2617C91.7772 28.887 89.7352 28.5449 88.0812 29.4289C86.8822 30.0319 86.2038 31.4858 86.2038 31.4858C86.2038 31.4858 84.8971 32.1068 84.7248 33.3955C84.434 35.5313 86.3725 37.4949 86.3725 37.4949Z" fill="#151515"/>
<path d="M91.9004 30.9819C91.9367 31.568 91.8269 32.1539 91.5809 32.687C91.3374 33.2291 90.9884 33.7172 90.5543 34.1229L90.2168 34.4065C90.1019 34.4962 89.9727 34.5716 89.8578 34.6542C89.6144 34.8181 89.3574 34.961 89.0896 35.0814C88.824 35.2034 88.5476 35.2932 88.2784 35.4008L87.4348 35.6162C87.704 35.5085 87.9769 35.4188 88.2496 35.3183C88.5225 35.2178 88.7774 35.0921 89.0322 34.9593C89.5415 34.7021 90.0136 34.3773 90.4358 33.9937C90.8576 33.6103 91.2055 33.1528 91.4624 32.644C91.7232 32.1267 91.8724 31.5605 91.9004 30.9819Z" fill="#151515"/>
<path d="M89.3586 30.6776C89.3586 31.2053 88.4684 31.6217 87.3951 31.6038C86.3218 31.5858 85.4531 31.1443 85.4602 30.613C85.4674 30.0817 86.3469 29.6689 87.4238 29.6868C88.5007 29.7048 89.3658 30.1463 89.3586 30.6776Z" fill="#00B3AC"/>
<path d="M88.9186 30.5585C88.9186 30.9642 88.2437 31.2764 87.4253 31.2764C86.6069 31.2764 85.9499 30.9175 85.9571 30.5226C85.9643 30.1278 86.6319 29.8047 87.4468 29.8047C88.2617 29.8047 88.9365 30.1457 88.9186 30.5585Z" fill="#151515"/>
<path d="M88.9172 30.1467L88.6121 30.0103C88.971 29.2385 89.8648 29.2026 90.2956 29.2924L90.2274 29.619C90.1987 29.619 89.2546 29.4288 88.9172 30.1467Z" fill="#00B3AC"/>
<path d="M85.4473 37.4549C85.4473 37.401 85.2355 36.1303 85.2139 35.879C85.1924 35.6277 86.4631 31.2555 86.4775 31.2124L86.6211 31.2986L86.779 31.3524C86.6965 31.5965 85.5549 35.5452 85.5442 35.8395C85.5657 36.0693 85.7739 37.3687 85.7775 37.3831L85.4473 37.4549Z" fill="#00B3AC"/>
<path d="M93.6088 29.2025C93.6088 29.7338 92.7221 30.1466 91.6453 30.1322C90.5683 30.1179 89.7032 29.6691 89.714 29.1415C89.7247 28.6138 90.6006 28.1938 91.6775 28.2117C92.7544 28.2297 93.616 28.6712 93.6088 29.2025Z" fill="#00B3AC"/>
<path d="M93.1751 29.1159C93.1751 29.5179 92.5003 29.8338 91.6818 29.8338C90.8634 29.8338 90.2064 29.4749 90.2137 29.08C90.2208 28.6851 90.8885 28.3621 91.707 28.3621C92.5254 28.3621 93.1823 28.7103 93.1751 29.1159Z" fill="#151515"/>
<path d="M87.0907 37.6073C87.0907 37.6073 85.7518 36.2001 85.0949 36.6991C84.438 37.1981 85.6154 39.3555 86.502 39.5421C86.7288 39.6063 86.9719 39.5751 87.1752 39.4558C87.3785 39.3366 87.5243 39.1396 87.5789 38.9104L87.0907 37.6073Z" fill="#FFC4C0"/>
<path d="M85.448 37.3254C85.448 37.3254 85.448 37.3469 85.448 37.3505C86.03 37.5356 86.5079 37.9561 86.7654 38.5099C86.6779 38.4038 86.5488 38.3405 86.4113 38.3364C86.2738 38.3323 86.1411 38.3877 86.0475 38.4884C86.0475 38.4884 86.0475 38.5243 86.069 38.5171C86.27 38.4169 86.5126 38.4558 86.6721 38.6141C86.8071 38.7414 86.9276 38.8835 87.031 39.0376C87.0669 39.0843 87.1567 39.0376 87.128 38.9838C87.0059 38.2192 86.2665 37.2607 85.448 37.3254Z" fill="#151515"/>
<path d="M107.717 31.5822C107.717 31.5822 103.689 27.1597 100.537 25.9679C99.2236 25.4689 93.3257 24.6218 93.0708 26.0433C92.841 27.3248 97.9887 27.4791 97.9887 27.4791C97.9887 27.4791 92.8087 26.8689 92.8159 28.4663C92.8231 30.0637 98.66 29.4607 98.66 29.4607C98.66 29.4607 93.3328 28.9545 93.5841 30.6022C93.7888 31.8442 99.1087 31.5965 99.1087 31.5965C99.1087 31.5965 94.5175 31.1909 94.6718 32.4796C94.8405 33.9155 99.7656 33.9837 99.7656 33.9837C100.049 36.3816 100.921 37.5339 102.278 38.198C102.612 38.3559 107.717 31.5822 107.717 31.5822Z" fill="#FFC4C0"/>
<path d="M99.8017 27.5764C99.1951 27.4831 98.5812 27.3826 97.971 27.3431C97.3607 27.3036 96.7433 27.2857 96.1295 27.3036C95.3272 27.309 94.5284 27.409 93.7495 27.6016C95.1484 27.4394 96.5593 27.4093 97.9638 27.5118C98.5776 27.5513 99.1879 27.5621 99.8017 27.6016C99.8161 27.6016 99.8161 27.58 99.8017 27.5764Z" fill="#151515"/>
<path d="M99.6866 29.7872C98.9076 29.701 98.1394 29.5862 97.3533 29.5323C96.5671 29.4785 95.8312 29.5 95.0523 29.5036C94.9913 29.5036 95.0128 29.5359 95.0702 29.5395C95.8528 29.5682 96.5707 29.6544 97.3497 29.6939C98.1287 29.7333 98.9112 29.7369 99.6866 29.8051V29.7872Z" fill="#151515"/>
<path d="M99.9538 31.7044C98.7641 31.5458 97.5614 31.5085 96.3641 31.5931C96.3067 31.5931 96.3354 31.6326 96.3964 31.6362C97.5918 31.6362 98.5323 31.6362 99.9538 31.7475C99.9682 31.7475 99.979 31.708 99.9538 31.7044Z" fill="#151515"/>
</g>
<defs>
<clipPath id="clip0_608_5321">
<rect width="144.828" height="172.414" fill="white"/>
</clipPath>
</defs>
</svg>
