<svg width="56" height="56" viewBox="0 0 56 56" fill="none" xmlns="http://www.w3.org/2000/svg">
<g clip-path="url(#clip0_608_5106)">
<path d="M36.904 7.34677C35.4877 4.60511 32.5617 3.0861 29.6053 3.59011C12.9243 6.38777 3.64933 19.7064 1.204 23.7244C-0.401333 26.3611 -0.401333 29.6371 1.204 32.2738C3.64933 36.2918 12.9243 49.6104 29.603 52.4081C29.9763 52.4711 30.3497 52.5014 30.7207 52.5014C33.2733 52.5014 35.6673 51.0454 36.904 48.6514C39.228 44.1481 42 36.9124 42 27.9991C42 19.0858 39.228 11.8501 36.904 7.34677ZM37.31 41.7844C30.66 40.6528 25.6643 34.7728 25.6643 27.9991C25.6643 21.2254 30.66 15.3454 37.31 14.2138C38.017 16.2531 38.6237 18.5584 39.053 21.0621C35.483 21.3771 32.6667 24.3498 32.6667 27.9991C32.6667 31.6484 35.4853 34.6211 39.053 34.9361C38.6237 37.4374 38.017 39.7451 37.31 41.7844ZM34.9977 27.9991C34.9977 25.5258 36.9367 23.5144 39.375 23.3628C39.5453 24.8538 39.6643 26.3868 39.6643 27.9991C39.6643 29.6114 39.5453 31.1468 39.375 32.6354C36.939 32.4814 34.9977 30.4724 34.9977 27.9991ZM34.8297 47.5804C33.88 49.4191 31.9363 50.4318 29.988 50.1074C14.2847 47.4731 5.51133 34.8638 3.19667 31.0628C2.04633 29.1728 2.04633 26.8278 3.19667 24.9378C5.51133 21.1368 14.2847 8.52744 29.9903 5.89311C30.233 5.85111 30.4757 5.83244 30.7183 5.83244C32.4077 5.83244 34.0013 6.81244 34.832 8.42011C35.3687 9.46077 35.931 10.6624 36.4747 11.9948C28.8213 13.5044 23.3333 20.1171 23.3333 27.9991C23.3333 35.8811 28.8213 42.4961 36.4747 44.0034C35.931 45.3381 35.3687 46.5374 34.832 47.5781L34.8297 47.5804ZM46.4007 3.5341C45.549 2.41644 44.0603 2.13877 42.8563 2.8691C41.6523 3.60177 41.216 5.05777 41.818 6.33177C44.989 13.0448 46.6643 20.5394 46.6643 27.9991C46.6643 35.5428 44.989 43.0818 41.818 49.7948C41.216 51.0688 41.6523 52.5248 42.8563 53.2574C43.3043 53.5304 43.7943 53.6634 44.275 53.6634C45.0823 53.6634 45.8663 53.2924 46.4007 52.5924C52.8593 44.1528 56 36.1098 56 27.9991C56 19.8884 52.9503 12.0904 46.4007 3.5341ZM44.548 51.1761C44.4943 51.2461 44.345 51.4281 44.072 51.2648C43.7873 51.0921 43.8947 50.8658 43.9297 50.7934C47.2453 43.7678 49 35.8858 49 27.9991C49 20.1941 47.2477 12.3588 43.9297 5.33311C43.8947 5.26077 43.7873 5.03444 44.072 4.86177C44.1537 4.81277 44.2237 4.79177 44.2843 4.79177C44.4267 4.79177 44.5107 4.90144 44.548 4.95044C50.7687 13.0798 53.6667 20.4041 53.6667 27.9991C53.6667 35.6828 50.7687 43.0444 44.548 51.1761Z" fill="#303030"/>
</g>
<defs>
<clipPath id="clip0_608_5106">
<rect width="56" height="56" fill="white"/>
</clipPath>
</defs>
</svg>
