<svg width="56" height="56" viewBox="0 0 56 56" fill="none" xmlns="http://www.w3.org/2000/svg">
<g clip-path="url(#clip0_608_5843)">
<path d="M8.16667 23.3333C8.16667 22.6893 8.68933 22.1666 9.33333 22.1666H18.6667V12.8333C18.6667 12.1893 19.1893 11.6666 19.8333 11.6666C20.4773 11.6666 21 12.1893 21 12.8333V22.1666H30.3333C30.9773 22.1666 31.5 22.6893 31.5 23.3333C31.5 23.9773 30.9773 24.4999 30.3333 24.4999H21V33.8333C21 34.4773 20.4773 34.9999 19.8333 34.9999C19.1893 34.9999 18.6667 34.4773 18.6667 33.8333V24.4999H9.33333C8.68933 24.4999 8.16667 23.9773 8.16667 23.3333ZM56 24.4999V36.1666C56 39.6643 53.7787 42.6323 50.68 43.7919C51.0977 44.6949 51.3333 45.6633 51.3333 46.6666C51.3333 50.5259 48.1927 53.6666 44.3333 53.6666C40.474 53.6666 37.3333 50.5259 37.3333 46.6666C37.3333 45.8616 37.4827 45.0799 37.7533 44.3333H18.2467C18.5173 45.0799 18.6667 45.8616 18.6667 46.6666C18.6667 50.5259 15.526 53.6666 11.6667 53.6666C7.80733 53.6666 4.66667 50.5259 4.66667 46.6666C4.66667 45.6633 4.90233 44.6949 5.32 43.7919C2.22133 42.6299 0 39.6643 0 36.1666V12.8333C0 7.04425 4.711 2.33325 10.5 2.33325H29.1667C34.9557 2.33325 39.6667 7.04425 39.6667 12.8333V13.9999H45.5C51.289 13.9999 56 18.7109 56 24.4999ZM39.6667 16.3333V27.9999H53.6667V24.4999C53.6667 19.9966 50.0033 16.3333 45.5 16.3333H39.6667ZM8.16667 41.9999H37.3333V12.8333C37.3333 8.32992 33.67 4.66659 29.1667 4.66659H10.5C5.99667 4.66659 2.33333 8.32992 2.33333 12.8333V36.1666C2.33333 39.3843 4.949 41.9999 8.16667 41.9999ZM15.624 44.3333H8.16667C8.01733 44.3333 7.87967 44.2983 7.73267 44.2889C7.28467 45.0216 7 45.8219 7 46.6666C7 49.2403 9.093 51.3333 11.6667 51.3333C14.2403 51.3333 16.3333 49.2403 16.3333 46.6666C16.3333 45.8383 16.0557 45.0543 15.624 44.3333ZM48.2673 44.2889C48.1203 44.2959 47.9827 44.3333 47.8333 44.3333H40.376C39.9443 45.0543 39.6667 45.8383 39.6667 46.6666C39.6667 49.2403 41.7597 51.3333 44.3333 51.3333C46.907 51.3333 49 49.2403 49 46.6666C49 45.8219 48.7153 45.0216 48.2673 44.2889ZM53.6667 36.1666V30.3333H39.6667V41.9999H47.8333C51.051 41.9999 53.6667 39.3843 53.6667 36.1666Z" fill="#303030"/>
</g>
<defs>
<clipPath id="clip0_608_5843">
<rect width="56" height="56" fill="white"/>
</clipPath>
</defs>
</svg>
