<svg width="56" height="56" viewBox="0 0 56 56" fill="none" xmlns="http://www.w3.org/2000/svg">
<g clip-path="url(#clip0_608_3165)">
<path d="M42.6347 0C38.4487 0 35.7933 0.735 33.4507 1.386C31.6167 1.89467 30.0323 2.33333 27.9977 2.33333C25.963 2.33333 24.3787 1.89467 22.5447 1.386C20.2043 0.737333 17.549 0 13.3607 0C0.151666 0 0 13.23 0 13.3653C0 28.4527 7.77467 43.463 13.6197 53.4427C14.5437 55.0223 16.268 56.0023 18.116 56.0023C20.9907 56.0023 23.331 53.662 23.331 50.7873V35.336C23.331 32.781 25.1673 30.597 27.5123 30.359C28.8587 30.226 30.1373 30.646 31.129 31.542C32.1043 32.4263 32.6643 33.6887 32.6643 35.0023V50.7873C32.6643 53.662 35.0047 56.0023 37.8793 56.0023C39.7297 56.0023 41.4517 55.0223 42.378 53.4427C48.2253 43.4653 55.9977 28.4573 55.9977 13.3653C55.9977 13.23 55.8483 0 42.6347 0ZM40.3643 52.2597C39.8557 53.1277 38.906 53.6667 37.8817 53.6667C36.2903 53.6667 35 52.374 35 50.785V35C35 33.026 34.16 31.136 32.697 29.8083C31.4067 28.6393 29.7197 28 27.9837 28C27.7503 28 27.517 28.0117 27.2837 28.0373C23.7603 28.3897 21.0023 31.5957 21.0023 35.3337V50.785C21.0023 52.3763 19.7097 53.6667 18.1207 53.6667C17.0963 53.6667 16.1443 53.13 15.6357 52.2597C9.92367 42.518 2.33333 27.8833 2.33333 13.3677C2.33333 12.9173 2.50367 2.33333 13.3653 2.33333C17.2363 2.33333 19.6187 2.99367 21.924 3.63533C23.8397 4.16733 25.648 4.66667 28 4.66667C30.352 4.66667 32.1603 4.165 34.076 3.63533C36.3813 2.996 38.766 2.33333 42.6347 2.33333C53.494 2.33333 53.6643 12.915 53.6667 13.3653C53.6667 27.888 46.0763 42.5203 40.3667 52.262L40.3643 52.2597Z" fill="#303030"/>
</g>
<defs>
<clipPath id="clip0_608_3165">
<rect width="56" height="56" fill="white"/>
</clipPath>
</defs>
</svg>
