<svg width="25" height="25" viewBox="0 0 25 25" fill="none" xmlns="http://www.w3.org/2000/svg">
<path d="M19.8334 5.33301H16.3334V4.83301C16.3334 2.35201 14.3144 0.333008 11.8334 0.333008H4.83337C2.35237 0.333008 0.333374 2.35201 0.333374 4.83301V19.833C0.333374 22.314 2.35237 24.333 4.83337 24.333H19.8334C22.3144 24.333 24.3334 22.314 24.3334 19.833V9.83301C24.3334 7.35201 22.3144 5.33301 19.8334 5.33301ZM1.33337 19.833V4.83301C1.33337 2.90301 2.90337 1.33301 4.83337 1.33301H11.8334C13.7634 1.33301 15.3334 2.90301 15.3334 4.83301V23.333H4.83337C2.90337 23.333 1.33337 21.763 1.33337 19.833ZM23.3334 19.833C23.3334 21.763 21.7634 23.333 19.8334 23.333H16.3334V6.33301H19.8334C21.7634 6.33301 23.3334 7.90301 23.3334 9.83301V19.833ZM7.33337 13.833C7.33337 14.109 7.10937 14.333 6.83337 14.333H4.83337C4.55737 14.333 4.33337 14.109 4.33337 13.833C4.33337 13.557 4.55737 13.333 4.83337 13.333H6.83337C7.10937 13.333 7.33337 13.557 7.33337 13.833ZM7.33337 17.833C7.33337 18.109 7.10937 18.333 6.83337 18.333H4.83337C4.55737 18.333 4.33337 18.109 4.33337 17.833C4.33337 17.557 4.55737 17.333 4.83337 17.333H6.83337C7.10937 17.333 7.33337 17.557 7.33337 17.833ZM12.3334 17.833C12.3334 18.109 12.1094 18.333 11.8334 18.333H9.83337C9.55737 18.333 9.33337 18.109 9.33337 17.833C9.33337 17.557 9.55737 17.333 9.83337 17.333H11.8334C12.1094 17.333 12.3334 17.557 12.3334 17.833ZM7.33337 5.83301C7.33337 6.10901 7.10937 6.33301 6.83337 6.33301H4.83337C4.55737 6.33301 4.33337 6.10901 4.33337 5.83301C4.33337 5.55701 4.55737 5.33301 4.83337 5.33301H6.83337C7.10937 5.33301 7.33337 5.55701 7.33337 5.83301ZM7.33337 9.83301C7.33337 10.109 7.10937 10.333 6.83337 10.333H4.83337C4.55737 10.333 4.33337 10.109 4.33337 9.83301C4.33337 9.55701 4.55737 9.33301 4.83337 9.33301H6.83337C7.10937 9.33301 7.33337 9.55701 7.33337 9.83301ZM12.3334 13.833C12.3334 14.109 12.1094 14.333 11.8334 14.333H9.83337C9.55737 14.333 9.33337 14.109 9.33337 13.833C9.33337 13.557 9.55737 13.333 9.83337 13.333H11.8334C12.1094 13.333 12.3334 13.557 12.3334 13.833ZM12.3334 5.83301C12.3334 6.10901 12.1094 6.33301 11.8334 6.33301H9.83337C9.55737 6.33301 9.33337 6.10901 9.33337 5.83301C9.33337 5.55701 9.55737 5.33301 9.83337 5.33301H11.8334C12.1094 5.33301 12.3334 5.55701 12.3334 5.83301ZM12.3334 9.83301C12.3334 10.109 12.1094 10.333 11.8334 10.333H9.83337C9.55737 10.333 9.33337 10.109 9.33337 9.83301C9.33337 9.55701 9.55737 9.33301 9.83337 9.33301H11.8334C12.1094 9.33301 12.3334 9.55701 12.3334 9.83301ZM20.3334 17.833C20.3334 18.109 20.1094 18.333 19.8334 18.333H18.8334C18.5574 18.333 18.3334 18.109 18.3334 17.833C18.3334 17.557 18.5574 17.333 18.8334 17.333H19.8334C20.1094 17.333 20.3334 17.557 20.3334 17.833ZM20.3334 9.83301C20.3334 10.109 20.1094 10.333 19.8334 10.333H18.8334C18.5574 10.333 18.3334 10.109 18.3334 9.83301C18.3334 9.55701 18.5574 9.33301 18.8334 9.33301H19.8334C20.1094 9.33301 20.3334 9.55701 20.3334 9.83301ZM20.3334 13.833C20.3334 14.109 20.1094 14.333 19.8334 14.333H18.8334C18.5574 14.333 18.3334 14.109 18.3334 13.833C18.3334 13.557 18.5574 13.333 18.8334 13.333H19.8334C20.1094 13.333 20.3334 13.557 20.3334 13.833Z" fill="white" stroke="white" stroke-width="0.666667"/>
</svg>
