<svg width="16" height="17" viewBox="0 0 16 17" fill="none" xmlns="http://www.w3.org/2000/svg">
<path d="M14.6286 6.93094C14.6286 5.43321 14.6268 4.37476 14.5152 3.57317C14.4061 2.78956 14.2031 2.34979 13.8741 2.0322C13.5464 1.71594 13.0948 1.52148 12.2875 1.41667C11.4593 1.30916 10.3645 1.30769 8.8125 1.30769H7.1875C5.63544 1.30769 4.54074 1.30916 3.7125 1.41667C2.90527 1.52148 2.45362 1.71594 2.12589 2.0322C1.79695 2.34979 1.59395 2.78956 1.48482 3.57317C1.3732 4.37476 1.37143 5.43321 1.37143 6.93094V10.0691C1.37143 11.5668 1.3732 12.6252 1.48482 13.4268C1.59395 14.2105 1.79697 14.6503 2.12589 14.9678C2.45362 15.2841 2.90527 15.4785 3.7125 15.5833C4.54074 15.6908 5.63544 15.6923 7.1875 15.6923H8.8125C10.3645 15.6923 11.4593 15.6908 12.2875 15.5833C13.0948 15.4785 13.5464 15.2841 13.8741 14.9678C14.203 14.6503 14.4061 14.2105 14.5152 13.4268C14.6268 12.6252 14.6286 11.5668 14.6286 10.0691V6.93094ZM16 10.0691C16 11.5301 16.0014 12.6911 15.875 13.5988C15.7541 14.4666 15.5065 15.1889 14.9625 15.7715L14.85 15.8864C14.2257 16.4892 13.4351 16.7541 12.4723 16.8791C11.5301 17.0014 10.3253 17 8.8125 17H7.1875C5.67468 17 4.46991 17.0014 3.52768 16.8791C2.56492 16.7541 1.77432 16.4892 1.15 15.8864C0.526796 15.2848 0.253908 14.5245 0.125001 13.5988C-0.0013715 12.6911 6.20039e-07 11.5301 6.20039e-07 10.0691V6.93094C6.20039e-07 5.46984 -0.00137165 4.30886 0.125001 3.40119C0.253909 2.47551 0.526815 1.71524 1.15 1.11358C1.77433 0.510852 2.56491 0.245876 3.52768 0.120894C4.46991 -0.00140785 5.67468 7.14069e-07 7.1875 7.14069e-07H8.8125C10.3253 7.14069e-07 11.5301 -0.00140775 12.4723 0.120894C13.4351 0.245875 14.2257 0.510837 14.85 1.11358L14.9625 1.22852C15.5065 1.81115 15.7541 2.53336 15.875 3.40119C16.0014 4.30886 16 5.46984 16 6.93094V10.0691Z" fill="#004370"/>
<path d="M11.6571 10.2637C12.0359 10.2637 12.3429 10.5564 12.3429 10.9176C12.3429 11.2787 12.0359 11.5714 11.6571 11.5714H4.34286C3.96415 11.5714 3.65714 11.2787 3.65714 10.9176C3.65714 10.5564 3.96415 10.2637 4.34286 10.2637H11.6571Z" fill="#004370"/>
<path d="M11.6571 5.89874C12.0359 5.89874 12.3429 6.19148 12.3429 6.55259C12.3429 6.9137 12.0359 7.20644 11.6571 7.20644H4.34286C3.96415 7.20644 3.65714 6.9137 3.65714 6.55259C3.65714 6.19148 3.96415 5.89874 4.34286 5.89874H11.6571Z" fill="#004370"/>
</svg>
