<svg width="24" height="24" viewBox="0 0 24 24" fill="none" xmlns="http://www.w3.org/2000/svg">
<path d="M10.5 13H9.5C9.224 13 9 13.224 9 13.5C9 13.776 9.224 14 9.5 14H10.5C10.776 14 11 13.776 11 13.5C11 13.224 10.776 13 10.5 13Z" fill="#00B3AC"/>
<path d="M14.5 13H13.5C13.224 13 13 13.224 13 13.5C13 13.776 13.224 14 13.5 14H14.5C14.776 14 15 13.776 15 13.5C15 13.224 14.776 13 14.5 13Z" fill="#00B3AC"/>
<path d="M18.5 13H17.5C17.224 13 17 13.224 17 13.5C17 13.776 17.224 14 17.5 14H18.5C18.776 14 19 13.776 19 13.5C19 13.224 18.776 13 18.5 13Z" fill="#00B3AC"/>
<path d="M10.5 18H9.5C9.224 18 9 18.224 9 18.5C9 18.776 9.224 19 9.5 19H10.5C10.776 19 11 18.776 11 18.5C11 18.224 10.776 18 10.5 18Z" fill="#00B3AC"/>
<path d="M6.5 13H5.5C5.224 13 5 13.224 5 13.5C5 13.776 5.224 14 5.5 14H6.5C6.776 14 7 13.776 7 13.5C7 13.224 6.776 13 6.5 13Z" fill="#00B3AC"/>
<path d="M6.5 18H5.5C5.224 18 5 18.224 5 18.5C5 18.776 5.224 19 5.5 19H6.5C6.776 19 7 18.776 7 18.5C7 18.224 6.776 18 6.5 18Z" fill="#00B3AC"/>
<path d="M14.5 18H13.5C13.224 18 13 18.224 13 18.5C13 18.776 13.224 19 13.5 19H14.5C14.776 19 15 18.776 15 18.5C15 18.224 14.776 18 14.5 18Z" fill="#00B3AC"/>
<path d="M18.5 18H17.5C17.224 18 17 18.224 17 18.5C17 18.776 17.224 19 17.5 19H18.5C18.776 19 19 18.776 19 18.5C19 18.224 18.776 18 18.5 18Z" fill="#00B3AC"/>
<path d="M19.5 2H18V0.5C18 0.224 17.776 0 17.5 0C17.224 0 17 0.224 17 0.5V2H7V0.5C7 0.224 6.776 0 6.5 0C6.224 0 6 0.224 6 0.5V2H4.5C2.019 2 0 4.019 0 6.5V19.5C0 21.981 2.019 24 4.5 24H19.5C21.981 24 24 21.981 24 19.5V6.5C24 4.019 21.981 2 19.5 2ZM4.5 3H19.5C21.43 3 23 4.57 23 6.5V8H1V6.5C1 4.57 2.57 3 4.5 3ZM19.5 23H4.5C2.57 23 1 21.43 1 19.5V9H23V19.5C23 21.43 21.43 23 19.5 23Z" fill="#00B3AC"/>
</svg>
