<svg width="38" height="38" viewBox="0 0 38 38" fill="none" xmlns="http://www.w3.org/2000/svg">
<g clip-path="url(#clip0_726_40917)">
<path d="M36.3321 14.746L30.8861 5.41271C29.497 3.03271 26.9241 1.55493 24.1692 1.55493H13.1683C10.4134 1.55493 7.83899 3.03426 6.44988 5.41271L1.00543 14.746C-0.405457 17.1634 -0.405457 20.1672 1.00543 22.5845L6.44988 31.9178C7.83899 34.2978 10.4119 35.7756 13.1683 35.7756H24.1692C26.9241 35.7756 29.4985 34.2963 30.8877 31.9178L36.3321 22.5845C37.7414 20.1672 37.7414 17.1634 36.3321 14.746ZM28.3117 16.3498L21.4268 23.1087C20.2088 24.3034 18.6408 24.8992 17.0728 24.8992C15.5203 24.8992 13.9663 24.3143 12.753 23.1429L9.79899 20.2372C9.1861 19.6352 9.17832 18.6505 9.78032 18.0376C10.3823 17.4232 11.3654 17.4154 11.9799 18.0189L14.9245 20.9138C16.1348 22.0805 18.0388 22.0743 19.2505 20.8858L26.1339 14.1285C26.7452 13.5249 27.7268 13.5358 28.3334 14.1487C28.9354 14.7616 28.9261 15.7478 28.3117 16.3498Z" fill="#3BCF85"/>
</g>
<defs>
<clipPath id="clip0_726_40917">
<rect width="37.3333" height="37.3333" fill="white"/>
</clipPath>
</defs>
</svg>
