<svg width="23" height="23" viewBox="0 0 23 23" fill="none" xmlns="http://www.w3.org/2000/svg">
<path d="M11.34 0.339844C3.52697 0.339844 0.339966 3.52684 0.339966 11.3398C0.339966 19.1528 3.52697 22.3398 11.34 22.3398C19.153 22.3398 22.34 19.1528 22.34 11.3398C22.34 3.52684 19.153 0.339844 11.34 0.339844ZM5.58797 20.3518C6.05097 17.5158 7.72797 16.3398 11.34 16.3398C14.952 16.3398 16.629 17.5158 17.092 20.3518C15.615 21.0248 13.723 21.3398 11.34 21.3398C8.95697 21.3398 7.06497 21.0238 5.58797 20.3518ZM18.006 19.8518C17.373 16.7528 15.305 15.3398 11.34 15.3398C7.37497 15.3398 5.30697 16.7528 4.67397 19.8518C2.34697 18.3468 1.33997 15.6288 1.33997 11.3398C1.33997 4.14384 4.14397 1.33984 11.34 1.33984C18.536 1.33984 21.34 4.14384 21.34 11.3398C21.34 15.6278 20.333 18.3468 18.006 19.8518ZM11.34 5.33984C8.57297 5.33984 7.33997 6.57284 7.33997 9.33984C7.33997 12.1068 8.57297 13.3398 11.34 13.3398C14.107 13.3398 15.34 12.1068 15.34 9.33984C15.34 6.57284 14.107 5.33984 11.34 5.33984ZM11.34 12.3398C9.12497 12.3398 8.33997 11.5548 8.33997 9.33984C8.33997 7.12484 9.12497 6.33984 11.34 6.33984C13.555 6.33984 14.34 7.12484 14.34 9.33984C14.34 11.5548 13.555 12.3398 11.34 12.3398Z" fill="white" stroke="white" stroke-width="0.68"/>
</svg>
