<svg width="32" height="32" viewBox="0 0 32 32" fill="none" xmlns="http://www.w3.org/2000/svg">
<g clip-path="url(#clip0_482_111034)">
<path d="M22.666 18C22.666 18.368 22.3673 18.6667 21.9993 18.6667H9.99935C9.63135 18.6667 9.33268 18.368 9.33268 18C9.33268 17.632 9.63135 17.3333 9.99935 17.3333H21.9993C22.3673 17.3333 22.666 17.632 22.666 18ZM17.9993 22.6667H9.99935C9.63135 22.6667 9.33268 22.9653 9.33268 23.3333C9.33268 23.7013 9.63135 24 9.99935 24H17.9993C18.3673 24 18.666 23.7013 18.666 23.3333C18.666 22.9653 18.3673 22.6667 17.9993 22.6667ZM29.3327 13.3133V26C29.3327 29.308 26.6407 32 23.3327 32H8.66602C5.35802 32 2.66602 29.308 2.66602 26V6C2.66602 2.692 5.35802 0 8.66602 0H16.0193C18.3327 0 20.51 0.901333 22.1487 2.53867L26.794 7.18533C28.4313 8.82133 29.3327 10.9973 29.3327 13.3133ZM21.2047 3.48C20.47 2.74667 19.6047 2.20133 18.666 1.83867V8.66533C18.666 9.768 19.5633 10.6653 20.666 10.6653H27.494C27.13 9.72667 26.5847 8.86 25.8513 8.12667L21.2047 3.48ZM27.9993 13.3133C27.9993 12.8667 27.9487 12.4293 27.8713 12H20.666C18.8273 12 17.3327 10.504 17.3327 8.66667V1.46133C16.902 1.384 16.4647 1.33333 16.0193 1.33333H8.66602C6.09268 1.33333 3.99935 3.42667 3.99935 6V26C3.99935 28.5733 6.09268 30.6667 8.66602 30.6667H23.3327C25.906 30.6667 27.9993 28.5733 27.9993 26V13.3133Z" fill="#004370"/>
</g>
<defs>
<clipPath id="clip0_482_111034">
<rect width="32" height="32" fill="white"/>
</clipPath>
</defs>
</svg>
