<svg width="17" height="17" viewBox="0 0 17 17" fill="none" xmlns="http://www.w3.org/2000/svg">
<path d="M6.74754 4.00635C6.74754 3.19326 6.7463 2.64698 6.69153 2.23957C6.6392 1.85041 6.54856 1.68395 6.43866 1.57404C6.32875 1.46414 6.16228 1.3735 5.77313 1.32117C5.36572 1.2664 4.81944 1.26516 4.00635 1.26516C3.19326 1.26516 2.64698 1.2664 2.23957 1.32117C1.85041 1.3735 1.68395 1.46414 1.57404 1.57404C1.46414 1.68395 1.3735 1.85041 1.32117 2.23957C1.2664 2.64698 1.26516 3.19326 1.26516 4.00635C1.26516 4.81944 1.2664 5.36572 1.32117 5.77313C1.3735 6.16228 1.46414 6.32875 1.57404 6.43866C1.68395 6.54856 1.85041 6.6392 2.23957 6.69153C2.64698 6.7463 3.19326 6.74754 4.00635 6.74754C4.81944 6.74754 5.36572 6.7463 5.77313 6.69153C6.16228 6.6392 6.32875 6.54856 6.43866 6.43866C6.54856 6.32875 6.6392 6.16228 6.69153 5.77313C6.7463 5.36572 6.74754 4.81944 6.74754 4.00635ZM8.0127 4.00635C8.0127 4.78367 8.0139 5.43067 7.94516 5.94198C7.87395 6.47134 7.71723 6.9491 7.33317 7.33317C6.9491 7.71723 6.47134 7.87395 5.94198 7.94516C5.43067 8.0139 4.78367 8.0127 4.00635 8.0127C3.22903 8.0127 2.58203 8.0139 2.07072 7.94516C1.54137 7.87395 1.0636 7.71723 0.679532 7.33317C0.295467 6.9491 0.138757 6.47134 0.0675426 5.94198C-0.00120124 5.43067 1.37395e-06 4.78367 1.37441e-06 4.00635C1.37441e-06 3.22903 -0.00120126 2.58203 0.0675426 2.07072C0.138757 1.54136 0.295463 1.0636 0.679532 0.679532C1.0636 0.295463 1.54136 0.138757 2.07072 0.0675426C2.58203 -0.00120126 3.22903 1.37441e-06 4.00635 1.37441e-06C4.78367 1.37395e-06 5.43067 -0.00120124 5.94198 0.0675426C6.47134 0.138757 6.9491 0.295467 7.33317 0.679532C7.71723 1.0636 7.87395 1.54137 7.94516 2.07072C8.0139 2.58203 8.0127 3.22903 8.0127 4.00635Z" fill="#004370"/>
<path d="M15.7348 12.9936C15.7348 12.1806 15.7336 11.6343 15.6788 11.2269C15.6265 10.8377 15.5359 10.6712 15.426 10.5613C15.3161 10.4514 15.1496 10.3608 14.7604 10.3085C14.353 10.2537 13.8067 10.2525 12.9936 10.2525C12.1806 10.2525 11.6343 10.2537 11.2269 10.3085C10.8377 10.3608 10.6712 10.4514 10.5613 10.5613C10.4514 10.6712 10.3608 10.8377 10.3085 11.2269C10.2537 11.6343 10.2525 12.1806 10.2525 12.9936C10.2525 13.8067 10.2537 14.353 10.3085 14.7604C10.3608 15.1496 10.4514 15.3161 10.5613 15.426C10.6712 15.5359 10.8377 15.6265 11.2269 15.6788C11.6343 15.7336 12.1806 15.7348 12.9936 15.7348C13.8067 15.7348 14.353 15.7336 14.7604 15.6788C15.1496 15.6265 15.3161 15.5359 15.426 15.426C15.5359 15.3161 15.6265 15.1496 15.6788 14.7604C15.7336 14.353 15.7348 13.8067 15.7348 12.9936ZM17 12.9936C17 13.771 17.0012 14.418 16.9325 14.9293C16.8612 15.4586 16.7045 15.9364 16.3205 16.3205C15.9364 16.7045 15.4586 16.8612 14.9293 16.9325C14.418 17.0012 13.771 17 12.9936 17C12.2163 17 11.5693 17.0012 11.058 16.9325C10.5287 16.8612 10.0509 16.7045 9.66683 16.3205C9.28276 15.9364 9.12605 15.4586 9.05484 14.9293C8.9861 14.418 8.9873 13.771 8.9873 12.9936C8.9873 12.2163 8.9861 11.5693 9.05484 11.058C9.12605 10.5287 9.28276 10.0509 9.66683 9.66683C10.0509 9.28276 10.5287 9.12605 11.058 9.05484C11.5693 8.9861 12.2163 8.9873 12.9936 8.9873C13.771 8.9873 14.418 8.9861 14.9293 9.05484C15.4586 9.12605 15.9364 9.28276 16.3205 9.66683C16.7045 10.0509 16.8612 10.5287 16.9325 11.058C17.0012 11.5693 17 12.2163 17 12.9936Z" fill="#004370"/>
<path d="M6.74754 12.9936C6.74754 12.1806 6.7463 11.6343 6.69153 11.2269C6.6392 10.8377 6.54856 10.6712 6.43866 10.5613C6.32875 10.4514 6.16228 10.3608 5.77313 10.3085C5.36572 10.2537 4.81944 10.2525 4.00635 10.2525C3.19326 10.2525 2.64698 10.2537 2.23957 10.3085C1.85041 10.3608 1.68395 10.4514 1.57404 10.5613C1.46414 10.6712 1.37351 10.8377 1.32117 11.2269C1.2664 11.6343 1.26516 12.1806 1.26516 12.9936C1.26516 13.8067 1.2664 14.353 1.32117 14.7604C1.37351 15.1496 1.46414 15.3161 1.57404 15.426C1.68395 15.5359 1.85041 15.6265 2.23957 15.6788C2.64698 15.7336 3.19326 15.7348 4.00635 15.7348C4.81944 15.7348 5.36572 15.7336 5.77313 15.6788C6.16228 15.6265 6.32875 15.5359 6.43866 15.426C6.54856 15.3161 6.6392 15.1496 6.69153 14.7604C6.7463 14.353 6.74754 13.8067 6.74754 12.9936ZM8.0127 12.9936C8.0127 13.771 8.0139 14.418 7.94516 14.9293C7.87395 15.4586 7.71724 15.9364 7.33317 16.3205C6.9491 16.7045 6.47134 16.8612 5.94198 16.9325C5.43067 17.0012 4.78367 17 4.00635 17C3.22903 17 2.58203 17.0012 2.07072 16.9325C1.54136 16.8612 1.0636 16.7045 0.679532 16.3205C0.295462 15.9364 0.138756 15.4586 0.0675426 14.9293C-0.00120111 14.418 1.37391e-06 13.771 1.37391e-06 12.9936C1.37391e-06 12.2163 -0.00120111 11.5693 0.0675426 11.058C0.138756 10.5287 0.295462 10.0509 0.679532 9.66683C1.0636 9.28277 1.54136 9.12605 2.07072 9.05484C2.58203 8.9861 3.22903 8.9873 4.00635 8.9873C4.78367 8.9873 5.43067 8.9861 5.94198 9.05484C6.47134 9.12605 6.9491 9.28277 7.33317 9.66683C7.71724 10.0509 7.87395 10.5287 7.94516 11.058C8.0139 11.5693 8.0127 12.2163 8.0127 12.9936Z" fill="#004370"/>
<path d="M15.7348 4.00635C15.7348 3.19326 15.7336 2.64698 15.6788 2.23957C15.6265 1.85041 15.5359 1.68395 15.426 1.57404C15.3161 1.46414 15.1496 1.37351 14.7604 1.32117C14.353 1.2664 13.8067 1.26516 12.9936 1.26516C12.1806 1.26516 11.6343 1.2664 11.2269 1.32117C10.8377 1.37351 10.6712 1.46414 10.5613 1.57404C10.4514 1.68395 10.3608 1.85041 10.3085 2.23957C10.2537 2.64698 10.2525 3.19326 10.2525 4.00635C10.2525 4.81944 10.2537 5.36572 10.3085 5.77313C10.3608 6.16228 10.4514 6.32875 10.5613 6.43866C10.6712 6.54856 10.8377 6.6392 11.2269 6.69153C11.6343 6.7463 12.1806 6.74754 12.9936 6.74754C13.8067 6.74754 14.353 6.7463 14.7604 6.69153C15.1496 6.6392 15.3161 6.54856 15.426 6.43866C15.5359 6.32875 15.6265 6.16228 15.6788 5.77313C15.7336 5.36572 15.7348 4.81944 15.7348 4.00635ZM17 4.00635C17 4.78367 17.0012 5.43067 16.9325 5.94198C16.8612 6.47134 16.7045 6.9491 16.3205 7.33317C15.9364 7.71724 15.4586 7.87395 14.9293 7.94516C14.418 8.0139 13.771 8.0127 12.9936 8.0127C12.2163 8.0127 11.5693 8.0139 11.058 7.94516C10.5287 7.87395 10.0509 7.71724 9.66683 7.33317C9.28277 6.9491 9.12605 6.47134 9.05484 5.94198C8.9861 5.43067 8.9873 4.78367 8.9873 4.00635C8.9873 3.22903 8.9861 2.58203 9.05484 2.07072C9.12605 1.54136 9.28277 1.0636 9.66683 0.679532C10.0509 0.295462 10.5287 0.138756 11.058 0.0675426C11.5693 -0.00120111 12.2163 1.37391e-06 12.9936 1.37391e-06C13.771 1.37391e-06 14.418 -0.00120111 14.9293 0.0675426C15.4586 0.138756 15.9364 0.295462 16.3205 0.679532C16.7045 1.0636 16.8612 1.54136 16.9325 2.07072C17.0012 2.58203 17 3.22903 17 4.00635Z" fill="#004370"/>
</svg>
