<svg width="28" height="28" viewBox="0 0 28 28" fill="none" xmlns="http://www.w3.org/2000/svg">
<path fill-rule="evenodd" clip-rule="evenodd" d="M0 13.6C0 7.18889 0 3.98334 1.99168 1.99168C3.98334 0 7.18889 0 13.6 0C20.011 0 23.2167 0 25.2083 1.99168C27.2 3.98334 27.2 7.18889 27.2 13.6C27.2 20.011 27.2 23.2167 25.2083 25.2083C23.2167 27.2 20.011 27.2 13.6 27.2C7.18889 27.2 3.98334 27.2 1.99168 25.2083C0 23.2167 0 20.011 0 13.6ZM13.6 5.78C14.1633 5.78 14.62 6.23667 14.62 6.8V13.8574L16.9588 11.5188C17.3571 11.1204 18.0029 11.1204 18.4012 11.5188C18.7996 11.9171 18.7996 12.5629 18.4012 12.9612L14.3212 17.0412C14.13 17.2326 13.8705 17.34 13.6 17.34C13.3295 17.34 13.07 17.2326 12.8788 17.0412L8.79875 12.9612C8.40042 12.5629 8.40042 11.9171 8.79875 11.5188C9.19708 11.1204 9.84292 11.1204 10.2412 11.5188L12.58 13.8574V6.8C12.58 6.23667 13.0367 5.78 13.6 5.78ZM8.16 19.38C7.59668 19.38 7.14 19.8367 7.14 20.4C7.14 20.9633 7.59668 21.42 8.16 21.42H19.04C19.6033 21.42 20.06 20.9633 20.06 20.4C20.06 19.8367 19.6033 19.38 19.04 19.38H8.16Z" fill="#00B3AC"/>
</svg>
