<svg width="28" height="28" viewBox="0 0 28 28" fill="none" xmlns="http://www.w3.org/2000/svg">
<path d="M13.5996 0C20.0103 0 23.2164 -9.83784e-05 25.208 1.99121C27.1997 3.98284 27.2002 7.18876 27.2002 13.5996C27.2002 20.0106 27.1997 23.2164 25.208 25.208C23.2164 27.1997 20.0106 27.2002 13.5996 27.2002C7.18876 27.2002 3.98284 27.1997 1.99121 25.208C-9.83786e-05 23.2164 0 20.0103 0 13.5996C8.25695e-10 7.18876 -0.000427598 3.98284 1.99121 1.99121C3.98284 -0.000427597 7.18876 8.25719e-10 13.5996 0ZM15.4072 10.3877C15.2129 10.1933 14.8975 10.1934 14.7031 10.3877L7.4668 17.624C7.04017 18.0505 6.79996 18.6292 6.7998 19.2324V19.9023C6.7998 20.1772 7.02295 20.4004 7.29785 20.4004H7.96777C8.57102 20.4002 9.14967 20.16 9.57617 19.7334L16.8125 12.4971C17.0068 12.3027 17.0069 11.9873 16.8125 11.793L15.4072 10.3877ZM18.9082 6.7998C18.7124 6.79984 18.5188 6.83913 18.3379 6.91406C18.1569 6.98909 17.992 7.09869 17.8535 7.2373L16.2119 8.87988C16.0176 9.07427 16.0176 9.38962 16.2119 9.58398L17.6172 10.9893C17.8116 11.1836 18.1269 11.1836 18.3213 10.9893L19.9639 9.34766C20.1025 9.20918 20.2121 9.04428 20.2871 8.86328C20.3621 8.68229 20.4004 8.48792 20.4004 8.29199C20.4003 8.09626 20.362 7.9025 20.2871 7.72168C20.2121 7.54073 20.1024 7.37576 19.9639 7.2373C19.8254 7.0987 19.6605 6.9891 19.4795 6.91406C19.2985 6.83903 19.1042 6.7998 18.9082 6.7998Z" fill="#00B3AC"/>
</svg>
