<svg width="38" height="38" viewBox="0 0 38 38" fill="none" xmlns="http://www.w3.org/2000/svg">
<g clip-path="url(#clip0_726_35656)">
<path d="M36.3044 14.746L30.86 5.41271C29.4709 3.03271 26.898 1.55493 24.1415 1.55493H13.1406C10.3858 1.55493 7.81131 3.03271 6.4222 5.41271L0.979309 14.746C-0.43158 17.1634 -0.43158 20.1672 0.979309 22.5845L6.42376 31.9178C7.81287 34.2978 10.3858 35.7756 13.1422 35.7756H24.1431C26.898 35.7756 29.4724 34.2978 30.8615 31.9178L36.306 22.5845C37.7169 20.1672 37.7153 17.1634 36.3044 14.746ZM17.1089 10.8883C17.1089 10.028 17.8058 9.33271 18.6644 9.33271C19.5231 9.33271 20.22 10.028 20.22 10.8883V19.4438C20.22 20.304 19.5231 20.9994 18.6644 20.9994C17.8058 20.9994 17.1089 20.304 17.1089 19.4438V10.8883ZM18.6644 27.9994C17.3764 27.9994 16.3311 26.954 16.3311 25.666C16.3311 24.378 17.3764 23.3327 18.6644 23.3327C19.9524 23.3327 20.9978 24.378 20.9978 25.666C20.9978 26.954 19.9524 27.9994 18.6644 27.9994Z" fill="#FF8306"/>
</g>
<defs>
<clipPath id="clip0_726_35656">
<rect width="37.3333" height="37.3333" fill="white"/>
</clipPath>
</defs>
</svg>
