<svg width="18" height="16" viewBox="0 0 18 16" fill="none" xmlns="http://www.w3.org/2000/svg">
<path fill-rule="evenodd" clip-rule="evenodd" d="M6.26556 14.5517C3.61749 12.419 0 8.89591 0 5.56484C0 0.310666 4.95014 -2.07766 9 2.22113C13.0498 -2.07766 18 0.310498 18 5.5648C18 8.896 14.3825 12.419 11.7345 14.5517C10.5357 15.5172 9.93627 16 9 16C8.06373 16 7.46433 15.5172 6.26556 14.5517ZM7.28388 6.8856C7.36443 6.77191 7.43139 6.67751 7.49097 6.59671C7.54137 6.68338 7.59762 6.78436 7.6653 6.90596L9.20457 9.66996C9.35397 9.93849 9.50058 10.2019 9.64773 10.393C9.80523 10.5974 10.0821 10.8777 10.5259 10.8859C10.9696 10.8941 11.2569 10.6244 11.4221 10.4259C11.5764 10.2404 11.7328 9.98267 11.8924 9.71991L11.9423 9.63778C12.141 9.31067 12.2661 9.10613 12.3768 8.9584C12.4789 8.82231 12.5378 8.77787 12.5818 8.75333C12.6257 8.72871 12.6947 8.70169 12.8653 8.68524C13.0505 8.66747 13.2925 8.66676 13.6787 8.66676H14.4C14.7728 8.66676 15.075 8.36827 15.075 8.00009C15.075 7.63191 14.7728 7.33342 14.4 7.33342H13.6496C13.3012 7.33342 12.993 7.33342 12.7347 7.35822C12.4546 7.38507 12.1821 7.44453 11.9166 7.59307C11.6511 7.74151 11.4592 7.94169 11.2919 8.16507C11.1374 8.37102 10.9789 8.632 10.7996 8.92711L10.7569 8.99751C10.6789 9.12604 10.6137 9.23307 10.5556 9.32498C10.5008 9.23102 10.4399 9.1216 10.3667 8.99031L8.82828 6.22756C8.68959 5.97831 8.55135 5.73001 8.41122 5.54797C8.25804 5.34911 7.99551 5.08617 7.57476 5.06373C7.15398 5.0413 6.86428 5.27479 6.69036 5.4562C6.53115 5.62228 6.36669 5.85444 6.20162 6.08747L5.92318 6.48035C5.71874 6.7688 5.59058 6.94853 5.47963 7.07813C5.3775 7.19742 5.32074 7.23653 5.27884 7.25804C5.23694 7.27964 5.17197 7.30311 5.01443 7.31733C4.8433 7.3328 4.62072 7.33342 4.26423 7.33342H3.6C3.22721 7.33342 2.925 7.63191 2.925 8.00009C2.925 8.36827 3.22721 8.66676 3.6 8.66676H4.29131C4.61258 8.66676 4.89738 8.66676 5.13721 8.64515C5.39736 8.62169 5.65114 8.56987 5.90228 8.44071C6.15343 8.31156 6.34195 8.136 6.5106 7.93893C6.66608 7.75724 6.82939 7.52684 7.01362 7.26684L7.28388 6.8856Z" fill="#00B3AC"/>
</svg>
