<svg width="22" height="22" viewBox="0 0 22 22" fill="none" xmlns="http://www.w3.org/2000/svg">
<path d="M0.833496 3.81583H4.3785C4.5003 4.51113 4.86337 5.1412 5.40386 5.59523C5.94434 6.04926 6.62762 6.29817 7.3335 6.29817C8.03938 6.29817 8.72265 6.04926 9.26313 5.59523C9.80362 5.1412 10.1667 4.51113 10.2885 3.81583H20.8335C20.9661 3.81583 21.0933 3.76315 21.187 3.66939C21.2808 3.57562 21.3335 3.44844 21.3335 3.31583C21.3335 3.18322 21.2808 3.05605 21.187 2.96228C21.0933 2.86851 20.9661 2.81583 20.8335 2.81583H10.2885C10.1667 2.12054 9.80362 1.49047 9.26313 1.03643C8.72265 0.582402 8.03938 0.333496 7.3335 0.333496C6.62762 0.333496 5.94434 0.582402 5.40386 1.03643C4.86337 1.49047 4.5003 2.12054 4.3785 2.81583H0.833496C0.700888 2.81583 0.573711 2.86851 0.479943 2.96228C0.386174 3.05605 0.333496 3.18322 0.333496 3.31583C0.333496 3.44844 0.386174 3.57562 0.479943 3.66939C0.573711 3.76315 0.700888 3.81583 0.833496 3.81583ZM7.3335 1.31583C7.72906 1.31583 8.11574 1.43313 8.44464 1.65289C8.77353 1.87266 9.02988 2.18501 9.18126 2.55047C9.33263 2.91592 9.37224 3.31805 9.29507 3.70601C9.2179 4.09398 9.02741 4.45034 8.74771 4.73005C8.468 5.00975 8.11164 5.20023 7.72368 5.2774C7.33571 5.35457 6.93358 5.31497 6.56813 5.16359C6.20268 5.01222 5.89032 4.75587 5.67056 4.42697C5.45079 4.09807 5.3335 3.7114 5.3335 3.31583C5.3335 2.7854 5.54421 2.27669 5.91928 1.90162C6.29436 1.52655 6.80306 1.31583 7.3335 1.31583ZM20.8335 10.3158H17.2885C17.1667 9.62054 16.8036 8.99047 16.2631 8.53643C15.7227 8.0824 15.0394 7.8335 14.3335 7.8335C13.6276 7.8335 12.9443 8.0824 12.4039 8.53643C11.8634 8.99047 11.5003 9.62054 11.3785 10.3158H0.833496C0.700888 10.3158 0.573711 10.3685 0.479943 10.4623C0.386174 10.556 0.333496 10.6832 0.333496 10.8158C0.333496 10.9484 0.386174 11.0756 0.479943 11.1694C0.573711 11.2632 0.700888 11.3158 0.833496 11.3158H11.3785C11.5003 12.0111 11.8634 12.6412 12.4039 13.0952C12.9443 13.5493 13.6276 13.7982 14.3335 13.7982C15.0394 13.7982 15.7227 13.5493 16.2631 13.0952C16.8036 12.6412 17.1667 12.0111 17.2885 11.3158H20.8335C20.9661 11.3158 21.0933 11.2632 21.187 11.1694C21.2808 11.0756 21.3335 10.9484 21.3335 10.8158C21.3335 10.6832 21.2808 10.556 21.187 10.4623C21.0933 10.3685 20.9661 10.3158 20.8335 10.3158ZM14.3335 12.8158C13.9379 12.8158 13.5513 12.6985 13.2224 12.4788C12.8935 12.259 12.6371 11.9467 12.4857 11.5812C12.3344 11.2157 12.2948 10.8136 12.3719 10.4257C12.4491 10.0377 12.6396 9.68132 12.9193 9.40162C13.199 9.12191 13.5554 8.93143 13.9433 8.85426C14.3313 8.77709 14.7334 8.8167 15.0989 8.96807C15.4643 9.11945 15.7767 9.37579 15.9964 9.70469C16.2162 10.0336 16.3335 10.4203 16.3335 10.8158C16.3335 11.3463 16.1228 11.855 15.7477 12.23C15.3726 12.6051 14.8639 12.8158 14.3335 12.8158ZM20.8335 17.8158H10.2885C10.1667 17.1205 9.80362 16.4905 9.26313 16.0364C8.72265 15.5824 8.03938 15.3335 7.3335 15.3335C6.62762 15.3335 5.94434 15.5824 5.40386 16.0364C4.86337 16.4905 4.5003 17.1205 4.3785 17.8158H0.833496C0.700888 17.8158 0.573711 17.8685 0.479943 17.9623C0.386174 18.056 0.333496 18.1832 0.333496 18.3158C0.333496 18.4484 0.386174 18.5756 0.479943 18.6694C0.573711 18.7632 0.700888 18.8158 0.833496 18.8158H4.3785C4.5003 19.5111 4.86337 20.1412 5.40386 20.5952C5.94434 21.0493 6.62762 21.2982 7.3335 21.2982C8.03938 21.2982 8.72265 21.0493 9.26313 20.5952C9.80362 20.1412 10.1667 19.5111 10.2885 18.8158H20.8335C20.9661 18.8158 21.0933 18.7632 21.187 18.6694C21.2808 18.5756 21.3335 18.4484 21.3335 18.3158C21.3335 18.1832 21.2808 18.056 21.187 17.9623C21.0933 17.8685 20.9661 17.8158 20.8335 17.8158ZM7.3335 20.3158C6.93793 20.3158 6.55125 20.1985 6.22236 19.9788C5.89346 19.759 5.63711 19.4467 5.48574 19.0812C5.33436 18.7157 5.29475 18.3136 5.37193 17.9257C5.4491 17.5377 5.63958 17.1813 5.91928 16.9016C6.19899 16.6219 6.55535 16.4314 6.94332 16.3543C7.33128 16.2771 7.73341 16.3167 8.09886 16.4681C8.46431 16.6194 8.77667 16.8758 8.99644 17.2047C9.2162 17.5336 9.3335 17.9203 9.3335 18.3158C9.3335 18.8463 9.12278 19.355 8.74771 19.73C8.37264 20.1051 7.86393 20.3158 7.3335 20.3158Z" fill="white" stroke="white" stroke-width="0.666667"/>
</svg>
