<svg width="16" height="17" viewBox="0 0 16 17" fill="none" xmlns="http://www.w3.org/2000/svg">
<path d="M14.6286 6.93094C14.6286 5.43321 14.6268 4.37476 14.5152 3.57317C14.4061 2.78956 14.2031 2.34979 13.8741 2.0322C13.5464 1.71594 13.0948 1.52148 12.2875 1.41667C11.4593 1.30916 10.3645 1.30769 8.8125 1.30769H7.1875C5.63544 1.30769 4.54074 1.30916 3.7125 1.41667C2.90526 1.52148 2.45362 1.71594 2.12589 2.0322C1.79695 2.34978 1.59395 2.78956 1.48482 3.57317C1.3732 4.37476 1.37143 5.43321 1.37143 6.93094V10.0691C1.37143 11.5668 1.3732 12.6252 1.48482 13.4268C1.59395 14.2105 1.79697 14.6503 2.12589 14.9678C2.45362 15.2841 2.90527 15.4785 3.7125 15.5833C4.54074 15.6908 5.63544 15.6923 7.1875 15.6923H8.8125C10.3645 15.6923 11.4593 15.6908 12.2875 15.5833C13.0948 15.4785 13.5464 15.2841 13.8741 14.9678C14.203 14.6503 14.4061 14.2105 14.5152 13.4268C14.6268 12.6252 14.6286 11.5668 14.6286 10.0691V6.93094ZM16 10.0691C16 11.5301 16.0014 12.6911 15.875 13.5988C15.7541 14.4666 15.5065 15.1889 14.9625 15.7715L14.85 15.8864C14.2257 16.4892 13.4351 16.7541 12.4723 16.8791C11.5301 17.0014 10.3253 17 8.8125 17H7.1875C5.67468 17 4.46991 17.0014 3.52768 16.8791C2.56492 16.7541 1.77432 16.4892 1.15 15.8864C0.526796 15.2848 0.253908 14.5245 0.125001 13.5988C-0.00137151 12.6911 6.20038e-07 11.5301 6.20038e-07 10.0691V6.93094C6.20038e-07 5.46984 -0.00137166 4.30886 0.125001 3.40119C0.253909 2.47551 0.526815 1.71524 1.15 1.11358C1.77433 0.510852 2.56491 0.245876 3.52768 0.120894C4.46991 -0.00140785 5.67468 7.1407e-07 7.1875 7.1407e-07H8.8125C10.3253 7.1407e-07 11.5301 -0.00140774 12.4723 0.120894C13.4351 0.245875 14.2257 0.510837 14.85 1.11358L14.9625 1.22852C15.5065 1.81115 15.7541 2.53336 15.875 3.40119C16.0014 4.30886 16 5.46984 16 6.93094V10.0691Z" fill="#004370"/>
<path d="M7.31427 7.19231V6.10256H6.17141C5.7927 6.10256 5.4857 5.80983 5.4857 5.44872C5.4857 5.08761 5.7927 4.79487 6.17141 4.79487H7.31427V3.70513C7.31427 3.34403 7.62128 3.05129 7.99998 3.05128C8.37869 3.05128 8.6857 3.34402 8.6857 3.70513V4.79487H9.82856C10.2073 4.79487 10.5143 5.08761 10.5143 5.44872C10.5143 5.80983 10.2073 6.10256 9.82856 6.10256H8.6857V7.19231C8.6857 7.55342 8.37869 7.84615 7.99998 7.84615C7.62128 7.84615 7.31427 7.55341 7.31427 7.19231Z" fill="#004370"/>
<path d="M11.6571 9.41539C12.0359 9.41539 12.3429 9.70812 12.3429 10.0692C12.3429 10.4303 12.0359 10.7231 11.6571 10.7231H4.34286C3.96415 10.7231 3.65714 10.4303 3.65714 10.0692C3.65714 9.70812 3.96415 9.41539 4.34286 9.41539H11.6571Z" fill="#004370"/>
<path d="M10.7429 12.2051C11.1216 12.2051 11.4286 12.4979 11.4286 12.859C11.4286 13.2201 11.1216 13.5128 10.7429 13.5128H5.25714C4.87843 13.5128 4.57143 13.2201 4.57143 12.859C4.57143 12.4979 4.87843 12.2051 5.25714 12.2051H10.7429Z" fill="#004370"/>
</svg>
