<svg width="17" height="17" viewBox="0 0 17 17" fill="none" xmlns="http://www.w3.org/2000/svg">
<path d="M15.5347 11.6071V5.39287C15.5347 4.27376 15.5327 3.50785 15.4555 2.9335C15.3811 2.38043 15.2487 2.11517 15.0663 1.93277C14.8839 1.75063 14.6191 1.61885 14.0665 1.5445C13.4921 1.46729 12.7261 1.46532 11.6071 1.46532H10.8305C9.71142 1.46532 8.9455 1.46729 8.37114 1.5445C7.81806 1.61886 7.55283 1.75045 7.3704 1.93277C7.20952 2.09366 7.08906 2.31703 7.0117 2.73794C6.9305 3.17997 6.90864 3.7697 6.9039 4.62015C6.90165 5.02469 6.57193 5.3511 6.16742 5.34899C5.7629 5.34674 5.43651 5.01698 5.43857 4.61252C5.44324 3.77368 5.46336 3.06062 5.57117 2.47368C5.68283 1.8658 5.89847 1.33264 6.33436 0.896748C6.83437 0.396872 7.45995 0.187816 8.17557 0.091585C8.87027 -0.00181475 9.7528 2.54972e-06 10.8305 2.54972e-06H11.6071C12.6846 2.39933e-06 13.5665 -0.00176611 14.2611 0.091585C14.9769 0.187817 15.6032 0.39666 16.1032 0.896748C16.6033 1.3968 16.8122 2.02314 16.9084 2.73889C17.0018 3.43351 17 4.31539 17 5.39287V11.6071C17 12.6846 17.0018 13.5665 16.9084 14.2611C16.8122 14.9767 16.6031 15.6023 16.1032 16.1023C15.6032 16.6024 14.9769 16.8112 14.2611 16.9075C13.5664 17.0008 12.6846 17 11.6071 17H10.8305C9.7528 17 8.87027 17.0009 8.17557 16.9075C7.45989 16.8112 6.83438 16.6023 6.33436 16.1023C5.89861 15.6665 5.68284 15.134 5.57117 14.5263C5.46336 13.9394 5.44324 13.2263 5.43857 12.3875C5.43631 11.9829 5.76278 11.6533 6.16742 11.651C6.5718 11.6489 6.90143 11.9745 6.9039 12.3789C6.90863 13.2293 6.93053 13.8191 7.0117 14.2611C7.08904 14.6821 7.20952 14.9053 7.3704 15.0663C7.55284 15.2487 7.81785 15.3811 8.37114 15.4555C8.94549 15.5327 9.71145 15.5347 10.8305 15.5347H11.6071C12.7261 15.5347 13.4921 15.5327 14.0665 15.4555C14.6194 15.3811 14.8839 15.2486 15.0663 15.0663C15.2487 14.8838 15.3811 14.6188 15.4555 14.0655C15.5327 13.4913 15.5347 12.7259 15.5347 11.6071Z" fill="#FF4242"/>
<path d="M2.97455 5.61349C3.28177 5.3502 3.7444 5.38547 4.00772 5.69267C4.27104 5.9999 4.23481 6.46251 3.92759 6.72584L2.71315 7.76759H10.8297C11.2344 7.76759 11.5624 8.09561 11.5624 8.50025C11.5622 8.90469 11.2342 9.23291 10.8297 9.23291H2.71411L3.92759 10.2737C4.23479 10.537 4.271 10.9996 4.00772 11.3069C3.74439 11.6141 3.28177 11.6494 2.97455 11.3861L0.25567 9.05642C0.0933886 8.91733 0.000127734 8.71397 0 8.50025C2.11269e-08 8.28637 0.0932775 8.08232 0.25567 7.94312L2.97455 5.61349Z" fill="#FF4242"/>
</svg>
