<svg width="28" height="23" viewBox="0 0 28 23" fill="none" xmlns="http://www.w3.org/2000/svg">
<path fill-rule="evenodd" clip-rule="evenodd" d="M1.59334 1.65972C0 3.31946 0 5.99074 0 11.3333C0 16.6759 0 19.3473 1.59334 21.0069C3.18668 22.6667 5.75111 22.6667 10.88 22.6667H16.32C21.4488 22.6667 24.0134 22.6667 25.6066 21.0069C27.2 19.3473 27.2 16.6759 27.2 11.3333C27.2 5.99074 27.2 3.31946 25.6066 1.65972C24.0134 0 21.4488 0 16.32 0H10.88C5.75111 0 3.18668 0 1.59334 1.65972ZM22.5436 4.98647C22.9042 5.43727 22.8457 6.10724 22.4129 6.48291L19.4258 9.07602C18.2203 10.1224 17.2433 10.9705 16.3809 11.5482C15.4826 12.15 14.6079 12.5303 13.6 12.5303C12.5921 12.5303 11.7174 12.15 10.819 11.5482C9.95672 10.9705 8.97969 10.1224 7.77425 9.07602L4.78701 6.48291C4.35424 6.10724 4.29578 5.43727 4.65641 4.98647C5.01705 4.53567 5.66023 4.47477 6.09299 4.85043L9.02908 7.39912C10.2979 8.50057 11.1788 9.26273 11.9226 9.76097C12.6424 10.2433 13.1307 10.4053 13.6 10.4053C14.0693 10.4053 14.5576 10.2433 15.2774 9.76097C16.0212 9.26273 16.9021 8.50057 18.171 7.39912L21.1071 4.85043C21.5398 4.47477 22.183 4.53567 22.5436 4.98647Z" fill="#00B3AC"/>
</svg>
