<svg width="32" height="32" viewBox="0 0 32 32" fill="none" xmlns="http://www.w3.org/2000/svg">
<path d="M16 9.333C14.1613 9.333 12.6666 10.8277 12.6666 12.6663C12.6666 14.277 13.8133 15.6237 15.3333 15.933V20.6663C15.3333 21.0343 15.632 21.333 16 21.333C16.368 21.333 16.6666 21.0343 16.6666 20.6663V15.933C18.1866 15.6237 19.3333 14.277 19.3333 12.6663C19.3333 10.8277 17.8386 9.333 16 9.333ZM16 14.6663C14.8973 14.6663 14 13.769 14 12.6663C14 11.5637 14.8973 10.6663 16 10.6663C17.1026 10.6663 18 11.5637 18 12.6663C18 13.769 17.1026 14.6663 16 14.6663ZM25.0186 2.95433L16.2093 0.033C16.0733 -0.011 15.9253 -0.011 15.7906 0.033L6.98264 2.953C4.4013 3.81033 2.66797 6.21033 2.66797 8.929V15.9103C2.66797 24.7223 12.2133 30.1797 15.14 31.6437C15.14 31.6437 15.5653 31.9983 16.0053 31.9983C16.4453 31.9983 16.8413 31.713 16.8413 31.713C19.772 30.5343 29.3346 25.9117 29.3346 15.9103V8.929C29.3346 6.209 27.6 3.80767 25.02 2.953L25.0186 2.95433ZM28 15.913C28 25.0783 19.0773 29.3783 16.3413 30.4783L16.0333 30.6037L15.7346 30.4543C12.9826 29.0783 3.99997 23.9623 3.99997 15.9143V8.933C3.99997 6.79033 5.36664 4.897 7.4013 4.22233L16 1.37033L24.5986 4.22233C26.632 4.897 28 6.79033 28 8.933V15.913Z" fill="#004370"/>
</svg>
