<svg width="24" height="24" viewBox="0 0 24 24" fill="none" xmlns="http://www.w3.org/2000/svg">
<g clip-path="url(#clip0_482_110621)">
<path d="M19 24.0025H5C2.243 24.0025 0 21.7595 0 19.0025V9.72655C0 8.06155 0.824 6.51155 2.204 5.58155L9.203 0.857547C10.902 -0.288453 13.098 -0.288453 14.797 0.857547L21.797 5.58155C23.176 6.51155 24 8.06055 24 9.72655V19.0025C24 21.7595 21.757 24.0025 19 24.0025ZM12 1.99955C11.416 1.99955 10.832 2.17155 10.322 2.51655L3.322 7.23955C2.494 7.79755 2 8.72655 2 9.72555V19.0015C2 20.6555 3.346 22.0015 5 22.0015H19C20.654 22.0015 22 20.6555 22 19.0015V9.72655C22 8.72755 21.506 7.79755 20.679 7.24055L13.678 2.51655C13.168 2.17155 12.584 1.99955 12 1.99955Z" fill="#004370"/>
</g>
<defs>
<clipPath id="clip0_482_110621">
<rect width="24" height="24" fill="white"/>
</clipPath>
</defs>
</svg>
