<svg width="24" height="24" viewBox="0 0 24 24" fill="none" xmlns="http://www.w3.org/2000/svg">
<path d="M18.572 2.126L12.313 0.051C12.11 -0.017 11.887 -0.017 11.684 0.051L5.42505 2.126C3.37505 2.806 1.99805 4.713 1.99805 6.872V12.043C1.99805 18.606 9.00305 22.62 11.15 23.693C11.15 23.693 11.58 24 12 24C12.42 24 12.791 23.76 12.791 23.76C14.951 22.891 21.998 19.479 21.998 12.043V6.872C21.998 4.713 20.622 2.806 18.572 2.126ZM19.999 12.043C19.999 18.225 13.911 21.154 12.046 21.904C10.157 20.96 3.99905 17.46 3.99905 12.043V6.872C3.99905 5.577 4.82505 4.433 6.05505 4.024L11.999 2.053L17.943 4.024C19.172 4.432 19.999 5.577 19.999 6.872V12.043ZM14.499 9.5C14.499 10.525 13.882 11.406 12.999 11.791V15C12.999 15.553 12.552 16 11.999 16C11.446 16 10.999 15.553 10.999 15V11.791C10.116 11.405 9.49905 10.525 9.49905 9.5C9.49905 8.119 10.618 7 11.999 7C13.38 7 14.499 8.119 14.499 9.5Z" fill="#004370"/>
</svg>
