<svg width="23" height="24" viewBox="0 0 23 24" fill="none" xmlns="http://www.w3.org/2000/svg">
<path d="M22.7653 16.2021L20.1653 6.83113C19.6101 4.82654 18.4003 3.06527 16.7286 1.82761C15.0568 0.589958 13.0191 -0.0529508 10.9397 0.00120891C8.86039 0.0553686 6.85892 0.803484 5.25385 2.12649C3.64878 3.44949 2.53235 5.27136 2.08226 7.30213L0.0712631 16.3521C-0.0260442 16.7906 -0.0236707 17.2453 0.0782085 17.6827C0.180088 18.1201 0.378873 18.529 0.659898 18.8793C0.940923 19.2297 1.29702 19.5124 1.70191 19.7067C2.1068 19.9011 2.55015 20.002 2.99926 20.0021H6.60626C6.83578 21.1324 7.44899 22.1486 8.34201 22.8785C9.23502 23.6084 10.3529 24.0071 11.5063 24.0071C12.6596 24.0071 13.7775 23.6084 14.6705 22.8785C15.5635 22.1486 16.1768 21.1324 16.4063 20.0021H19.8763C20.3384 20.0019 20.7942 19.895 21.2082 19.6896C21.6221 19.4842 21.983 19.186 22.2628 18.8182C22.5425 18.4504 22.7335 18.0229 22.8208 17.5691C22.9082 17.1153 22.8885 16.6475 22.7653 16.2021ZM11.5063 22.0021C10.888 21.9996 10.2856 21.806 9.78156 21.448C9.2775 21.09 8.89635 20.585 8.69026 20.0021H14.3223C14.1162 20.585 13.735 21.09 13.231 21.448C12.7269 21.806 12.1245 21.9996 11.5063 22.0021ZM20.6713 17.6071C20.578 17.7308 20.457 17.8309 20.3181 17.8995C20.1792 17.9681 20.0262 18.0033 19.8713 18.0021H2.99926C2.84952 18.0021 2.7017 17.9684 2.56671 17.9037C2.43172 17.8389 2.313 17.7446 2.21932 17.6278C2.12564 17.5109 2.05938 17.3746 2.02545 17.2287C1.99152 17.0829 1.99077 16.9313 2.02326 16.7851L4.03426 7.73513C4.38862 6.14133 5.26557 4.71173 6.52572 3.67357C7.78587 2.63542 9.35689 2.0483 10.989 2.00554C12.6212 1.96278 14.2208 2.46684 15.5336 3.43759C16.8463 4.40835 17.797 5.79007 18.2343 7.36313L20.8343 16.7341C20.8767 16.8823 20.8841 17.0383 20.8558 17.1899C20.8275 17.3414 20.7643 17.4842 20.6713 17.6071Z" fill="#004370"/>
</svg>
