<svg width="16" height="17" viewBox="0 0 16 17" fill="none" xmlns="http://www.w3.org/2000/svg">
<path d="M14.6286 7.25786C14.6286 5.9953 14.6282 5.07578 14.5911 4.41772C14.5725 4.08927 14.5463 3.84768 14.5116 3.67363C14.4752 3.49119 14.4399 3.43946 14.4438 3.44461C14.4511 3.4547 14.4182 3.40836 14.2536 3.31606C14.0984 3.22908 13.8743 3.12797 13.5616 3.00531C12.9348 2.75948 12.0409 2.46345 10.8107 2.05689L10.3455 1.90279C9.02798 1.46738 8.51726 1.30769 8 1.30769C7.48274 1.30769 6.972 1.46739 5.65446 1.90279L5.18929 2.05689C3.95907 2.46345 3.06519 2.75948 2.43839 3.00531C2.12565 3.12797 1.90155 3.22908 1.74643 3.31606C1.58179 3.40836 1.54892 3.45469 1.55625 3.44461C1.56002 3.4395 1.5248 3.49126 1.48839 3.67363C1.45365 3.84767 1.42745 4.08927 1.40893 4.41772C1.37182 5.07578 1.37143 5.99529 1.37143 7.25786V8.49319C1.37143 12.5177 4.48572 14.4984 6.56964 15.3773C6.8727 15.5051 7.0412 15.5747 7.22768 15.6208C7.40409 15.6644 7.6228 15.6923 8 15.6923C8.37721 15.6923 8.59591 15.6644 8.77232 15.6208C8.9588 15.5747 9.1273 15.5051 9.43036 15.3773C11.5143 14.4984 14.6286 12.5177 14.6286 8.49319V7.25786ZM16 8.49319C16 13.316 12.2238 15.6292 9.98482 16.5735C9.70182 16.6928 9.43053 16.8093 9.11696 16.8868C8.7932 16.9668 8.45091 17 8 17C7.54909 17 7.2068 16.9668 6.88304 16.8868C6.56947 16.8093 6.29819 16.6928 6.01518 16.5735C3.7762 15.6292 6.74693e-08 13.316 6.74693e-08 8.49319V7.25786C6.74693e-08 6.01161 -0.00030083 5.04893 0.0392858 4.34706C0.0591128 3.99564 0.0904284 3.68748 0.141964 3.42929C0.191332 3.18199 0.270297 2.91741 0.428571 2.69967C0.589301 2.47858 0.824702 2.31617 1.05179 2.18885C1.28825 2.05631 1.57992 1.92737 1.91607 1.79552C2.5877 1.5321 3.52702 1.22248 4.74018 0.821564L5.20536 0.667468C6.43527 0.261016 7.19841 0 8 0C8.80159 0 9.56472 0.261017 10.7946 0.667468L11.2598 0.821564C12.473 1.22248 13.4123 1.5321 14.0839 1.79552C14.4201 1.92737 14.7118 2.05631 14.9482 2.18885C15.1753 2.31617 15.4107 2.47857 15.5714 2.69967C15.7297 2.91741 15.8087 3.18198 15.858 3.42929C15.9096 3.68747 15.9409 3.99565 15.9607 4.34706C16.0003 5.04893 16 6.01161 16 7.25786V8.49319Z" fill="#004370"/>
<path d="M8.98275 6.1574C8.98275 5.63988 8.54277 5.22035 8.00003 5.22035C7.4573 5.22035 7.01732 5.63988 7.01732 6.1574C7.01732 6.67491 7.4573 7.09444 8.00003 7.09444C8.54277 7.09444 8.98275 6.67491 8.98275 6.1574ZM10.162 6.1574C10.162 7.29593 9.19406 8.21889 8.00003 8.21889C6.80601 8.21889 5.83807 7.29593 5.83807 6.1574C5.83807 5.01887 6.80601 4.0959 8.00003 4.0959C9.19406 4.0959 10.162 5.01887 10.162 6.1574Z" fill="#004370"/>
<path d="M10.5553 10.8426C10.5553 10.7563 10.4665 10.5269 9.96029 10.2855C9.48916 10.0609 8.79692 9.90556 8.00024 9.90556C7.20354 9.90556 6.51131 10.0609 6.04019 10.2855C5.53394 10.5269 5.44518 10.7563 5.44518 10.8426C5.44518 11.2955 5.47534 11.3653 5.59413 11.4473C5.69007 11.5135 5.8879 11.6022 6.28663 11.6706C6.68089 11.7382 7.23198 11.7796 8.00024 11.7796C8.76849 11.7796 9.31959 11.7382 9.71384 11.6706C10.1126 11.6022 10.3104 11.5135 10.4063 11.4473C10.5251 11.3653 10.5553 11.2955 10.5553 10.8426ZM11.7345 10.8426C11.7345 11.2175 11.7646 11.8974 11.0973 12.358C10.8002 12.563 10.4083 12.6941 9.92267 12.7774C9.43248 12.8615 8.80432 12.9041 8.00024 12.9041C7.19616 12.9041 6.56799 12.8615 6.07781 12.7774C5.59214 12.6941 5.20029 12.563 4.90316 12.358C4.23592 11.8974 4.26593 11.2175 4.26593 10.8426C4.26593 10.101 4.88104 9.58086 5.51275 9.27965C6.17977 8.96164 7.06017 8.78111 8.00024 8.78111C8.94029 8.78111 9.8207 8.96164 10.4877 9.27965C11.1194 9.58086 11.7345 10.101 11.7345 10.8426Z" fill="#004370"/>
</svg>
