<svg width="20" height="20" viewBox="0 0 20 20" fill="none" xmlns="http://www.w3.org/2000/svg">
<path d="M15 8.5C15 4.91015 12.0899 2 8.5 2C4.91015 2 2 4.91015 2 8.5C2 12.0899 4.91015 15 8.5 15C12.0899 15 15 12.0899 15 8.5ZM17 8.5C17 13.1944 13.1944 17 8.5 17C3.80558 17 0 13.1944 0 8.5C0 3.80558 3.80558 0 8.5 0C13.1944 0 17 3.80558 17 8.5Z" fill="#00B3AC"/>
<path d="M13.1395 13.2508C13.5284 12.8588 14.1615 12.8561 14.5536 13.245L19.4139 18.0682C19.806 18.4572 19.8088 19.0902 19.4198 19.4823C19.0308 19.8741 18.3977 19.8761 18.0057 19.4872L13.1454 14.6649C12.7534 14.2759 12.7507 13.6429 13.1395 13.2508Z" fill="#00B3AC"/>
</svg>
