<svg width="56" height="56" viewBox="0 0 56 56" fill="none" xmlns="http://www.w3.org/2000/svg">
<path d="M55.6593 54.0073L40.6117 38.9597C44.3613 34.818 46.669 29.3463 46.669 23.3333C46.6667 10.4673 36.1993 0 23.3333 0C10.4673 0 0 10.4673 0 23.3333C0 36.1993 10.4673 46.6667 23.3333 46.6667C29.3463 46.6667 34.818 44.3613 38.9597 40.6093L54.0073 55.657C54.236 55.8857 54.5347 55.9977 54.8333 55.9977C55.132 55.9977 55.4307 55.8833 55.6593 55.657C56.1143 55.202 56.1143 54.4623 55.6593 54.0073ZM2.33333 23.3333C2.33333 11.7553 11.7553 2.33333 23.3333 2.33333C34.9113 2.33333 44.3333 11.7553 44.3333 23.3333C44.3333 34.9113 34.9137 44.3333 23.3333 44.3333C11.753 44.3333 2.33333 34.9113 2.33333 23.3333Z" fill="#303030"/>
</svg>
