<svg width="18" height="18" viewBox="0 0 18 18" fill="none" xmlns="http://www.w3.org/2000/svg">
<path d="M8.18778 0.0880122C8.7677 -0.0472193 9.35865 -0.0150295 10.0358 0.106042C10.7045 0.225621 11.5189 0.444135 12.5482 0.719946C13.5772 0.995684 14.3911 1.21308 15.03 1.44383C15.5961 1.64835 16.0713 1.87847 16.4723 2.20558L16.6391 2.35252L16.8681 2.58239C17.3795 3.13785 17.7397 3.81772 17.912 4.55662C18.0472 5.13662 18.015 5.72743 17.894 6.40465C17.7744 7.07331 17.5558 7.88696 17.2801 8.91616L16.8023 10.7002C16.5266 11.7292 16.3091 12.5431 16.0784 13.1819C15.8447 13.8289 15.5767 14.3564 15.1697 14.7911C14.651 15.3449 13.9991 15.7539 13.2784 15.9792L12.9656 16.064C12.9109 16.0767 12.8559 16.0874 12.8006 16.0973C12.4799 16.3244 12.1329 16.4871 11.7107 16.6328C11.1535 16.8251 10.4082 17.0082 9.39395 17.28C8.36475 17.5558 7.5511 17.7744 6.88244 17.8939C6.20522 18.015 5.61441 18.0472 5.03442 17.912C4.19011 17.7151 3.42301 17.2726 2.83031 16.64C2.42325 16.2053 2.15534 15.677 1.92162 15.03C1.69088 14.3911 1.47347 13.5773 1.19774 12.5482L0.719958 10.7642C0.444185 9.73498 0.225622 8.92133 0.106053 8.25267C-0.0150458 7.57545 -0.0472131 6.98466 0.0880238 6.40465C0.284974 5.5602 0.728006 4.79331 1.36091 4.20054C1.79557 3.79345 2.32303 3.52558 2.97004 3.29185C3.55666 3.07996 4.29098 2.87958 5.20389 2.63468C5.41345 2.1278 5.65701 1.70971 5.98367 1.36089C6.57638 0.728038 7.34336 0.284988 8.18778 0.0880122ZM4.68825 4.21136C4.19022 4.35008 3.7834 4.47067 3.44061 4.59449C2.87812 4.79768 2.54782 4.986 2.30746 5.21109C1.87437 5.61672 1.57046 6.14143 1.43573 6.71926C1.36097 7.04 1.36381 7.42054 1.46908 8.00927C1.57591 8.60651 1.77582 9.35413 2.05775 10.4063L2.53553 12.1894C2.81746 13.2416 3.01814 13.9887 3.22426 14.5594C3.42731 15.1215 3.61506 15.4522 3.83996 15.6925C4.2456 16.1256 4.77121 16.4296 5.34903 16.5643C5.66977 16.639 6.05027 16.6362 6.63904 16.5309C7.2363 16.4241 7.98388 16.2251 9.03606 15.9432C9.31197 15.8692 9.56043 15.8027 9.78609 15.743C9.42742 15.6511 9.03559 15.5471 8.60606 15.432C7.57675 15.1562 6.76231 14.9389 6.1234 14.7081C5.47636 14.4744 4.94894 14.2066 4.51427 13.7994C3.88138 13.2067 3.43833 12.4398 3.24138 11.5953C3.10615 11.0153 3.13832 10.4245 3.25941 9.74732C3.37898 9.07866 3.59755 8.26499 3.87332 7.23581L4.3511 5.45179C4.43118 5.15291 4.50632 4.87356 4.57737 4.61342C4.61505 4.47548 4.65179 4.34146 4.68825 4.21136ZM9.7924 1.46907C9.20358 1.36378 8.82309 1.36093 8.50239 1.43572C7.92453 1.57047 7.39979 1.8744 6.99422 2.30744C6.59175 2.73727 6.34413 3.40142 5.91335 4.97851C5.84335 5.23482 5.76917 5.51097 5.68889 5.81058L5.21111 7.59369C4.92917 8.64587 4.72926 9.39347 4.62244 9.99071C4.51716 10.5795 4.5152 10.96 4.58999 11.2807L4.64768 11.4953C4.8019 11.9883 5.08196 12.4341 5.46081 12.7889C5.70119 13.014 6.03139 13.2023 6.59397 13.4055C7.16465 13.6116 7.91164 13.8131 8.96395 14.0951C9.91049 14.3487 10.6121 14.5361 11.1825 14.6495C11.7503 14.7624 12.1359 14.7904 12.4518 14.7514C12.52 14.743 12.5868 14.7312 12.651 14.7162C13.2287 14.5815 13.7535 14.2776 14.1591 13.8445C14.3842 13.6041 14.5726 13.2738 14.7758 12.7114C14.9819 12.1407 15.1826 11.3936 15.4645 10.3414L15.9432 8.55827C16.2251 7.50613 16.4241 6.75849 16.5309 6.16125C16.6362 5.57251 16.639 5.19197 16.5643 4.87124C16.4296 4.29341 16.1256 3.7687 15.6926 3.36307C15.4522 3.13817 15.1215 2.94953 14.5594 2.74646C13.9887 2.54034 13.2416 2.33967 12.1894 2.05773C11.1371 1.77578 10.3897 1.57589 9.7924 1.46907ZM8.29325 9.05769C8.39228 8.68849 8.77229 8.4693 9.14154 8.56819L11.8162 9.28486C12.1856 9.38381 12.4047 9.76381 12.3057 10.1331C12.2067 10.5023 11.8276 10.7215 11.4583 10.6226L8.78365 9.90598C8.41431 9.80702 8.19429 9.42703 8.29325 9.05769ZM8.62048 6.75622C8.71946 6.38707 9.09868 6.168 9.46787 6.26672L13.9266 7.46118C14.2959 7.56015 14.515 7.94013 14.4161 8.30946C14.317 8.67869 13.9371 8.89791 13.5678 8.79896L9.10999 7.60451C8.74065 7.50555 8.52152 7.12556 8.62048 6.75622Z" fill="#004370"/>
</svg>
