<svg width="22" height="24" viewBox="0 0 22 24" fill="none" xmlns="http://www.w3.org/2000/svg">
<path d="M0 5.16745C0 4.59668 0.406919 4.13398 0.908881 4.13398L4.04782 4.13342C4.67149 4.11544 5.2217 3.66452 5.43391 2.99742C5.4395 2.97988 5.44591 2.95825 5.46892 2.87975L5.60417 2.41828C5.68694 2.13534 5.75904 1.88883 5.85995 1.6685C6.25858 0.798052 6.99611 0.1936 7.84839 0.0388465C8.06411 -0.000327833 8.29259 -0.000162607 8.55486 2.57436e-05H12.6526C12.9148 -0.000162607 13.1433 -0.000327833 13.359 0.0388465C14.2113 0.1936 14.9488 0.798052 15.3474 1.6685C15.4484 1.88883 15.5205 2.13534 15.6032 2.41828L15.7384 2.87975C15.7614 2.95825 15.7679 2.97988 15.7734 2.99742C15.9857 3.66452 16.645 4.116 17.2686 4.13398H20.2983C20.8002 4.13398 21.2072 4.59668 21.2072 5.16745C21.2072 5.73823 20.8002 6.20093 20.2983 6.20093H0.908881C0.406919 6.20093 0 5.73823 0 5.16745Z" fill="#FF4242"/>
<path fill-rule="evenodd" clip-rule="evenodd" d="M10.1272 23.5633H11.0801C14.3586 23.5633 15.998 23.5633 17.0637 22.5196C18.1296 21.4757 18.2386 19.7636 18.4567 16.3393L18.7709 11.4053C18.8893 9.54727 18.9485 8.61829 18.4137 8.0296C17.879 7.44092 16.9761 7.44092 15.1703 7.44092H6.03711C4.23124 7.44092 3.3283 7.44092 2.79361 8.0296C2.25892 8.61829 2.31808 9.54727 2.43642 11.4053L2.75065 16.3393C2.96874 19.7636 3.07778 21.4757 4.14361 22.5196C5.20943 23.5633 6.8487 23.5633 10.1272 23.5633ZM14.4284 12.1887C14.4769 11.6775 14.1227 11.2218 13.637 11.1707C13.1515 11.1195 12.7184 11.4924 12.6698 12.0037L12.0808 18.2045C12.0322 18.7157 12.3865 19.1716 12.8721 19.2226C13.3577 19.2737 13.7908 18.9008 13.8393 18.3896L14.4284 12.1887ZM7.57031 11.1707C8.05591 11.1195 8.48897 11.4924 8.53751 12.0037L9.1266 18.2045C9.17514 18.7157 8.82086 19.1716 8.33522 19.2226C7.84966 19.2737 7.41664 18.9008 7.36808 18.3896L6.77899 12.1887C6.73044 11.6775 7.08471 11.2218 7.57031 11.1707Z" fill="#FF4242"/>
</svg>
