<svg width="24" height="24" viewBox="0 0 24 24" fill="none" xmlns="http://www.w3.org/2000/svg">
<path fill-rule="evenodd" clip-rule="evenodd" d="M0 12C0 17.6569 0 20.4853 1.75736 22.2426C3.51472 24 6.34314 24 12 24C17.6568 24 20.4853 24 22.2426 22.2426C24 20.4853 24 17.6569 24 12C24 6.3432 24 3.51468 22.2426 1.7574C20.4853 0 17.6568 0 12 0C6.34314 0 3.51472 0 1.75736 1.7574C0 3.51468 0 6.3432 0 12ZM12 18.9C12.497 18.9 12.9 18.4971 12.9 18V11.7728L14.9636 13.8364C15.3151 14.1878 15.8849 14.1878 16.2364 13.8364C16.5878 13.4849 16.5878 12.9151 16.2364 12.5636L12.6364 8.96364C12.4676 8.7948 12.2387 8.7 12 8.7C11.7613 8.7 11.5324 8.7948 11.3636 8.96364L7.7636 12.5636C7.41214 12.9151 7.41214 13.4849 7.7636 13.8364C8.11507 14.1878 8.68493 14.1878 9.0364 13.8364L11.1 11.7728V18C11.1 18.4971 11.503 18.9 12 18.9ZM7.2 6.9C6.70295 6.9 6.3 6.49704 6.3 6C6.3 5.50296 6.70295 5.1 7.2 5.1H16.8C17.297 5.1 17.7 5.50296 17.7 6C17.7 6.49704 17.297 6.9 16.8 6.9H7.2Z" fill="#00B3AC"/>
</svg>
