<svg width="17" height="17" viewBox="0 0 17 17" fill="none" xmlns="http://www.w3.org/2000/svg">
<path d="M11.7666 7.43343C9.37731 7.43343 7.43331 9.37743 7.43331 11.7668C7.43331 14.1561 9.37731 16.1001 11.7666 16.1001C14.156 16.1001 16.1 14.1561 16.1 11.7668C16.1 9.37743 14.156 7.43343 11.7666 7.43343ZM11.7666 15.4334C9.74464 15.4334 8.09998 13.7888 8.09998 11.7668C8.09998 9.74476 9.74464 8.1001 11.7666 8.1001C13.7886 8.1001 15.4333 9.74476 15.4333 11.7668C15.4333 13.7888 13.7886 15.4334 11.7666 15.4334ZM7.09998 15.4334H2.43331C1.51464 15.4334 0.766642 14.6854 0.766642 13.7668C0.766642 12.8481 1.51464 12.1001 2.43331 12.1001H5.76664C5.95064 12.1001 6.09998 11.9508 6.09998 11.7668C6.09998 11.5828 5.95064 11.4334 5.76664 11.4334H3.43331V0.766764H10.4333C11.72 0.766764 12.7666 1.81343 12.7666 3.1001V5.76676C12.7666 5.95076 12.916 6.1001 13.1 6.1001C13.284 6.1001 13.4333 5.95076 13.4333 5.76676V3.1001C13.4333 1.4461 12.0873 0.100098 10.4333 0.100098H3.09998C1.44598 0.100098 0.0999756 1.4461 0.0999756 3.1001V13.7668C0.0999756 15.0534 1.14664 16.1001 2.43331 16.1001H7.09998C7.28398 16.1001 7.43331 15.9508 7.43331 15.7668C7.43331 15.5828 7.28398 15.4334 7.09998 15.4334ZM0.766642 3.1001C0.766642 1.9281 1.63864 0.964098 2.76664 0.800764V11.4334H2.43331C1.77998 11.4334 1.19064 11.7048 0.766642 12.1388V3.1001ZM12.1 11.7668V13.7668C12.1 13.9508 11.9506 14.1001 11.7666 14.1001C11.5826 14.1001 11.4333 13.9508 11.4333 13.7668V11.7668C11.4333 11.5828 11.5826 11.4334 11.7666 11.4334C11.9506 11.4334 12.1 11.5828 12.1 11.7668ZM12.4333 10.1001C12.4333 10.4681 12.1346 10.7668 11.7666 10.7668C11.3986 10.7668 11.1 10.4681 11.1 10.1001C11.1 9.7321 11.3986 9.43343 11.7666 9.43343C12.1346 9.43343 12.4333 9.7321 12.4333 10.1001Z" fill="#303030" stroke="#303030" stroke-width="0.2"/>
</svg>
