<svg width="381" height="402" viewBox="0 0 381 402" fill="none" xmlns="http://www.w3.org/2000/svg">
<path d="M0 100.071C7.70855 234.419 70.5456 337.75 185.252 402C184.05 283.234 171.206 277.275 105.549 188.919L82.2994 158.553C78.4901 171.882 80.6364 187.228 92.2666 205.788C158.036 298.288 107.897 310.117 62.3763 249.641C23.3391 208.141 25.9798 114.364 0 100.071Z" fill="white"/>
<path d="M381 100.071C373.291 234.419 310.465 337.75 195.759 402C197.096 269.176 232.874 253.528 300.667 157.646C304.476 170.975 300.363 187.228 288.744 205.788C222.975 298.288 273.114 310.117 318.635 249.641C357.672 208.141 355.02 114.364 381 100.071Z" fill="white"/>
<path fill-rule="evenodd" clip-rule="evenodd" d="M243.292 0.200827C244.607 -0.000794885 245.933 -0.0456025 247.259 0.0440073C254.08 0.536861 259.957 4.81573 264.159 10.0579C269.272 16.4314 272.362 24.5859 273.565 32.6732C274.778 40.7493 274.205 49.4638 271.182 57.0919C268.688 63.3645 264.328 69.2116 257.957 71.7431C256.72 72.2247 255.439 72.5832 254.125 72.7848C252.81 72.9864 251.484 73.0424 250.158 72.9416C243.337 72.4487 237.472 68.1699 233.258 62.9277C228.145 56.5542 225.055 48.3997 223.852 40.3236C222.65 32.2363 223.212 23.5218 226.246 15.8937C228.74 9.62106 233.089 3.76281 239.472 1.24253C240.708 0.76088 241.989 0.402449 243.292 0.200827ZM251.596 15.5913C255.35 14.9752 259.08 16.3866 262.272 19.2429C258.799 12.7014 253.585 7.17918 246.798 6.68633C245.955 6.63032 245.113 6.66393 244.281 6.78714C243.45 6.92156 242.629 7.14558 241.843 7.44802C230.876 11.7941 228.808 29.1112 230.336 39.3267C231.853 49.531 238.876 65.4592 250.619 66.2993C251.462 66.3553 252.304 66.3217 253.136 66.1985C253.979 66.064 254.788 65.84 255.574 65.5376C257.103 64.9327 258.451 64.0702 259.653 63.0285C259.294 63.1256 258.93 63.204 258.563 63.2637C249.855 64.7087 241.236 55.1989 239.314 42.0374C237.382 28.876 242.888 17.0363 251.596 15.5913Z" fill="#F0F0F0"/>
<path d="M181.759 103.71C169.458 102.224 162.731 93.5091 161.577 77.566C162.731 61.623 169.458 52.9084 181.759 51.4224C194.067 52.9084 200.794 61.623 201.94 77.566C200.794 93.5091 194.067 102.224 181.759 103.71Z" fill="#F0F0F0"/>
<path d="M133.944 217.85L92.5359 166.369C94.1091 100.931 144.99 103.541 154.272 134.669C157.283 144.762 134.821 184.358 133.944 217.85Z" fill="#F0F0F0"/>
<path d="M224.166 168.396L236.021 240.387C251.843 206.032 274.586 192.423 287.778 166.683C278.935 97.6942 214.828 111.729 224.166 168.396Z" fill="#F0F0F0"/>
<path d="M26.0703 73.9305L25.9804 118.007L5.20325 96.1425L7.58548 59.3353L102.043 28.0391V47.854L26.0703 73.9305Z" fill="white"/>
<path d="M354.75 73.9305L354.84 118.007L375.629 96.1425L373.235 59.3353L278.777 28.0391V47.854L354.75 73.9305Z" fill="white"/>
<path d="M26.9005 122.786C30.384 182.847 49.116 225.915 78.0961 261.916C59.8585 223.014 76.3993 164.297 53.7456 156.199L56.2177 210.021C43.8121 188.57 46.7562 134.11 26.9005 122.786Z" fill="white"/>
<path d="M354.11 122.786C350.627 182.847 331.895 225.915 302.903 261.916C321.141 223.014 304.6 164.297 327.254 156.199L324.793 210.021C337.199 188.57 334.255 134.11 354.11 122.786Z" fill="white"/>
<path d="M215.334 18.3931V36.8527H155.498V18.3931H215.334Z" fill="white"/>
<path fill-rule="evenodd" clip-rule="evenodd" d="M129.922 14.3276C131.247 14.3276 132.562 14.4733 133.843 14.7645C140.473 16.2879 145.608 21.3732 148.968 27.153C153.058 34.1874 154.89 42.6555 154.89 50.7652C154.89 58.8861 153.058 67.3542 148.968 74.3886C145.608 80.1684 140.473 85.2538 133.843 86.7772C132.562 87.0684 131.247 87.214 129.922 87.214C128.607 87.214 127.292 87.0684 126.011 86.7772C119.381 85.265 114.246 80.1684 110.886 74.3886C106.796 67.3542 104.953 58.8861 104.953 50.7652C104.953 42.6555 106.796 34.1874 110.886 27.153C114.246 21.362 119.381 16.2767 126.011 14.7645C127.292 14.4733 128.607 14.3276 129.922 14.3276ZM132.866 32.0032C139.664 32.0032 145.507 37.8502 148.125 46.2623C147.608 40.8633 146.159 35.4419 143.541 30.7934C141.102 26.4474 137.27 22.2581 132.248 21.2276C131.483 21.0708 130.708 20.9812 129.922 20.9812C129.146 20.9812 128.371 21.0708 127.607 21.2276C122.584 22.2581 118.752 26.4474 116.302 30.7934C112.965 36.7413 111.515 43.9773 111.515 50.7652C111.515 57.5644 112.965 64.8004 116.302 70.737C118.752 75.0943 122.584 79.2835 127.607 80.3141C128.371 80.4709 129.146 80.5605 129.922 80.5605C130.708 80.5605 131.483 80.4709 132.248 80.3141C132.367 80.2917 132.487 80.2655 132.607 80.2357C123.494 80.034 116.156 69.3145 116.156 56.1194C116.156 42.8012 123.64 32.0032 132.866 32.0032Z" fill="#F0F0F0"/>
<path fill-rule="evenodd" clip-rule="evenodd" d="M187.185 122.18C196.41 107.742 208.917 94.9165 224.469 87.8709C237.324 82.0462 251.786 80.5677 265.136 85.597C277.238 90.1559 286.486 99.3297 292.43 110.923C300.049 125.776 301.937 141.144 300.667 157.643L294.846 165.798C296.195 151.729 293.363 127.68 287.183 115.034C282.014 104.449 273.855 95.9806 262.888 91.8473C251.146 87.4228 238.403 88.8454 227.11 93.9644C212.131 100.741 200.197 113.477 191.59 127.501L190.005 130.066C197.04 144.74 203.242 160.253 207.22 176.036C210.075 187.349 211.996 199.726 211.142 211.432C210.591 218.914 208.794 227.091 204.434 233.296C201.276 237.799 196.77 241.148 191.219 241.608C185.185 242.112 179.746 239.065 175.723 234.697C170.251 228.76 167.262 220.482 165.868 212.597C163.767 200.746 164.812 188.055 167.228 176.349C170.588 159.984 176.881 143.933 184.319 129.013L183.533 128.05C169.442 110.789 147.867 99.3521 125.741 106.084C99.8738 113.959 87.3558 141.57 89.0189 167.4L82.2992 158.551L82.3554 157.946C83.5353 143.989 88.0188 131.052 96.278 119.738C103.245 110.206 112.718 103.105 123.91 99.6994C134.776 96.395 146.327 96.9215 157.025 100.674C168.846 104.83 179.004 112.614 187.185 122.18ZM186.87 138.915C182.859 147.652 179.33 156.702 176.6 165.943C172.375 180.292 169.678 196.512 172.318 211.409C173.487 217.984 175.948 225.198 180.51 230.149C183.117 232.983 186.724 235.301 190.68 234.965C193.118 234.764 195.163 233.711 196.871 232.109C183.589 233.274 168.284 206.469 194.152 156.422C191.938 150.497 189.488 144.661 186.87 138.915Z" fill="#F0F0F0"/>
</svg>
