<svg width="158" height="50" viewBox="0 0 158 50" fill="none" xmlns="http://www.w3.org/2000/svg">
<path d="M0 12.4463C0.955726 29.1562 8.74643 42.0083 22.9681 49.9997C22.819 35.2277 21.2266 34.4865 13.0862 23.4971L10.2037 19.7201C9.73141 21.378 9.99751 23.2867 11.4395 25.5952C19.5938 37.1001 13.3774 38.5713 7.73358 31.0495C2.89365 25.8878 3.22105 14.224 0 12.4463Z" fill="#005179"/>
<path d="M47.2367 12.4463C46.281 29.1562 38.4917 42.0083 24.27 49.9997C24.4358 33.4792 28.8717 31.533 37.2768 19.6073C37.7491 21.2652 37.2392 23.2867 35.7986 25.5952C27.6443 37.1001 33.8607 38.5713 39.5045 31.0495C44.3445 25.8878 44.0157 14.224 47.2367 12.4463Z" fill="#005179"/>
<path fill-rule="evenodd" clip-rule="evenodd" d="M30.1639 0.0249785C30.3269 -9.88663e-05 30.4913 -0.00567196 30.6557 0.00547354C31.5014 0.0667738 32.23 0.598972 32.7511 1.25098C33.385 2.04371 33.7681 3.05795 33.9172 4.06383C34.0676 5.06832 33.9966 6.15222 33.6218 7.10098C33.3125 7.88116 32.772 8.60841 31.982 8.92327C31.8288 8.98317 31.67 9.02776 31.5069 9.05283C31.3439 9.07791 31.1796 9.08488 31.0152 9.07234C30.1695 9.01104 29.4422 8.47884 28.9198 7.82683C28.2859 7.03411 27.9028 6.01986 27.7537 5.01538C27.6046 4.00949 27.6743 2.92559 28.0505 1.97683C28.3597 1.19665 28.8989 0.468011 29.6902 0.154544C29.8435 0.0946369 30.0023 0.0500559 30.1639 0.0249785ZM31.1935 1.93922C31.6588 1.86259 32.1213 2.03813 32.517 2.3934C32.0865 1.57978 31.4401 0.892933 30.5986 0.831633C30.4941 0.824667 30.3896 0.828847 30.2865 0.844172C30.1834 0.86089 30.0817 0.888754 29.9842 0.92637C28.6244 1.46693 28.3681 3.62079 28.5576 4.89138C28.7457 6.16058 29.6164 8.14169 31.0723 8.24618C31.1768 8.25314 31.2813 8.24896 31.3843 8.23364C31.4888 8.21692 31.5891 8.18906 31.6867 8.15144C31.8761 8.07621 32.0433 7.96893 32.1924 7.83937C32.1478 7.85144 32.1028 7.86119 32.0573 7.86862C30.9775 8.04835 29.909 6.86553 29.6707 5.22853C29.4311 3.59154 30.1138 2.11894 31.1935 1.93922Z" fill="#4CD0CC"/>
<path d="M22.5351 12.8999C21.01 12.7151 20.176 11.6312 20.033 9.64818C20.176 7.66521 21.01 6.58131 22.5351 6.39648C24.0611 6.58131 24.8952 7.66521 25.0373 9.64818C24.8952 11.6312 24.0611 12.7151 22.5351 12.8999Z" fill="#4CD0CC"/>
<path d="M16.6061 27.0961L11.4722 20.693C11.6672 12.554 17.9756 12.8786 19.1263 16.7503C19.4997 18.0056 16.7147 22.9305 16.6061 27.0961Z" fill="#4CD0CC"/>
<path d="M27.7931 20.9443L29.2629 29.8984C31.2245 25.6254 34.0443 23.9327 35.6799 20.7312C34.5835 12.1505 26.6354 13.8962 27.7931 20.9443Z" fill="#4CD0CC"/>
<path d="M3.23266 9.19617L3.22151 14.6784L0.645508 11.9589L0.940864 7.38085L12.652 3.48828V5.95283L3.23266 9.19617Z" fill="#005179"/>
<path d="M43.9823 9.19617L43.9935 14.6784L46.5709 11.9589L46.2741 7.38085L34.563 3.48828V5.95283L43.9823 9.19617Z" fill="#005179"/>
<path d="M3.33594 15.2715C3.76783 22.7418 6.09027 28.0986 9.6833 32.5763C7.42216 27.7377 9.47293 20.4346 6.66426 19.4274L6.97076 26.1216C5.43268 23.4537 5.7977 16.68 3.33594 15.2715Z" fill="#005179"/>
<path d="M43.9034 15.2715C43.4716 22.7418 41.1491 28.0986 37.5547 32.5763C39.8158 27.7377 37.7651 20.4346 40.5737 19.4274L40.2686 26.1216C41.8067 23.4537 41.4417 16.68 43.9034 15.2715Z" fill="#005179"/>
<path d="M26.6985 2.28809V4.58406H19.2798V2.28809H26.6985Z" fill="#005179"/>
<path fill-rule="evenodd" clip-rule="evenodd" d="M16.1081 1.78223C16.2725 1.78223 16.4355 1.80034 16.5943 1.83656C17.4163 2.02603 18.053 2.65854 18.4696 3.37743C18.9767 4.25235 19.2038 5.3056 19.2038 6.31426C19.2038 7.32432 18.9767 8.37757 18.4696 9.2525C18.053 9.97138 17.4163 10.6039 16.5943 10.7934C16.4355 10.8296 16.2725 10.8477 16.1081 10.8477C15.9451 10.8477 15.7821 10.8296 15.6233 10.7934C14.8013 10.6053 14.1646 9.97138 13.7481 9.2525C13.2409 8.37757 13.0125 7.32432 13.0125 6.31426C13.0125 5.3056 13.2409 4.25235 13.7481 3.37743C14.1646 2.65715 14.8013 2.02464 15.6233 1.83656C15.7821 1.80034 15.9451 1.78223 16.1081 1.78223ZM16.4731 3.98067C17.316 3.98067 18.0405 4.70792 18.3651 5.7542C18.301 5.08269 18.1213 4.40838 17.7967 3.83021C17.4943 3.28966 17.0193 2.7686 16.3965 2.64043C16.3018 2.62092 16.2056 2.60978 16.1081 2.60978C16.012 2.60978 15.9159 2.62092 15.8211 2.64043C15.1984 2.7686 14.7233 3.28966 14.4196 3.83021C14.0058 4.56999 13.8261 5.46999 13.8261 6.31426C13.8261 7.15993 14.0058 8.05993 14.4196 8.79832C14.7233 9.34027 15.1984 9.86132 15.8211 9.98949C15.9159 10.009 16.012 10.0201 16.1081 10.0201C16.2056 10.0201 16.3018 10.009 16.3965 9.98949C16.4114 9.98671 16.4262 9.98345 16.4411 9.97974C15.3112 9.95466 14.4015 8.62138 14.4015 6.98021C14.4015 5.32371 15.3293 3.98067 16.4731 3.98067Z" fill="#4CD0CC"/>
<path fill-rule="evenodd" clip-rule="evenodd" d="M23.2079 15.1965C24.3517 13.4007 25.9023 11.8055 27.8305 10.9292C29.4243 10.2048 31.2173 10.0209 32.8724 10.6464C34.3729 11.2134 35.5195 12.3544 36.2565 13.7964C37.201 15.6438 37.4351 17.5552 37.2777 19.6074L36.556 20.6216C36.7232 18.8718 36.3721 15.8806 35.6058 14.3077C34.965 12.9911 33.9535 11.9379 32.5938 11.4238C31.1379 10.8735 29.558 11.0504 28.1579 11.6871C26.3007 12.53 24.8212 14.114 23.754 15.8583L23.5576 16.1774C24.4297 18.0024 25.1987 19.932 25.6919 21.895C26.0458 23.3021 26.284 24.8416 26.1781 26.2975C26.1099 27.2281 25.887 28.2451 25.3464 29.017C24.9549 29.577 24.3963 29.9936 23.708 30.0507C22.9599 30.1134 22.2856 29.7345 21.7868 29.1911C21.1083 28.4527 20.7377 27.4232 20.565 26.4424C20.3045 24.9684 20.434 23.3899 20.7336 21.934C21.1501 19.8986 21.9303 17.9021 22.8526 16.0464L22.7551 15.9266C21.008 13.7797 18.3331 12.3572 15.5899 13.1945C12.3828 14.1739 10.8308 17.6082 11.037 20.8208L10.2039 19.7202L10.2108 19.645C10.3571 17.9091 10.913 16.3 11.937 14.8928C12.8008 13.7072 13.9752 12.824 15.3628 12.4004C16.71 11.9894 18.1422 12.0549 19.4686 12.5216C20.9342 13.0385 22.1936 14.0068 23.2079 15.1965ZM23.1689 17.278C22.6715 18.3647 22.234 19.4904 21.8955 20.6397C21.3716 22.4244 21.0373 24.4417 21.3647 26.2947C21.5096 27.1125 21.8147 28.0097 22.3803 28.6255C22.7035 28.978 23.1507 29.2663 23.6412 29.2246C23.9435 29.1995 24.197 29.0685 24.4088 28.8693C22.762 29.0142 20.8645 25.6803 24.0716 19.4555C23.7972 18.7185 23.4935 17.9927 23.1689 17.278Z" fill="#4CD0CC"/>
<path d="M152.226 30.4611C151.544 30.3421 151.275 30.2792 150.958 30.174C150.552 30.0334 150.372 29.7452 150.372 29.0018C150.331 27.5619 150.331 25.4347 150.331 23.7502C150.331 21.8963 150.372 19.6502 150.372 18.2881C148.981 18.8496 146.508 19.2773 145.66 19.2991C145.537 19.4249 145.475 20.0219 145.557 20.1408C146.259 20.4359 146.646 20.5971 146.928 20.907C147.114 21.0889 147.148 21.4194 147.148 21.6298V29.0018C147.114 29.7452 147.031 30.0334 146.583 30.174C146.246 30.2998 145.881 30.3845 145.357 30.4611C145.234 30.5674 145.254 31.304 145.357 31.4309C145.963 31.4309 147.148 31.3463 148.658 31.3463C150.394 31.3463 151.461 31.4309 152.067 31.4309C152.226 31.304 152.288 30.588 152.226 30.4611Z" fill="#00507B"/>
<path d="M150.372 14.0535C150.372 13.7871 150.248 13.2747 150.069 13.0002C149.945 12.8813 149.525 12.6777 148.898 12.6777C148.257 12.6777 147.389 12.9865 147.052 13.3308C146.831 13.5412 146.831 14.2788 146.886 14.5236C147.031 15.1835 147.293 15.6547 147.796 15.9211C148.079 16.0481 149.401 15.9211 149.587 15.7599C150.048 15.387 150.372 14.6928 150.372 14.0535Z" fill="#00507B"/>
<path d="M143.28 20.5411C143.302 20.0436 143.459 19.1584 143.542 18.6666C142.936 18.7158 141.062 18.7936 139.987 18.7936C139.912 18.7936 139.829 18.6735 139.829 18.59C139.829 16.4274 139.891 14.9669 139.987 14.3562C139.85 14.3139 139.484 14.3562 139.367 14.37C138.94 14.7851 137.424 15.6691 136.702 15.9356V18.6529C136.66 18.7375 136.597 18.8565 136.536 18.8565C136.294 18.9617 135.613 19.1024 135.185 19.2282C135.082 19.4317 134.903 20.1488 134.903 20.373C135.385 20.3935 136.095 20.4359 136.515 20.5205C136.639 20.5411 136.702 20.6612 136.702 20.787C136.702 22.0793 136.66 24.9579 136.66 26.6219C136.66 28.5523 136.66 29.3735 137.101 30.1946C137.666 31.2056 138.72 31.6756 140.049 31.6756C141.261 31.6756 142.591 31.2479 143.418 30.1592C143.521 29.9705 143.542 29.2545 143.48 29.1276C142.894 29.4993 142.434 29.5839 141.682 29.5839C140.814 29.5839 140.174 29.1493 139.967 28.4117C139.829 27.8993 139.829 27.3023 139.787 26.0672C139.787 24.5427 139.787 22.0164 139.829 20.6612C139.829 20.6394 139.912 20.5205 139.967 20.5205C141.062 20.5205 142.434 20.5205 143.28 20.5411Z" fill="#00507B"/>
<path d="M119.256 20.0162C119.725 20.0722 120.249 20.1991 120.511 20.262C120.951 20.4027 121.013 20.795 121.055 21.3714C121.076 22.8524 121.055 26.0398 121.076 27.5848C121.076 29.7818 121.903 31.6848 124.685 31.6848C125.822 31.6848 127.166 31.0661 128.729 29.7395C128.784 29.6548 128.929 29.7395 128.929 29.8024C128.929 30.2449 128.95 31.2136 129.011 31.5441C129.046 31.6425 129.129 31.8106 129.191 31.8106C129.818 31.7477 132.663 30.9677 133.855 30.4702C133.978 30.2941 134.013 29.6411 133.978 29.4513C133.511 29.473 133.124 29.5153 132.704 29.473C132.242 29.4169 132.119 29.0864 132.098 28.3431V21.5681C132.119 20.2758 132.119 18.9766 132.181 18.5843C131.333 18.7593 128.77 19.0475 126.662 19.0475C126.546 19.1733 126.483 19.7497 126.546 20.0162C127.282 20.0928 127.909 20.1991 128.344 20.3249C128.784 20.4439 128.888 20.9219 128.888 21.2662C128.95 25.1557 128.95 27.5848 128.888 28.0549C128.888 28.3007 128.784 28.5466 128.605 28.693C128.047 29.1642 127.344 29.4513 126.587 29.4513C125.223 29.4513 124.582 28.7353 124.382 27.8719C124.204 27.3172 124.204 26.2227 124.204 24.4741C124.204 21.034 124.265 19.426 124.403 18.542C123.252 18.8645 120.71 19.012 119.381 19.0475C119.256 19.1733 119.194 19.7909 119.256 20.0162Z" fill="#00507B"/>
<path d="M103.376 12.1382C103.898 12.1942 104.422 12.2583 104.787 12.3841C105.215 12.503 105.29 12.8129 105.352 13.2052C105.456 14.2585 105.456 16.3788 105.456 23.4203C105.456 24.74 105.456 27.6815 105.394 28.6719C105.352 29.6406 105.277 30.034 104.787 30.217C104.463 30.3005 104.181 30.3851 103.658 30.4617C103.541 30.5681 103.52 31.2486 103.658 31.4315C104.285 31.4315 105.174 31.3469 106.91 31.3469C108.783 31.3469 109.735 31.4315 110.382 31.4315C110.505 31.2691 110.588 30.5887 110.423 30.4617C109.879 30.3851 109.672 30.3005 109.334 30.2376C108.728 30.034 108.687 29.6623 108.605 28.7565C108.542 27.8085 108.542 23.9544 108.542 21.6087C108.542 21.42 108.687 21.1318 108.866 21.0129C109.43 20.6401 110.141 20.3942 110.829 20.3942C112.428 20.3942 113.275 21.5035 113.433 22.4733C113.681 23.7291 113.578 26.9873 113.558 28.7348C113.517 29.8442 113.433 30.0969 112.972 30.217C112.751 30.3005 112.366 30.4057 111.938 30.4617C111.822 30.5887 111.822 31.2691 111.938 31.4315C112.565 31.3892 113.84 31.3469 115.073 31.3469C116.789 31.3469 117.939 31.4315 118.422 31.4315C118.607 31.3263 118.662 30.5681 118.586 30.4617C118.001 30.3851 117.456 30.2376 117.071 30.034C116.85 29.9071 116.747 29.5777 116.747 29.3535C116.686 28.0326 116.727 25.1895 116.727 23.4832C116.727 20.2478 115.294 18.3722 112.786 18.3722C111.574 18.3722 110.141 19.0252 108.687 20.1277C108.605 20.1906 108.542 20.1277 108.542 20.0648C108.542 19.3134 108.521 14.708 108.542 13.6204C108.584 11.4577 108.666 11.1341 108.928 10.6572C108.969 10.489 108.804 10.1585 108.687 10.1162C107.778 10.5302 105.497 11.0929 103.376 11.2118C103.258 11.3376 103.217 12.0124 103.376 12.1382Z" fill="#00507B"/>
<path fill-rule="evenodd" clip-rule="evenodd" d="M100.621 19.9596C101.669 21.1524 102.034 22.8164 102.034 24.0459C102.034 26.6785 101.007 28.6296 99.3474 29.8659C98.0997 30.8277 95.7644 31.7255 94.4904 31.7255C93.3467 31.7255 92.4787 31.5573 91.6107 31.3115C91.1623 31.1925 90.618 31.1296 89.9364 31.3469C89.8334 31.3469 89.6539 31.1571 89.6539 31.0942C89.7499 29.9071 89.8128 27.7032 89.8128 23.2453C89.7705 18.8708 89.7705 14.3637 89.6882 13.1915C89.6333 12.6929 89.5098 12.4687 88.9654 12.2994C88.6623 12.2159 88.1385 12.153 87.5736 12.0959C87.4912 11.9277 87.5118 11.2747 87.6353 11.1695C89.2685 11.0712 91.9343 10.5874 93.126 10.1162C93.2221 10.1585 93.3467 10.5233 93.3261 10.6434C93.0642 11.0506 92.9613 11.5629 92.9613 15.775C92.9396 17.4459 92.9613 18.4992 92.9613 19.7903C92.9613 19.8544 93.0642 19.8967 93.126 19.8544C94.4972 19.0961 96.1715 18.3722 97.1631 18.3722C98.7127 18.3722 99.8632 19.0332 100.621 19.9596ZM93.2644 20.8436C93.1466 20.9077 93.0231 21.0895 93.0025 21.3148C92.9396 22.4447 92.9396 26.3274 93.0231 27.8508C93.0642 28.7348 93.285 29.1008 93.5674 29.3878C94.2079 29.9642 95.1377 30.209 95.8616 30.209C96.5844 30.209 97.2111 29.9642 97.7761 29.2266C98.3959 28.4889 98.7825 27.0502 98.7825 25.5692C98.7825 23.8 98.3959 22.6129 97.7967 21.7711C96.9492 20.6618 96.04 20.353 94.9787 20.353C94.352 20.353 93.588 20.6195 93.2644 20.8436Z" fill="#00507B"/>
<path d="M87.0777 30.4611C86.3961 30.3421 86.1274 30.2792 85.8106 30.174C85.4034 30.0334 85.225 29.7452 85.225 29.0018C85.1839 27.5619 85.1839 25.4347 85.1839 23.7502C85.1839 21.8963 85.225 19.6502 85.225 18.2881C83.8332 18.8496 81.3595 19.2773 80.5121 19.2991C80.3885 19.4249 80.3268 20.0219 80.4091 20.1408C81.1125 20.4359 81.4979 20.5971 81.7804 20.907C81.9668 21.0889 82.0011 21.4194 82.0011 21.6298V29.0018C81.9668 29.7452 81.8833 30.0334 81.4361 30.174C81.0988 30.2998 80.7328 30.3845 80.209 30.4611C80.0855 30.5674 80.1061 31.304 80.209 31.4309C80.8163 31.4309 82.0011 31.3463 83.5096 31.3463C85.2456 31.3463 86.3138 31.4309 86.9199 31.4309C87.0777 31.304 87.1395 30.588 87.0777 30.4611Z" fill="#00507B"/>
<path d="M85.2256 14.0535C85.2256 13.7871 85.1009 13.2747 84.9225 13.0002C84.7978 12.8813 84.3781 12.6777 83.7514 12.6777C83.1098 12.6777 82.2418 12.9865 81.9044 13.3308C81.6848 13.5412 81.6848 14.2788 81.7397 14.5236C81.8838 15.1835 82.1457 15.6547 82.6489 15.9211C82.9314 16.0481 84.2535 15.9211 84.4399 15.7599C84.9019 15.387 85.2256 14.6928 85.2256 14.0535Z" fill="#00507B"/>
<path d="M58.9638 12.5608C59.5493 12.6374 59.9553 12.7003 60.3556 12.8478C61.3471 13.1143 61.7051 13.6907 62.5319 15.7481C63.4423 18.0148 65.136 22.5437 66.728 26.8541C67.3547 28.4975 67.8167 29.9225 68.1816 31.1794C68.7465 31.1153 69.897 31.1153 70.462 31.1794C70.7239 30.2313 71.2465 28.7285 72.0322 26.7066C73.6105 22.7541 75.5592 17.833 76.5519 15.5651C77.2335 13.9366 77.5366 13.2767 78.4458 12.9107C78.7832 12.7426 79.3138 12.6374 79.8994 12.5608C80.0172 12.3778 79.9966 11.655 79.8994 11.591C79.1492 11.5772 78.2605 11.6756 76.4479 11.6756C74.3881 11.6756 73.1965 11.5566 72.6933 11.5566C72.5697 11.655 72.4874 12.3778 72.5697 12.5608C73.3554 12.6374 73.941 12.7643 74.4087 12.8696C75.2768 13.0937 75.4151 13.669 75.0503 14.7223C74.3264 17.1731 71.3986 24.7269 70.6335 26.503C70.5718 26.559 70.51 26.5247 70.4483 26.5247C69.8284 24.9796 66.5141 16.2044 65.7078 13.8737C65.5637 13.4242 65.6255 13.0937 66.0109 12.9679C66.3346 12.8478 66.8789 12.6797 67.6235 12.5608C67.747 12.4338 67.747 11.655 67.5823 11.591C67.0379 11.591 65.1841 11.6756 63.249 11.6756C61.7543 11.6756 59.9141 11.591 59.0255 11.591C58.9226 11.6333 58.8471 12.3778 58.9638 12.5608Z" fill="#00507B"/>
<path d="M58.9041 34.2119H155.701V44.2119H58.9041V34.2119Z" fill="#4CD0CC"/>
<path fill-rule="evenodd" clip-rule="evenodd" d="M63.1507 41.6346C63.1507 41.6616 63.1419 41.6867 63.1243 41.7097C63.106 41.7307 63.0769 41.7489 63.0369 41.7631C62.997 41.776 62.9415 41.7868 62.8745 41.7956C62.8068 41.8038 62.7195 41.8085 62.6146 41.8085C62.5117 41.8085 62.4258 41.8042 62.3567 41.7956C62.287 41.7868 62.2322 41.776 62.1916 41.7631C62.1517 41.7489 62.1226 41.7307 62.1043 41.7097C62.0867 41.6867 62.0779 41.6616 62.0779 41.6346V36.5773C62.0779 36.5502 62.0867 36.5251 62.1043 36.5021C62.1226 36.4812 62.1517 36.4629 62.1943 36.4487C62.2363 36.4345 62.2904 36.425 62.3581 36.4162C62.4258 36.4081 62.5117 36.4033 62.6146 36.4033C62.7195 36.4033 62.8068 36.4081 62.8745 36.4162C62.9415 36.425 62.997 36.4345 63.0369 36.4487C63.0769 36.4629 63.106 36.4812 63.1243 36.5021C63.1419 36.5251 63.1507 36.5502 63.1507 36.5773V41.6346ZM67.6949 41.6433C67.6949 41.67 67.6866 41.6939 67.6699 41.7151C67.6543 41.7361 67.6265 41.753 67.5893 41.7672C67.5507 41.7801 67.4979 41.7916 67.4316 41.7983C67.3646 41.8051 67.2834 41.8085 67.1859 41.8085C67.0851 41.8085 67.0018 41.8051 66.9355 41.7983C66.8692 41.7916 66.8164 41.7801 66.7778 41.7672C66.7399 41.753 66.7121 41.7361 66.6973 41.7151C66.6806 41.6939 66.6722 41.67 66.6722 41.6433V39.5377C66.6722 39.3584 66.66 39.2176 66.6336 39.1161C66.6086 39.0125 66.5714 38.9252 66.5226 38.8535C66.4739 38.7797 66.4103 38.7235 66.3345 38.6822C66.2566 38.643 66.168 38.6233 66.0651 38.6233C65.9351 38.6233 65.8052 38.6707 65.6719 38.7682C65.5406 38.8643 65.4018 39.0057 65.259 39.1892V41.6433C65.259 41.67 65.2506 41.6939 65.2339 41.7151C65.2191 41.7361 65.1913 41.753 65.1507 41.7672C65.1121 41.7801 65.0593 41.7916 64.9957 41.7983C64.9307 41.8051 64.8475 41.8085 64.748 41.8085C64.6478 41.8085 64.5652 41.8051 64.4996 41.7983C64.436 41.7916 64.3832 41.7801 64.3446 41.7672C64.3047 41.753 64.2769 41.7361 64.2613 41.7151C64.2451 41.6939 64.237 41.67 64.237 41.6433V37.9499C64.237 37.9228 64.2437 37.8987 64.2573 37.8775C64.2701 37.8565 64.2945 37.8396 64.3297 37.8253C64.3656 37.8125 64.4096 37.8017 64.4651 37.7942C64.5206 37.7874 64.5916 37.7847 64.6742 37.7847C64.7615 37.7847 64.8326 37.7874 64.8894 37.7942C64.9463 37.8017 64.9903 37.8125 65.0221 37.8253C65.0526 37.8396 65.0749 37.8565 65.0884 37.8775C65.1024 37.8987 65.1094 37.9228 65.1094 37.9499V38.3763C65.3091 38.1556 65.5128 37.9918 65.7206 37.8815C65.927 37.7719 66.1429 37.7164 66.3676 37.7164C66.614 37.7164 66.8218 37.7577 66.991 37.8409C67.1595 37.9228 67.2956 38.0358 67.4012 38.178C67.5047 38.3194 67.5798 38.4859 67.6252 38.6768C67.6712 38.867 67.6949 39.0958 67.6949 39.3631V41.6433ZM71.2496 40.5983C71.2496 40.8072 71.2108 40.9922 71.1332 41.1533C71.0574 41.3131 70.9478 41.4457 70.8063 41.554C70.6648 41.6616 70.499 41.7422 70.3061 41.7956C70.1139 41.8491 69.9061 41.8762 69.6814 41.8762C69.5454 41.8762 69.4154 41.866 69.2922 41.845C69.169 41.8241 69.0594 41.797 68.9613 41.7645C68.8638 41.7334 68.7819 41.7009 68.7169 41.667C68.6519 41.6332 68.6052 41.6021 68.5761 41.5723C68.5457 41.5425 68.522 41.4978 68.5064 41.4356C68.4902 41.3746 68.4814 41.2833 68.4814 41.1614C68.4814 41.0825 68.4843 41.0191 68.4902 40.9713C68.4956 40.9232 68.5037 40.8833 68.5132 40.8555C68.5247 40.8271 68.5382 40.8075 68.5552 40.7973C68.57 40.7872 68.591 40.7831 68.6161 40.7831C68.6452 40.7831 68.6892 40.8 68.7474 40.8352C68.8056 40.8711 68.878 40.909 68.9653 40.9496C69.0513 40.9922 69.1521 41.0315 69.2672 41.0674C69.3822 41.1039 69.5136 41.1222 69.6591 41.1222C69.7504 41.1222 69.8337 41.112 69.9048 41.0924C69.9765 41.0741 70.0388 41.0457 70.0916 41.0092C70.1444 40.974 70.1843 40.9286 70.212 40.8724C70.2384 40.8169 70.252 40.7533 70.252 40.6816C70.252 40.5983 70.2276 40.5279 70.1775 40.4684C70.1261 40.4088 70.0598 40.3567 69.9779 40.3134C69.8946 40.2694 69.8005 40.2281 69.697 40.1888C69.5927 40.1509 69.4844 40.1083 69.3755 40.0602C69.2658 40.0135 69.1575 39.9601 69.054 39.8992C68.9498 39.8389 68.8557 39.7651 68.7724 39.6765C68.6905 39.5885 68.6242 39.4815 68.5728 39.3584C68.5233 39.2345 68.4983 39.0849 68.4983 38.911C68.4983 38.7343 68.5328 38.5739 68.6005 38.4257C68.6689 38.2788 68.7657 38.1516 68.8929 38.0473C69.0222 37.9424 69.1772 37.8605 69.3599 37.803C69.544 37.7448 69.7491 37.7164 69.9779 37.7164C70.0929 37.7164 70.2026 37.7252 70.3102 37.7407C70.4171 37.7577 70.5153 37.7786 70.6012 37.803C70.6885 37.828 70.7623 37.8538 70.8219 37.8835C70.8814 37.9113 70.9241 37.937 70.9505 37.9566C70.9769 37.9776 70.9951 37.9979 71.006 38.0189C71.0154 38.0399 71.0242 38.0643 71.0297 38.0934C71.0351 38.1218 71.0405 38.1583 71.0445 38.201C71.0486 38.2436 71.05 38.2971 71.05 38.3607C71.05 38.4352 71.0486 38.4961 71.0445 38.5428C71.0405 38.5895 71.0337 38.6274 71.0242 38.6545C71.0141 38.6822 71.0019 38.7005 70.985 38.7106C70.9687 38.7208 70.9491 38.7249 70.9281 38.7249C70.9031 38.7249 70.8645 38.7106 70.8131 38.6809C70.7623 38.6524 70.6967 38.622 70.6195 38.5895C70.5417 38.557 70.4516 38.5259 70.3508 38.4974C70.2479 38.4677 70.1315 38.4534 70.0015 38.4534C69.9088 38.4534 69.8283 38.4636 69.7606 38.4819C69.6922 38.5015 69.6367 38.5299 69.5927 38.5651C69.5501 38.6003 69.5163 38.643 69.496 38.691C69.4736 38.7391 69.4628 38.7912 69.4628 38.8447C69.4628 38.9306 69.4885 39.003 69.5399 39.0606C69.5914 39.1188 69.6593 39.1698 69.7437 39.2135C69.8269 39.2568 69.9237 39.2995 70.0307 39.3374C70.1369 39.376 70.2466 39.4179 70.3562 39.4633C70.4659 39.5086 70.5748 39.5621 70.6818 39.623C70.788 39.6832 70.8855 39.7584 70.9687 39.8457C71.0527 39.935 71.121 40.0393 71.1718 40.1618C71.2232 40.2849 71.2496 40.4305 71.2496 40.5983ZM75.4473 41.6433C75.4473 41.67 75.4406 41.6939 75.427 41.7151C75.4142 41.7361 75.3905 41.753 75.356 41.7672C75.3228 41.7801 75.2781 41.7916 75.2219 41.7983C75.1664 41.8058 75.0967 41.8085 75.0142 41.8085C74.9241 41.8085 74.8517 41.8058 74.7962 41.7983C74.7407 41.7916 74.6967 41.7801 74.6649 41.7672C74.6318 41.753 74.6094 41.7361 74.5952 41.7151C74.5817 41.6939 74.5749 41.67 74.5749 41.6433V41.2169C74.3752 41.4356 74.1715 41.6007 73.9637 41.711C73.7557 41.8211 73.5409 41.8762 73.3194 41.8762C73.0703 41.8762 72.8598 41.8349 72.6906 41.7516C72.5214 41.6697 72.3847 41.5554 72.2804 41.4132C72.1769 41.2691 72.1018 41.1039 72.0557 40.9144C72.0117 40.7256 71.9894 40.4894 71.9894 40.2085V37.9499C71.9894 37.9228 71.9962 37.8991 72.0117 37.8775C72.0266 37.8565 72.0544 37.8396 72.0936 37.8253C72.1322 37.8125 72.1864 37.8017 72.2527 37.7942C72.319 37.7874 72.4009 37.7847 72.4991 37.7847C72.5992 37.7847 72.6825 37.7874 72.7475 37.7942C72.8124 37.8017 72.8652 37.8125 72.9038 37.8253C72.9437 37.8396 72.9715 37.8565 72.9871 37.8775C73.0037 37.8987 73.0121 37.9228 73.0121 37.9499V40.0352C73.0121 40.2281 73.0243 40.375 73.048 40.4772C73.0728 40.58 73.1102 40.6676 73.1603 40.7398C73.2097 40.8129 73.274 40.8691 73.3512 40.9103C73.4274 40.95 73.5175 40.9699 73.6212 40.9699C73.7519 40.9699 73.8818 40.9218 74.0138 40.8257C74.1438 40.7296 74.2852 40.5882 74.4334 40.4047V37.9499C74.4334 37.9228 74.4402 37.8991 74.4558 37.8775C74.4707 37.8565 74.4971 37.8396 74.537 37.8253C74.5763 37.8125 74.629 37.8017 74.6927 37.7942C74.7576 37.7874 74.8409 37.7847 74.9404 37.7847C75.0399 37.7847 75.1231 37.7874 75.1881 37.7942C75.2524 37.8017 75.3045 37.8125 75.3424 37.8253C75.3797 37.8396 75.4074 37.8565 75.4223 37.8775C75.439 37.8987 75.4473 37.9228 75.4473 37.9499V41.6433ZM78.8031 38.2944C78.8031 38.3932 78.8004 38.4751 78.7949 38.538C78.7895 38.6017 78.7807 38.6511 78.7713 38.6869C78.7604 38.7221 78.7449 38.7472 78.7279 38.7614C78.7103 38.7756 78.688 38.781 78.6603 38.781C78.6393 38.781 78.6149 38.777 78.5872 38.7668C78.5608 38.7573 78.5303 38.7472 78.4958 38.7364C78.4619 38.7249 78.4247 38.7147 78.3848 38.7052C78.3428 38.6951 78.2988 38.691 78.2501 38.691C78.1932 38.691 78.1364 38.7018 78.0795 38.7262C78.0234 38.7499 77.9638 38.7858 77.9022 38.8365C77.8413 38.8859 77.7777 38.9523 77.7113 39.0342C77.645 39.1174 77.5739 39.2189 77.4981 39.3401V41.6433C77.4981 41.67 77.4898 41.6939 77.4731 41.7151C77.4575 41.7361 77.4298 41.753 77.3898 41.7672C77.3513 41.7801 77.2985 41.7916 77.2348 41.7983C77.1699 41.8058 77.0866 41.8085 76.9864 41.8085C76.887 41.8085 76.8037 41.8058 76.7387 41.7983C76.6751 41.7916 76.6223 41.7801 76.5837 41.7672C76.5431 41.753 76.5161 41.7361 76.5005 41.7151C76.4838 41.6939 76.4754 41.67 76.4754 41.6433V37.9499C76.4754 37.9228 76.4824 37.8987 76.4964 37.8775C76.5086 37.8565 76.5336 37.8396 76.5682 37.8253C76.604 37.8125 76.6487 37.8017 76.7042 37.7942C76.7597 37.7874 76.8301 37.7847 76.9134 37.7847C77.0007 37.7847 77.0711 37.7874 77.1279 37.7942C77.1848 37.8017 77.2294 37.8125 77.2612 37.8253C77.2917 37.8396 77.314 37.8565 77.3276 37.8775C77.3416 37.8987 77.3486 37.9228 77.3486 37.9499V38.4101C77.4426 38.2714 77.5327 38.1583 77.6159 38.0697C77.7005 37.981 77.7804 37.9086 77.8555 37.8565C77.9313 37.8044 78.0078 37.7678 78.0843 37.7475C78.1587 37.7265 78.2352 37.7164 78.311 37.7164C78.3455 37.7164 78.3848 37.7177 78.4247 37.7225C78.4653 37.7265 78.508 37.7333 78.5506 37.7434C78.5939 37.7536 78.6325 37.7644 78.6643 37.7759C78.6975 37.7888 78.7212 37.8017 78.7367 37.8152C78.7503 37.8294 78.7618 37.845 78.7685 37.8605C78.7753 37.8775 78.7807 37.9005 78.7861 37.9296C78.7922 37.958 78.7963 38.002 78.799 38.0595C78.8017 38.1177 78.8031 38.1956 78.8031 38.2944ZM82.3321 41.6555C82.3321 41.6941 82.3179 41.7239 82.2915 41.7462C82.2637 41.7686 82.2211 41.7841 82.1629 41.7943C82.1046 41.8038 82.0187 41.8085 81.9036 41.8085C81.7818 41.8085 81.6931 41.8038 81.6376 41.7943C81.5821 41.7841 81.5422 41.7686 81.5199 41.7462C81.4962 41.7239 81.4853 41.6941 81.4853 41.6555V41.3625C81.3358 41.5242 81.1666 41.6501 80.9757 41.7408C80.7855 41.8308 80.5737 41.8762 80.3408 41.8762C80.15 41.8762 79.9726 41.8505 79.8115 41.7997C79.6511 41.7489 79.5124 41.6725 79.3946 41.5723C79.2768 41.4708 79.1855 41.3469 79.1205 41.1987C79.0555 41.0484 79.023 40.8751 79.023 40.6775C79.023 40.4616 79.065 40.2748 79.1469 40.1171C79.2301 39.9574 79.3533 39.8274 79.5164 39.7232C79.6802 39.6196 79.8826 39.5438 80.1263 39.4944C80.3686 39.445 80.6515 39.4193 80.9723 39.4193H81.3256V39.1966C81.3256 39.0802 81.3148 38.9787 81.2911 38.8914C81.2694 38.8054 81.2302 38.7316 81.1774 38.6741C81.1253 38.6159 81.0556 38.5739 80.9669 38.5455C80.8796 38.5184 80.7706 38.5042 80.6413 38.5042C80.4715 38.5042 80.3185 38.5245 80.1858 38.5624C80.0511 38.6003 79.9334 38.6443 79.8312 38.691C79.7283 38.7377 79.643 38.781 79.5733 38.8196C79.5043 38.8575 79.4488 38.8771 79.4054 38.8771C79.375 38.8771 79.3493 38.8677 79.3269 38.8487C79.3032 38.8291 79.2836 38.8013 79.2701 38.7655C79.2545 38.7303 79.2437 38.6849 79.2356 38.6328C79.2268 38.5807 79.2227 38.5232 79.2227 38.4609C79.2227 38.3747 79.2297 38.3068 79.2437 38.2572C79.2559 38.2078 79.2823 38.1644 79.3202 38.1231C79.3587 38.0839 79.4237 38.0399 79.5192 37.9918C79.6132 37.9438 79.7242 37.8991 79.8522 37.8578C79.9794 37.8154 80.1179 37.7816 80.2677 37.7563C80.4187 37.7292 80.5737 37.7164 80.7327 37.7164C81.017 37.7164 81.2593 37.7448 81.4617 37.8017C81.6627 37.8578 81.8292 37.9451 81.9578 38.0629C82.0877 38.18 82.1838 38.3309 82.2434 38.5157C82.303 38.6991 82.3321 38.9198 82.3321 39.1722V41.6555ZM81.3256 40.0717H80.9364C80.772 40.0717 80.6319 40.0846 80.5154 40.1083C80.399 40.134 80.305 40.1706 80.2312 40.2213C80.1581 40.2707 80.1053 40.3296 80.0721 40.4007C80.0376 40.4711 80.0207 40.5516 80.0207 40.6416C80.0207 40.7973 80.0694 40.9185 80.1649 41.0064C80.2603 41.0951 80.3936 41.1391 80.5642 41.1391C80.707 41.1391 80.8383 41.1019 80.9588 41.0274C81.0793 40.9523 81.2011 40.844 81.3256 40.6998V40.0717ZM86.8093 41.6433C86.8093 41.67 86.801 41.6939 86.7843 41.7151C86.7694 41.7361 86.7416 41.753 86.7044 41.7672C86.6651 41.7801 86.613 41.7916 86.546 41.7983C86.4797 41.8058 86.3978 41.8085 86.301 41.8085C86.2002 41.8085 86.1169 41.8058 86.0506 41.7983C85.9836 41.7916 85.9308 41.7801 85.8922 41.7672C85.855 41.753 85.8272 41.7361 85.8117 41.7151C85.7954 41.6939 85.7873 41.67 85.7873 41.6433V39.5384C85.7873 39.359 85.7744 39.2176 85.748 39.1161C85.723 39.0132 85.6858 38.9252 85.6377 38.8535C85.589 38.7797 85.5254 38.7235 85.4489 38.6822C85.3717 38.643 85.2831 38.6233 85.1802 38.6233C85.0502 38.6233 84.9196 38.6714 84.7869 38.7688C84.655 38.865 84.5169 39.0057 84.3741 39.1892V41.6433C84.3741 41.67 84.3657 41.6939 84.349 41.7151C84.3335 41.7361 84.3057 41.753 84.2658 41.7672C84.2272 41.7801 84.1744 41.7916 84.1108 41.7983C84.0458 41.8058 83.9626 41.8085 83.8624 41.8085C83.7629 41.8085 83.6796 41.8058 83.6147 41.7983C83.551 41.7916 83.4982 41.7801 83.4597 41.7672C83.4191 41.753 83.3913 41.7361 83.3764 41.7151C83.3597 41.6939 83.3514 41.67 83.3514 41.6433V37.9499C83.3514 37.9228 83.3584 37.8987 83.3724 37.8775C83.3845 37.8565 83.4096 37.8396 83.4441 37.8253C83.48 37.8125 83.5246 37.8017 83.5801 37.7942C83.6356 37.7874 83.706 37.7847 83.7893 37.7847C83.8766 37.7847 83.947 37.7874 84.0038 37.7942C84.0607 37.8017 84.1054 37.8125 84.1372 37.8253C84.1676 37.8396 84.19 37.8565 84.2035 37.8775C84.2175 37.8987 84.2245 37.9228 84.2245 37.9499V38.3763C84.4235 38.1556 84.6272 37.9918 84.835 37.8822C85.0414 37.7719 85.258 37.717 85.482 37.717C85.7291 37.717 85.9369 37.7577 86.1054 37.8409C86.2746 37.9228 86.4107 38.0358 86.5156 38.1786C86.6198 38.3194 86.6942 38.4859 86.7403 38.6768C86.7856 38.8677 86.8093 39.0964 86.8093 39.3631V41.6433ZM90.5474 41.0545C90.5474 41.1262 90.5461 41.1858 90.542 41.2352C90.538 41.2831 90.5323 41.3239 90.5251 41.3577C90.5183 41.3902 90.51 41.4171 90.5001 41.4383C90.4906 41.4599 90.4696 41.485 90.4378 41.5175C90.4046 41.5486 90.3491 41.5878 90.272 41.6332C90.1928 41.6785 90.1041 41.7192 90.0026 41.7564C89.9031 41.7916 89.7948 41.8214 89.677 41.8423C89.5593 41.8647 89.4374 41.8762 89.3129 41.8762C89.0347 41.8762 88.7877 41.8322 88.5731 41.7435C88.3572 41.6562 88.1772 41.5249 88.0303 41.3523C87.8848 41.1804 87.7738 40.9685 87.7 40.7202C87.6256 40.4711 87.5883 40.1875 87.5883 39.8673C87.5883 39.4971 87.6337 39.177 87.7237 38.9083C87.8151 38.6389 87.9416 38.4155 88.1034 38.2396C88.2658 38.0629 88.4581 37.9316 88.6801 37.845C88.9014 37.759 89.1451 37.717 89.411 37.717C89.5193 37.717 89.6249 37.7265 89.7298 37.7462C89.8341 37.7651 89.9309 37.7915 90.0222 37.824C90.1122 37.8578 90.1941 37.8944 90.2645 37.9357C90.337 37.9783 90.3884 38.0135 90.4168 38.0446C90.448 38.0737 90.4683 38.0995 90.4811 38.1204C90.4919 38.1421 90.5014 38.1685 90.5089 38.201C90.5156 38.2348 90.5211 38.2759 90.5251 38.3242C90.5292 38.3736 90.5305 38.4311 90.5305 38.5001C90.5305 38.6612 90.5183 38.7743 90.4906 38.8392C90.4628 38.9042 90.4283 38.9367 90.385 38.9367C90.3397 38.9367 90.2896 38.9171 90.2381 38.8785C90.1874 38.8406 90.1265 38.7966 90.0554 38.7506C89.9864 38.7039 89.9017 38.6599 89.805 38.622C89.7075 38.5834 89.5918 38.5638 89.4557 38.5638C89.1897 38.5638 88.9874 38.6687 88.8459 38.8758C88.7065 39.0849 88.6354 39.3902 88.6354 39.7922C88.6354 39.9898 88.6537 40.1651 88.6882 40.3174C88.7241 40.4684 88.7755 40.5956 88.8445 40.6971C88.9143 40.7987 88.9995 40.8765 89.1038 40.9273C89.2094 40.978 89.3298 41.0037 89.4679 41.0037C89.608 41.0037 89.7298 40.9828 89.8314 40.9388C89.9322 40.8961 90.0209 40.8481 90.0974 40.796C90.1718 40.7438 90.2354 40.6958 90.2882 40.6538C90.3397 40.6098 90.3823 40.5888 90.4168 40.5888C90.4419 40.5888 90.4615 40.5956 90.4784 40.6098C90.4947 40.624 90.5075 40.6491 90.517 40.6863C90.5265 40.7242 90.5332 40.7723 90.5393 40.8298C90.5447 40.888 90.5474 40.9629 90.5474 41.0545ZM94.6328 39.6907C94.6328 39.8179 94.6051 39.9107 94.5496 39.9716C94.4947 40.0325 94.4182 40.0636 94.3201 40.0636H92.1143C92.1143 40.22 92.1326 40.3614 92.1698 40.49C92.2057 40.6166 92.2639 40.7256 92.3431 40.8142C92.4229 40.9036 92.5258 40.9713 92.6517 41.018C92.7776 41.0647 92.9272 41.0883 93.1032 41.0883C93.2825 41.0883 93.4389 41.0755 93.5742 41.0491C93.7089 41.022 93.8267 40.9936 93.9248 40.9611C94.0237 40.9286 94.1049 40.9009 94.1705 40.8738C94.2355 40.8467 94.2883 40.8345 94.3282 40.8345C94.3533 40.8345 94.3736 40.8386 94.3891 40.8481C94.4061 40.8582 94.4196 40.8751 94.4304 40.9009C94.4406 40.9246 94.4487 40.9598 94.4528 41.0051C94.4568 41.0504 94.4582 41.108 94.4582 41.1757C94.4582 41.2366 94.4568 41.2887 94.4541 41.3313C94.4514 41.3733 94.4474 41.4105 94.4419 41.4396C94.4365 41.4708 94.4291 41.4965 94.4182 41.5161C94.4074 41.5371 94.3932 41.5574 94.3749 41.577C94.3573 41.5953 94.31 41.6224 94.2314 41.6562C94.1523 41.69 94.0528 41.7225 93.9309 41.755C93.8084 41.7875 93.6703 41.8153 93.5133 41.8396C93.357 41.8633 93.1891 41.8762 93.0104 41.8762C92.6876 41.8762 92.4067 41.8356 92.1644 41.7516C91.9228 41.6697 91.7211 41.5445 91.5573 41.3767C91.3955 41.2081 91.2744 40.9949 91.1945 40.7398C91.1153 40.4826 91.0754 40.1821 91.0754 39.8376C91.0754 39.51 91.1167 39.2149 91.2013 38.9509C91.2843 38.6883 91.4061 38.4652 91.5668 38.2815C91.7265 38.0979 91.9205 37.958 92.1488 37.8619C92.379 37.7651 92.6368 37.717 92.9231 37.717C93.227 37.717 93.4856 37.7617 93.7008 37.8538C93.9167 37.9438 94.0927 38.071 94.2314 38.2321C94.3682 38.3932 94.471 38.5854 94.536 38.8054C94.601 39.0254 94.6328 39.2656 94.6328 39.5255V39.6907ZM93.644 39.3942C93.6521 39.1018 93.5939 38.8717 93.4707 38.7052C93.3475 38.5367 93.1573 38.4534 92.9001 38.4534C92.7695 38.4534 92.6558 38.4792 92.5603 38.5286C92.4636 38.578 92.383 38.6443 92.3194 38.7289C92.2558 38.8135 92.207 38.9123 92.1739 39.0267C92.1394 39.1425 92.1197 39.2643 92.1143 39.3942H93.644ZM101.212 40.176C101.212 40.3668 101.186 40.5388 101.135 40.6944C101.084 40.8481 101.013 40.9855 100.923 41.1039C100.831 41.2224 100.724 41.3239 100.599 41.4105C100.473 41.4965 100.334 41.5655 100.183 41.6217C100.032 41.6772 99.8701 41.7178 99.6982 41.7435C99.5263 41.7699 99.3354 41.7828 99.1249 41.7828H97.7293C97.6409 41.7828 97.5662 41.7559 97.5053 41.7022C97.4444 41.6485 97.4139 41.561 97.4139 41.4396V36.7722C97.4139 36.6508 97.4444 36.5633 97.5053 36.5096C97.5662 36.4559 97.6409 36.429 97.7293 36.429H99.0457C99.3672 36.429 99.6387 36.4575 99.862 36.5123C100.085 36.5678 100.271 36.651 100.424 36.762C100.578 36.8737 100.695 37.0152 100.774 37.1857C100.856 37.357 100.897 37.5573 100.897 37.7888C100.897 37.9187 100.88 38.0399 100.848 38.1543C100.816 38.2687 100.768 38.3729 100.707 38.4663C100.644 38.5611 100.569 38.643 100.477 38.7147C100.387 38.7871 100.284 38.8447 100.168 38.8886C100.316 38.9171 100.455 38.9651 100.581 39.0342C100.707 39.1032 100.816 39.1921 100.909 39.3008C101.003 39.4098 101.077 39.5384 101.131 39.6832C101.185 39.8301 101.212 39.9939 101.212 40.176ZM99.8329 37.9201C99.8329 37.8125 99.816 37.717 99.7842 37.6304C99.7524 37.5458 99.7036 37.4741 99.6387 37.4172C99.5737 37.361 99.4918 37.3184 99.3936 37.2873C99.2948 37.2582 99.1635 37.2426 98.9984 37.2426H98.461V38.6314H99.0552C99.2089 38.6314 99.3327 38.6132 99.4241 38.5753C99.5152 38.5383 99.5913 38.4875 99.6522 38.423C99.7131 38.358 99.7578 38.2815 99.7882 38.1956C99.8173 38.1076 99.8329 38.0176 99.8329 37.9201ZM100.107 40.2159C100.107 40.0914 100.086 39.9797 100.046 39.8809C100.006 39.7839 99.9464 39.702 99.8674 39.6352C99.7896 39.5689 99.6901 39.5181 99.5683 39.4815C99.4458 39.4464 99.2881 39.4281 99.0924 39.4281H98.461V40.953H99.2312C99.3794 40.953 99.504 40.9374 99.6068 40.9049C99.7077 40.8738 99.795 40.8257 99.8701 40.7635C99.9432 40.7012 100.001 40.6254 100.045 40.532C100.086 40.4399 100.107 40.3344 100.107 40.2159ZM104.342 38.2944C104.342 38.3932 104.339 38.4751 104.334 38.5387C104.328 38.6017 104.32 38.6511 104.31 38.6869C104.299 38.7221 104.284 38.7472 104.268 38.7614C104.249 38.7756 104.227 38.781 104.2 38.781C104.179 38.781 104.154 38.777 104.126 38.7675C104.1 38.7573 104.069 38.7472 104.035 38.7364C104.002 38.7249 103.964 38.7147 103.924 38.7052C103.882 38.6951 103.838 38.691 103.79 38.691C103.733 38.691 103.676 38.7025 103.619 38.7262C103.562 38.7506 103.503 38.7858 103.442 38.8365C103.381 38.8859 103.317 38.9523 103.25 39.0342C103.184 39.1174 103.114 39.2189 103.037 39.3401V41.6433C103.037 41.67 103.029 41.6939 103.012 41.7151C102.997 41.7361 102.969 41.753 102.929 41.7672C102.89 41.7801 102.837 41.7916 102.774 41.7983C102.709 41.8058 102.626 41.8085 102.526 41.8085C102.426 41.8085 102.343 41.8058 102.278 41.7983C102.214 41.7916 102.161 41.7801 102.123 41.7672C102.083 41.753 102.055 41.7361 102.039 41.7151C102.023 41.6939 102.014 41.67 102.014 41.6433V37.9499C102.014 37.9228 102.021 37.8987 102.035 37.8775C102.048 37.8565 102.073 37.8396 102.108 37.8253C102.144 37.8125 102.188 37.8017 102.243 37.7942C102.299 37.7874 102.37 37.7847 102.452 37.7847C102.54 37.7847 102.611 37.7874 102.667 37.7942C102.724 37.8017 102.768 37.8125 102.8 37.8253C102.831 37.8396 102.853 37.8565 102.866 37.8775C102.88 37.8987 102.887 37.9228 102.887 37.9499V38.4101C102.982 38.2714 103.072 38.1583 103.155 38.0697C103.239 37.981 103.32 37.9086 103.394 37.8565C103.471 37.8044 103.547 37.7678 103.623 37.7475C103.698 37.7265 103.774 37.717 103.851 37.717C103.885 37.717 103.924 37.7184 103.964 37.7225C104.004 37.7265 104.047 37.734 104.09 37.7434C104.133 37.7536 104.171 37.7651 104.204 37.7759C104.237 37.7888 104.261 37.8017 104.276 37.8159C104.29 37.8294 104.301 37.845 104.307 37.8605C104.314 37.8775 104.32 37.9005 104.326 37.9302C104.331 37.958 104.335 38.002 104.338 38.0595C104.341 38.1177 104.342 38.1956 104.342 38.2944ZM108.526 39.7597C108.526 40.0731 108.486 40.3601 108.404 40.6193C108.322 40.8779 108.201 41.1012 108.034 41.2887C107.87 41.4768 107.663 41.6203 107.413 41.7239C107.164 41.8254 106.874 41.8762 106.541 41.8762C106.218 41.8762 105.938 41.8308 105.7 41.7395C105.461 41.6488 105.264 41.5161 105.107 41.3422C104.95 41.1689 104.834 40.9557 104.758 40.7012C104.682 40.4487 104.644 40.1591 104.644 39.8328C104.644 39.5195 104.686 39.2318 104.768 38.9719C104.851 38.7106 104.974 38.4873 105.14 38.3012C105.305 38.1162 105.512 37.9722 105.759 37.8693C106.006 37.7678 106.297 37.717 106.63 37.717C106.955 37.717 107.236 37.7617 107.474 37.8511C107.713 37.9411 107.91 38.0724 108.065 38.2463C108.222 38.4196 108.337 38.6328 108.412 38.8873C108.489 39.1398 108.526 39.4308 108.526 39.7597ZM107.478 39.8003C107.478 39.6183 107.465 39.4504 107.436 39.2981C107.407 39.1438 107.359 39.0112 107.29 38.8988C107.223 38.7858 107.133 38.6964 107.02 38.6328C106.906 38.5692 106.765 38.5387 106.593 38.5387C106.441 38.5387 106.308 38.5665 106.193 38.6233C106.079 38.6795 105.985 38.7628 105.912 38.8717C105.838 38.98 105.783 39.1113 105.747 39.2643C105.71 39.4179 105.692 39.5919 105.692 39.7882C105.692 39.9702 105.707 40.1381 105.736 40.2904C105.767 40.4447 105.815 40.5773 105.881 40.6904C105.948 40.8034 106.038 40.8907 106.153 40.953C106.266 41.0148 106.408 41.0457 106.577 41.0457C106.732 41.0457 106.867 41.018 106.982 40.9611C107.095 40.9049 107.189 40.823 107.262 40.7154C107.336 40.6071 107.39 40.4772 107.426 40.3242C107.461 40.1706 107.478 39.9966 107.478 39.8003Z" fill="#002055"/>
<path fill-rule="evenodd" clip-rule="evenodd" d="M112.705 41.6437C112.705 41.6701 112.698 41.6945 112.684 41.7154C112.668 41.7364 112.642 41.752 112.602 41.7649C112.562 41.7777 112.509 41.7879 112.441 41.7946C112.373 41.8014 112.286 41.8048 112.176 41.8048C112.065 41.8048 111.975 41.8019 111.906 41.796C111.837 41.7906 111.78 41.7818 111.736 41.7689C111.691 41.7567 111.657 41.7398 111.632 41.7168C111.607 41.6958 111.586 41.666 111.567 41.6308L110.361 39.685V41.6396C110.361 41.6663 110.353 41.6902 110.336 41.7114C110.321 41.7324 110.294 41.7493 110.253 41.7635C110.214 41.7764 110.162 41.7879 110.098 41.7946C110.033 41.8014 109.95 41.8048 109.85 41.8048C109.75 41.8048 109.667 41.8014 109.602 41.7946C109.538 41.7879 109.485 41.7764 109.447 41.7635C109.407 41.7493 109.379 41.7324 109.364 41.7114C109.347 41.6902 109.339 41.6663 109.339 41.6396V36.1966C109.339 36.1681 109.347 36.1444 109.364 36.1214C109.379 36.1005 109.407 36.0808 109.447 36.0666C109.485 36.051 109.538 36.0395 109.602 36.0314C109.667 36.0226 109.75 36.0186 109.85 36.0186C109.95 36.0186 110.033 36.0226 110.098 36.0314C110.162 36.0395 110.214 36.051 110.253 36.0666C110.294 36.0808 110.321 36.1005 110.336 36.1214C110.353 36.1444 110.361 36.1681 110.361 36.1966V39.4366L111.433 37.9672C111.456 37.9333 111.479 37.9049 111.507 37.8792C111.534 37.8555 111.569 37.8358 111.613 37.8216C111.658 37.8088 111.714 37.7973 111.78 37.7905C111.846 37.7837 111.931 37.7803 112.034 37.7803C112.133 37.7803 112.218 37.7837 112.287 37.7905C112.355 37.7973 112.41 37.8088 112.453 37.8216C112.495 37.8358 112.524 37.8528 112.539 37.8738C112.556 37.895 112.564 37.9205 112.564 37.9502C112.564 37.9908 112.554 38.0362 112.534 38.0829C112.513 38.1296 112.483 38.179 112.442 38.2325L111.384 39.4582L112.612 41.3906C112.644 41.4461 112.668 41.4941 112.684 41.5334C112.698 41.5726 112.705 41.6099 112.705 41.6437ZM116.443 39.687C116.443 39.8135 116.416 39.907 116.36 39.9679C116.305 40.0281 116.229 40.0592 116.13 40.0592H113.925C113.925 40.2163 113.942 40.357 113.98 40.4856C114.016 40.6129 114.074 40.7219 114.153 40.8105C114.233 40.8992 114.336 40.9675 114.462 41.0136C114.588 41.0603 114.738 41.0846 114.914 41.0846C115.092 41.0846 115.249 41.0718 115.385 41.0447C115.519 41.0183 115.637 40.9899 115.735 40.9574C115.833 40.9249 115.915 40.8965 115.98 40.8701C116.045 40.843 116.098 40.8301 116.139 40.8301C116.164 40.8301 116.184 40.8342 116.2 40.8444C116.216 40.8545 116.23 40.8714 116.241 40.8965C116.25 40.9208 116.259 40.956 116.263 41.0014C116.267 41.0461 116.269 41.1043 116.269 41.1719C116.269 41.2329 116.267 41.285 116.265 41.3276C116.262 41.3696 116.258 41.4061 116.252 41.4359C116.246 41.467 116.24 41.4928 116.229 41.5124C116.217 41.5334 116.204 41.553 116.185 41.5726C116.168 41.5916 116.12 41.618 116.041 41.6518C115.963 41.6857 115.863 41.7182 115.741 41.7506C115.619 41.7831 115.48 41.8116 115.324 41.8352C115.167 41.8596 115 41.8725 114.821 41.8725C114.498 41.8725 114.217 41.8312 113.974 41.7479C113.733 41.666 113.531 41.5401 113.368 41.3723C113.205 41.2044 113.085 40.9912 113.004 40.7361C112.926 40.4789 112.885 40.1777 112.885 39.8339C112.885 39.5063 112.927 39.2112 113.012 38.9465C113.095 38.6844 113.217 38.4615 113.377 38.2778C113.537 38.0942 113.731 37.9543 113.959 37.8582C114.189 37.7607 114.447 37.7127 114.734 37.7127C115.037 37.7127 115.296 37.758 115.511 37.8501C115.727 37.9401 115.903 38.0673 116.041 38.2284C116.179 38.3895 116.282 38.581 116.347 38.8017C116.412 39.0217 116.443 39.2619 116.443 39.5212V39.687ZM115.454 39.3905C115.463 39.0988 115.404 38.8687 115.281 38.7015C115.157 38.5337 114.968 38.4504 114.71 38.4504C114.58 38.4504 114.466 38.4761 114.371 38.5255C114.273 38.5749 114.194 38.6413 114.13 38.7259C114.066 38.8105 114.018 38.9093 113.984 39.0237C113.95 39.1394 113.93 39.2613 113.925 39.3905H115.454ZM119.614 38.2907C119.614 38.3902 119.612 38.4721 119.605 38.535C119.6 38.5986 119.592 38.648 119.582 38.6832C119.571 38.7184 119.556 38.7442 119.539 38.7584C119.521 38.7726 119.499 38.778 119.471 38.778C119.45 38.778 119.425 38.7739 119.398 38.7638C119.371 38.7543 119.341 38.7442 119.306 38.7326C119.273 38.7218 119.236 38.7117 119.195 38.7015C119.154 38.692 119.11 38.688 119.061 38.688C119.004 38.688 118.948 38.6988 118.891 38.7232C118.834 38.7469 118.774 38.7821 118.713 38.8328C118.653 38.8822 118.589 38.9492 118.523 39.0311C118.456 39.1144 118.385 39.2159 118.309 39.3371V41.6396C118.309 41.6667 118.301 41.6909 118.284 41.7121C118.269 41.733 118.241 41.75 118.201 41.7642C118.162 41.777 118.11 41.7879 118.045 41.7953C117.98 41.8021 117.897 41.8055 117.798 41.8055C117.698 41.8055 117.615 41.8021 117.55 41.7953C117.486 41.7879 117.434 41.777 117.394 41.7642C117.354 41.75 117.327 41.733 117.312 41.7121C117.295 41.6909 117.287 41.6667 117.287 41.6396V37.9462C117.287 37.9196 117.293 37.8956 117.307 37.8744C117.32 37.8534 117.345 37.8365 117.379 37.8223C117.415 37.8095 117.46 37.7979 117.515 37.7912C117.57 37.7844 117.641 37.781 117.725 37.781C117.812 37.781 117.882 37.7844 117.939 37.7912C117.996 37.7979 118.04 37.8095 118.072 37.8223C118.102 37.8365 118.125 37.8534 118.139 37.8744C118.152 37.8956 118.159 37.9196 118.159 37.9462V38.4071C118.254 38.2683 118.344 38.1553 118.426 38.0666C118.511 37.9773 118.592 37.9056 118.667 37.8534C118.743 37.8013 118.819 37.7641 118.895 37.7445C118.97 37.7235 119.046 37.7133 119.122 37.7133C119.157 37.7133 119.195 37.7147 119.236 37.7194C119.276 37.7235 119.319 37.7303 119.362 37.7404C119.404 37.7506 119.444 37.7614 119.476 37.7729C119.509 37.7858 119.532 37.7979 119.547 37.8122C119.561 37.8264 119.572 37.8419 119.579 37.8575C119.587 37.8744 119.592 37.8968 119.597 37.9265C119.603 37.955 119.607 37.999 119.61 38.0565C119.613 38.1147 119.614 38.1919 119.614 38.2907ZM122.693 40.5953C122.693 40.8042 122.654 40.9892 122.576 41.1503C122.5 41.3093 122.391 41.442 122.249 41.551C122.108 41.6586 121.941 41.7385 121.749 41.7926C121.556 41.8461 121.348 41.8731 121.124 41.8731C120.988 41.8731 120.858 41.863 120.735 41.842C120.611 41.8204 120.502 41.794 120.403 41.7615C120.307 41.7303 120.225 41.6978 120.16 41.664C120.095 41.6302 120.047 41.599 120.018 41.5693C119.988 41.5395 119.964 41.4948 119.949 41.4325C119.932 41.3716 119.924 41.2802 119.924 41.1584C119.924 41.0794 119.927 41.0158 119.932 40.9675C119.938 40.9202 119.947 40.8802 119.956 40.8518C119.968 40.8241 119.981 40.8044 119.998 40.7943C120.013 40.7841 120.034 40.7801 120.059 40.7801C120.088 40.7801 120.132 40.797 120.19 40.8322C120.248 40.8674 120.32 40.906 120.408 40.9466C120.493 40.9892 120.595 41.0285 120.71 41.0637C120.825 41.1009 120.956 41.1192 121.102 41.1192C121.193 41.1192 121.277 41.109 121.347 41.0894C121.419 41.0711 121.482 41.0427 121.534 41.0061C121.587 40.9709 121.627 40.9256 121.655 40.8694C121.681 40.8139 121.695 40.7503 121.695 40.6785C121.695 40.5953 121.67 40.5242 121.62 40.4653C121.569 40.4058 121.502 40.3537 121.421 40.3097C121.337 40.2663 121.243 40.2251 121.139 40.1858C121.036 40.1479 120.927 40.1053 120.818 40.0572C120.709 40.0105 120.6 39.957 120.496 39.8961C120.393 39.8359 120.299 39.7621 120.215 39.6734C120.133 39.5855 120.067 39.4785 120.016 39.3553C119.966 39.2315 119.941 39.0819 119.941 38.9079C119.941 38.7313 119.976 38.5702 120.043 38.422C120.111 38.2758 120.209 38.1485 120.336 38.0436C120.464 37.9394 120.62 37.8575 120.803 37.8C120.987 37.7418 121.192 37.7133 121.421 37.7133C121.536 37.7133 121.645 37.7221 121.753 37.7377C121.86 37.7546 121.958 37.7756 122.044 37.8C122.131 37.825 122.205 37.8507 122.264 37.8798C122.324 37.9083 122.367 37.934 122.393 37.9536C122.42 37.9746 122.437 37.9942 122.449 38.0159C122.458 38.0369 122.466 38.0606 122.472 38.0903C122.478 38.1188 122.483 38.1553 122.487 38.198C122.491 38.2399 122.493 38.2941 122.493 38.3577C122.493 38.4321 122.491 38.4931 122.487 38.5398C122.483 38.5858 122.477 38.6244 122.466 38.6508C122.457 38.6792 122.444 38.6975 122.428 38.7076C122.411 38.7171 122.392 38.7218 122.371 38.7218C122.346 38.7218 122.307 38.7076 122.256 38.6778C122.205 38.6494 122.14 38.6183 122.062 38.5858C121.985 38.5533 121.895 38.5228 121.793 38.4944C121.691 38.4646 121.574 38.4504 121.444 38.4504C121.351 38.4504 121.271 38.4606 121.203 38.4788C121.135 38.4985 121.08 38.5269 121.036 38.5621C120.992 38.5973 120.959 38.6399 120.938 38.688C120.917 38.736 120.905 38.7882 120.905 38.8416C120.905 38.9276 120.931 39 120.983 39.0575C121.034 39.1153 121.102 39.166 121.187 39.2098C121.27 39.2538 121.367 39.2964 121.473 39.3344C121.58 39.3723 121.689 39.4149 121.799 39.4602C121.908 39.5049 122.018 39.5591 122.125 39.6193C122.231 39.6802 122.328 39.7553 122.411 39.8427C122.496 39.9313 122.563 40.0362 122.615 40.1587C122.666 40.2819 122.693 40.4274 122.693 40.5953ZM128.993 38.0524C128.993 38.3543 128.948 38.6196 128.854 38.8518C128.763 39.0846 128.629 39.2795 128.452 39.4372C128.276 39.597 128.06 39.7168 127.803 39.8C127.547 39.8833 127.245 39.9246 126.897 39.9246H126.458V41.6315C126.458 41.6599 126.45 41.6836 126.431 41.706C126.414 41.7276 126.385 41.7459 126.345 41.7601C126.304 41.7743 126.25 41.7838 126.182 41.7926C126.116 41.8007 126.029 41.8055 125.924 41.8055C125.822 41.8055 125.736 41.8012 125.667 41.7926C125.597 41.7838 125.543 41.773 125.503 41.7601C125.463 41.7459 125.434 41.7276 125.419 41.706C125.403 41.6836 125.394 41.6586 125.394 41.6315V36.8159C125.394 36.6859 125.427 36.5884 125.494 36.5235C125.56 36.4585 125.648 36.426 125.756 36.426H126.994C127.119 36.426 127.238 36.4301 127.35 36.4402C127.462 36.4497 127.597 36.4714 127.755 36.5025C127.912 36.5343 128.071 36.5925 128.231 36.6785C128.392 36.7631 128.53 36.872 128.644 37.0033C128.758 37.1346 128.845 37.2869 128.904 37.4636C128.964 37.6389 128.993 37.8352 128.993 38.0524ZM127.879 38.1316C127.879 37.9435 127.846 37.7885 127.781 37.6666C127.716 37.5455 127.635 37.4555 127.54 37.3973C127.444 37.3395 127.345 37.3027 127.241 37.2869C127.135 37.2714 127.028 37.2646 126.915 37.2646H126.458V39.086H126.94C127.112 39.086 127.254 39.0616 127.371 39.0156C127.486 38.9689 127.581 38.9025 127.655 38.8179C127.728 38.734 127.784 38.6325 127.823 38.5154C127.86 38.3983 127.879 38.2697 127.879 38.1316ZM133.089 37.9421C133.089 37.9563 133.089 37.9732 133.087 37.9929C133.086 38.0114 133.083 38.0326 133.079 38.0565C133.075 38.0804 133.069 38.1073 133.062 38.137C133.055 38.1682 133.047 38.202 133.036 38.2399L131.948 41.5821C131.936 41.6288 131.916 41.6667 131.894 41.6951C131.871 41.7249 131.833 41.7473 131.781 41.7642C131.728 41.7797 131.656 41.7913 131.566 41.7967C131.476 41.8021 131.357 41.8055 131.211 41.8055C131.068 41.8055 130.951 41.8021 130.861 41.7953C130.77 41.7879 130.699 41.7757 130.647 41.7601C130.596 41.7432 130.559 41.7202 130.536 41.6911C130.513 41.6627 130.495 41.6261 130.481 41.5821L129.397 38.2399C129.38 38.1851 129.367 38.1357 129.358 38.0917C129.348 38.0484 129.342 38.0159 129.341 37.9956C129.34 37.9773 129.34 37.959 129.34 37.9421C129.34 37.9157 129.346 37.8913 129.362 37.8704C129.377 37.8487 129.403 37.8318 129.441 37.8182C129.478 37.8054 129.531 37.7952 129.596 37.7898C129.663 37.784 129.746 37.781 129.845 37.781C129.956 37.781 130.045 37.7844 130.113 37.7912C130.179 37.7979 130.233 37.8081 130.272 37.821C130.311 37.8338 130.339 37.8507 130.355 37.8744C130.37 37.8981 130.384 37.9265 130.396 37.959L131.219 40.6711L131.243 40.7747L131.267 40.6711L132.075 37.959C132.083 37.9265 132.095 37.8981 132.113 37.8744C132.131 37.8507 132.159 37.8338 132.197 37.821C132.235 37.8081 132.285 37.7979 132.349 37.7912C132.414 37.7844 132.497 37.781 132.599 37.781C132.701 37.781 132.782 37.7844 132.846 37.7898C132.91 37.7952 132.96 37.8054 132.995 37.8182C133.03 37.8318 133.054 37.8487 133.068 37.8704C133.082 37.8916 133.089 37.9155 133.089 37.9421ZM135.877 41.2769C135.877 41.3987 135.87 41.4914 135.856 41.5564C135.84 41.6214 135.82 41.6667 135.796 41.6924C135.772 41.7188 135.736 41.7432 135.689 41.7628C135.64 41.7838 135.585 41.8021 135.521 41.8163C135.459 41.8319 135.39 41.8434 135.315 41.8515C135.24 41.8603 135.165 41.8644 135.089 41.8644C134.887 41.8644 134.711 41.8373 134.561 41.7852C134.413 41.7333 134.29 41.653 134.191 41.5442C134.094 41.4352 134.022 41.2985 133.977 41.1313C133.931 40.9662 133.908 40.7699 133.908 40.5445V38.6541H133.468C133.417 38.6541 133.377 38.6216 133.351 38.5567C133.323 38.4917 133.309 38.383 133.309 38.2304C133.309 38.1499 133.311 38.0822 133.319 38.0267C133.326 37.9719 133.336 37.9279 133.351 37.8954C133.363 37.8643 133.381 37.8419 133.402 37.8277C133.421 37.8135 133.446 37.8067 133.472 37.8067H133.908V36.981C133.908 36.9539 133.914 36.9282 133.929 36.9059C133.945 36.8849 133.973 36.8666 134.011 36.8511C134.05 36.8355 134.104 36.824 134.17 36.8172C134.237 36.8098 134.319 36.8071 134.417 36.8071C134.517 36.8071 134.6 36.8098 134.666 36.8172C134.733 36.824 134.786 36.8353 134.825 36.8511C134.862 36.8666 134.89 36.8849 134.905 36.9059C134.922 36.9282 134.93 36.9539 134.93 36.981V37.8067H135.715C135.743 37.8067 135.766 37.8137 135.786 37.8277C135.807 37.8419 135.824 37.8643 135.837 37.8954C135.851 37.9279 135.861 37.9719 135.868 38.0267C135.874 38.0822 135.877 38.1499 135.877 38.2304C135.877 38.3827 135.864 38.4917 135.837 38.5567C135.81 38.6216 135.771 38.6541 135.719 38.6541H134.93V40.3875C134.93 40.5892 134.96 40.7408 135.022 40.841C135.085 40.9412 135.196 40.9919 135.355 40.9919C135.409 40.9919 135.458 40.9879 135.501 40.9777C135.544 40.9675 135.582 40.9567 135.616 40.9439C135.65 40.9324 135.678 40.9215 135.701 40.9114C135.724 40.9019 135.746 40.8972 135.763 40.8972C135.78 40.8972 135.796 40.9019 135.811 40.9114C135.825 40.9215 135.837 40.9398 135.845 40.9696C135.852 40.9973 135.861 41.0373 135.868 41.0867C135.874 41.1374 135.877 41.1997 135.877 41.2769ZM137.812 41.1808C137.812 41.4366 137.768 41.6105 137.68 41.6978C137.593 41.7865 137.435 41.8305 137.207 41.8305C136.98 41.8305 136.822 41.7865 136.737 41.7006C136.649 41.6132 136.606 41.4481 136.606 41.2051C136.606 40.9466 136.651 40.7719 136.738 40.684C136.827 40.5953 136.986 40.5513 137.216 40.5513C137.44 40.5513 137.596 40.5953 137.683 40.6812C137.769 40.7688 137.812 40.9353 137.812 41.1808ZM143.657 41.3249C143.657 41.4068 143.654 41.4772 143.647 41.5341C143.64 41.5902 143.629 41.6369 143.616 41.6735C143.603 41.7121 143.586 41.7385 143.565 41.754C143.545 41.7712 143.521 41.7797 143.494 41.7797H141.088C140.999 41.7797 140.924 41.7529 140.863 41.6992C140.802 41.6455 140.772 41.558 140.772 41.4366V36.5742C140.772 36.5472 140.78 36.5221 140.798 36.4991C140.817 36.4781 140.846 36.4598 140.886 36.4456C140.926 36.4314 140.981 36.4219 141.051 36.4131C141.12 36.4046 141.206 36.4003 141.308 36.4003C141.414 36.4003 141.501 36.405 141.569 36.4131C141.635 36.4219 141.69 36.4314 141.731 36.4456C141.771 36.4598 141.8 36.4781 141.818 36.4991C141.836 36.5221 141.844 36.5472 141.844 36.5742V40.8816H143.494C143.521 40.8816 143.546 40.889 143.565 40.9046C143.586 40.9202 143.603 40.9439 143.616 40.9791C143.63 41.0129 143.64 41.0582 143.647 41.1165C143.654 41.1726 143.657 41.2417 143.657 41.3249ZM146.216 41.2769C146.216 41.3987 146.208 41.4914 146.193 41.5564C146.178 41.6214 146.159 41.6667 146.134 41.6924C146.11 41.7188 146.074 41.7432 146.027 41.7628C145.978 41.7838 145.923 41.8021 145.859 41.8163C145.797 41.8319 145.728 41.8434 145.653 41.8515C145.578 41.8603 145.503 41.8644 145.427 41.8644C145.225 41.8644 145.049 41.8373 144.899 41.7852C144.751 41.7333 144.627 41.653 144.529 41.5442C144.432 41.4352 144.361 41.2985 144.315 41.1313C144.269 40.9662 144.246 40.7699 144.246 40.5445V38.6541H143.806C143.755 38.6541 143.715 38.6216 143.688 38.5567C143.661 38.4917 143.647 38.383 143.647 38.2304C143.647 38.1499 143.65 38.0822 143.657 38.0267C143.663 37.9719 143.674 37.9279 143.688 37.8954C143.701 37.8643 143.719 37.8419 143.74 37.8277C143.759 37.8135 143.784 37.8067 143.81 37.8067H144.246V36.981C144.246 36.9539 144.252 36.9282 144.267 36.9059C144.283 36.8849 144.311 36.8666 144.349 36.8511C144.388 36.8355 144.442 36.824 144.509 36.8172C144.575 36.8098 144.657 36.8071 144.755 36.8071C144.855 36.8071 144.938 36.8098 145.004 36.8172C145.071 36.824 145.124 36.8353 145.163 36.8511C145.2 36.8666 145.228 36.8849 145.243 36.9059C145.259 36.9282 145.268 36.9539 145.268 36.981V37.8067H146.053C146.081 37.8067 146.104 37.8137 146.124 37.8277C146.145 37.8419 146.162 37.8643 146.175 37.8954C146.189 37.9279 146.199 37.9719 146.206 38.0267C146.212 38.0822 146.216 38.1499 146.216 38.2304C146.216 38.3827 146.202 38.4917 146.175 38.5567C146.147 38.6216 146.109 38.6541 146.057 38.6541H145.268V40.3875C145.268 40.5892 145.298 40.7408 145.361 40.841C145.423 40.9412 145.534 40.9919 145.693 40.9919C145.747 40.9919 145.795 40.9879 145.839 40.9777C145.881 40.9675 145.92 40.9567 145.954 40.9439C145.988 40.9324 146.016 40.9215 146.039 40.9114C146.061 40.9019 146.084 40.8972 146.102 40.8972C146.118 40.8972 146.134 40.9019 146.149 40.9114C146.163 40.9215 146.175 40.9398 146.183 40.9696C146.191 40.9973 146.199 41.0373 146.206 41.0867C146.212 41.1374 146.216 41.1997 146.216 41.2769ZM150.293 41.6396C150.293 41.6694 150.286 41.6949 150.272 41.7161C150.259 41.7371 150.236 41.754 150.204 41.7682C150.171 41.7811 150.127 41.7913 150.071 41.7967C150.016 41.8025 149.948 41.8055 149.867 41.8055C149.78 41.8055 149.71 41.8025 149.655 41.7967C149.601 41.7913 149.559 41.7811 149.524 41.7682C149.49 41.754 149.466 41.7358 149.452 41.7161C149.437 41.6951 149.428 41.6694 149.428 41.6383V41.2275C149.243 41.4325 149.046 41.5902 148.842 41.7033C148.637 41.8163 148.411 41.8731 148.162 41.8731C147.886 41.8731 147.652 41.8176 147.463 41.7094C147.271 41.6004 147.116 41.4535 146.996 41.2687C146.875 41.0853 146.788 40.8694 146.734 40.6217C146.679 40.3746 146.652 40.1154 146.652 39.8427C146.652 39.5151 146.686 39.22 146.756 38.9574C146.825 38.6961 146.924 38.4727 147.058 38.288C147.191 38.1032 147.356 37.9617 147.554 37.8616C147.751 37.7628 147.978 37.7133 148.235 37.7133C148.438 37.7133 148.622 37.756 148.787 37.8392C148.953 37.9238 149.117 38.047 149.278 38.2088V36.2142C149.278 36.1857 149.286 36.162 149.301 36.139C149.316 36.1181 149.342 36.0984 149.383 36.0842C149.421 36.0686 149.474 36.0571 149.538 36.049C149.603 36.0402 149.686 36.0362 149.785 36.0362C149.886 36.0362 149.969 36.0402 150.034 36.049C150.097 36.0571 150.15 36.0686 150.187 36.0842C150.225 36.0984 150.252 36.1181 150.268 36.139C150.284 36.162 150.293 36.1857 150.293 36.2142V41.6396ZM149.278 39.1733C149.133 38.9851 148.992 38.843 148.859 38.7421C148.724 38.6433 148.585 38.5939 148.438 38.5939C148.306 38.5939 148.191 38.6277 148.095 38.6961C147.999 38.7638 147.922 38.8524 147.864 38.9655C147.806 39.0799 147.762 39.2058 147.734 39.3438C147.705 39.4839 147.691 39.6261 147.691 39.7716C147.691 39.9273 147.703 40.0768 147.727 40.2224C147.752 40.3692 147.792 40.4985 147.848 40.6129C147.903 40.7273 147.976 40.8193 148.069 40.8884C148.16 40.9574 148.277 40.9912 148.418 40.9912C148.487 40.9912 148.557 40.9818 148.623 40.9608C148.69 40.9391 148.757 40.9066 148.826 40.8586C148.895 40.8119 148.966 40.7516 149.039 40.6752C149.113 40.5994 149.192 40.5073 149.278 40.397V39.1733ZM152.518 41.1814C152.518 41.4366 152.475 41.6105 152.386 41.6978C152.299 41.7865 152.141 41.8305 151.914 41.8305C151.687 41.8305 151.528 41.7865 151.443 41.7006C151.356 41.6132 151.312 41.4481 151.312 41.2051C151.312 40.9466 151.357 40.7719 151.444 40.684C151.533 40.5953 151.692 40.5513 151.922 40.5513C152.146 40.5513 152.302 40.5953 152.389 40.6812C152.475 40.7688 152.518 40.9355 152.518 41.1814Z" fill="#002055"/>
</svg>
