<svg width="99" height="50" viewBox="0 0 99 50" fill="none" xmlns="http://www.w3.org/2000/svg">
<path d="M93.3218 30.0822C92.6401 29.9632 92.3714 29.9003 92.0535 29.7951C91.6475 29.6545 91.4679 29.3663 91.4679 28.6229C91.4267 27.183 91.4267 25.0558 91.4267 23.3712C91.4267 21.5174 91.4679 19.2713 91.4679 17.9092C90.0772 18.4707 87.6035 18.8984 86.7561 18.9202C86.6326 19.046 86.5708 19.643 86.6531 19.7619C87.3553 20.057 87.7419 20.2182 88.0244 20.5281C88.2097 20.71 88.244 21.0405 88.244 21.2509V28.6229C88.2097 29.3663 88.1273 29.6545 87.679 29.7951C87.3416 29.9209 86.9768 30.0056 86.453 30.0822C86.3295 30.1885 86.3501 30.925 86.453 31.052C87.0591 31.052 88.244 30.9674 89.7536 30.9674C91.4896 30.9674 92.5567 31.052 93.1628 31.052C93.3218 30.925 93.3835 30.2091 93.3218 30.0822Z" fill="#00507B"/>
<path d="M91.4677 13.6751C91.4677 13.4087 91.3442 12.8963 91.1646 12.6218C91.0411 12.5029 90.6214 12.2993 89.9935 12.2993C89.3531 12.2993 88.4851 12.6081 88.1477 12.9523C87.927 13.1628 87.927 13.9004 87.9819 14.1452C88.1271 14.8051 88.389 15.2762 88.8922 15.5427C89.1747 15.6697 90.4968 15.5427 90.6832 15.3814C91.1441 15.0086 91.4677 14.3144 91.4677 13.6751Z" fill="#00507B"/>
<path d="M84.3756 20.1627C84.3974 19.6652 84.5552 18.78 84.6375 18.2882C84.0314 18.3374 82.1581 18.4152 81.0831 18.4152C81.0076 18.4152 80.9253 18.2951 80.9253 18.2116C80.9253 16.049 80.987 14.5885 81.0831 13.9778C80.9458 13.9355 80.5799 13.9778 80.4632 13.9915C80.0355 14.4067 78.5202 15.2907 77.7974 15.5572V18.2745C77.7562 18.3591 77.6933 18.4781 77.6315 18.4781C77.3902 18.5833 76.7086 18.724 76.2809 18.8498C76.178 19.0533 75.9984 19.7704 75.9984 19.9945C76.481 20.0151 77.1912 20.0574 77.611 20.1421C77.7345 20.1627 77.7974 20.2827 77.7974 20.4085C77.7974 21.7009 77.7562 24.5794 77.7562 26.2434C77.7562 28.1739 77.7562 28.9951 78.1965 29.8162C78.7615 30.8272 79.8159 31.2972 81.1448 31.2972C82.3571 31.2972 83.6872 30.8695 84.514 29.7808C84.617 29.592 84.6375 28.8761 84.5758 28.7492C83.9902 29.1209 83.5293 29.2055 82.778 29.2055C81.9099 29.2055 81.2695 28.7709 81.0625 28.0333C80.9253 27.5209 80.9253 26.9239 80.8829 25.6888C80.8829 24.1643 80.8829 21.638 80.9253 20.2827C80.9253 20.261 81.0076 20.1421 81.0625 20.1421C82.1581 20.1421 83.5293 20.1421 84.3756 20.1627Z" fill="#00507B"/>
<path d="M60.3521 19.6372C60.821 19.6933 61.3448 19.8202 61.6067 19.8831C62.047 20.0238 62.1087 20.4161 62.151 20.9925C62.1716 22.4735 62.151 25.6608 62.1716 27.2059C62.1716 29.4029 62.9985 31.3059 65.781 31.3059C66.9178 31.3059 68.2616 30.6872 69.8249 29.3605C69.8798 29.2759 70.0251 29.3605 70.0251 29.4235C70.0251 29.866 70.0457 30.8347 70.1074 31.1652C70.1417 31.2636 70.2252 31.4317 70.287 31.4317C70.9137 31.3688 73.7591 30.5888 74.9508 30.0913C75.0743 29.9152 75.1086 29.2622 75.0743 29.0724C74.6065 29.0941 74.22 29.1364 73.8003 29.0941C73.3382 29.038 73.2147 28.7075 73.1941 27.9642V21.1892C73.2147 19.8969 73.2147 18.5977 73.2765 18.2054C72.429 18.3804 69.8661 18.6686 67.7584 18.6686C67.6417 18.7944 67.5788 19.3708 67.6417 19.6372C68.3782 19.7139 69.0049 19.8202 69.4395 19.946C69.8798 20.065 69.9839 20.543 69.9839 20.8873C70.0457 24.7768 70.0457 27.2059 69.9839 27.676C69.9839 27.9218 69.8798 28.1677 69.7014 28.3141C69.1433 28.7853 68.44 29.0724 67.6829 29.0724C66.3185 29.0724 65.6781 28.3564 65.4779 27.493C65.2995 26.9383 65.2995 25.8438 65.2995 24.0952C65.2995 20.6551 65.3613 19.0471 65.4985 18.1631C64.348 18.4856 61.8057 18.6331 60.4767 18.6686C60.3521 18.7944 60.2903 19.4119 60.3521 19.6372Z" fill="#00507B"/>
<path d="M44.4719 11.7593C44.9946 11.8153 45.5183 11.8794 45.8832 12.0052C46.3109 12.1241 46.3864 12.434 46.4481 12.8263C46.5522 13.8796 46.5522 15.9999 46.5522 23.0414C46.5522 24.3611 46.5522 27.3026 46.4904 28.293C46.4481 29.2617 46.3727 29.6551 45.8832 29.8381C45.5595 29.9216 45.277 30.0062 44.7544 30.0828C44.6366 30.1892 44.616 30.8696 44.7544 31.0526C45.3811 31.0526 46.2697 30.968 48.0058 30.968C49.8791 30.968 50.8306 31.0526 51.4779 31.0526C51.6014 30.8902 51.6838 30.2098 51.5191 30.0828C50.9747 30.0062 50.7677 29.9216 50.4303 29.8587C49.8242 29.6551 49.783 29.2834 49.7007 28.3776C49.6378 27.4296 49.6378 23.5755 49.6378 21.2298C49.6378 21.0411 49.783 20.7529 49.9626 20.634C50.5264 20.2612 51.2366 20.0153 51.9251 20.0153C53.5239 20.0153 54.3713 21.1246 54.5292 22.0944C54.7773 23.3502 54.6744 26.6084 54.6538 28.3559C54.6126 29.4652 54.5292 29.718 54.0683 29.8381C53.8475 29.9216 53.4621 30.0268 53.0344 30.0828C52.9178 30.2098 52.9178 30.8902 53.0344 31.0526C53.6611 31.0103 54.9363 30.968 56.1691 30.968C57.8846 30.968 59.0351 31.0526 59.5178 31.0526C59.703 30.9474 59.7579 30.1892 59.6824 30.0828C59.0969 30.0062 58.5525 29.8587 58.1671 29.6551C57.9464 29.5282 57.8434 29.1988 57.8434 28.9746C57.7817 27.6537 57.8229 24.8106 57.8229 23.1043C57.8229 19.8689 56.3899 17.9933 53.8819 17.9933C52.6696 17.9933 51.2366 18.6463 49.783 19.7488C49.7007 19.8117 49.6378 19.7488 49.6378 19.6859C49.6378 18.9345 49.6172 14.3291 49.6378 13.2414C49.6801 11.0788 49.7624 10.7551 50.0243 10.2782C50.0655 10.1101 49.8997 9.77962 49.783 9.7373C48.8738 10.1513 46.5934 10.714 44.4719 10.8329C44.3541 10.9587 44.3129 11.6335 44.4719 11.7593Z" fill="#00507B"/>
<path fill-rule="evenodd" clip-rule="evenodd" d="M41.7174 19.5807C42.765 20.7735 43.1298 22.4375 43.1298 23.6669C43.1298 26.2996 42.1028 28.2507 40.4434 29.487C39.1957 30.4488 36.8603 31.3466 35.5863 31.3466C34.4427 31.3466 33.5746 31.1784 32.7066 30.9325C32.2583 30.8136 31.7139 30.7507 31.0323 30.968C30.9294 30.968 30.7498 30.7782 30.7498 30.7153C30.8459 29.5281 30.9088 27.3243 30.9088 22.8664C30.8665 18.4919 30.8665 13.9848 30.7841 12.8126C30.7292 12.3139 30.6057 12.0898 30.0613 11.9205C29.7583 11.837 29.2345 11.7741 28.6695 11.717C28.5872 11.5488 28.6078 10.8958 28.7313 10.7906C30.3644 10.6922 33.0303 10.2085 34.2219 9.7373C34.318 9.77962 34.4427 10.1444 34.4221 10.2645C34.1602 10.6717 34.0573 11.184 34.0573 15.3961C34.0355 17.0669 34.0573 18.1203 34.0573 19.4114C34.0573 19.4755 34.1602 19.5178 34.2219 19.4755C35.5932 18.7172 37.2675 17.9933 38.259 17.9933C39.8087 17.9933 40.9592 18.6543 41.7174 19.5807ZM34.3603 20.4647C34.2425 20.5288 34.119 20.7106 34.0984 20.9359C34.0355 22.0658 34.0355 25.9485 34.119 27.4719C34.1602 28.3559 34.3809 28.7219 34.6634 29.0089C35.3038 29.5853 36.2336 29.8301 36.9575 29.8301C37.6803 29.8301 38.3071 29.5853 38.872 28.8477C39.4919 28.11 39.8784 26.6713 39.8784 25.1903C39.8784 23.4211 39.4919 22.234 38.8926 21.3922C38.0452 20.2829 37.136 19.9741 36.0746 19.9741C35.4479 19.9741 34.684 20.2406 34.3603 20.4647Z" fill="#00507B"/>
<path d="M28.1737 30.0822C27.4921 29.9632 27.2233 29.9003 26.9065 29.7951C26.4994 29.6545 26.321 29.3663 26.321 28.6229C26.2798 27.183 26.2798 25.0558 26.2798 23.3712C26.2798 21.5174 26.321 19.2713 26.321 17.9092C24.9292 18.4707 22.4555 18.8984 21.608 18.9202C21.4845 19.046 21.4227 19.643 21.5051 19.7619C22.2084 20.057 22.5938 20.2182 22.8763 20.5281C23.0627 20.71 23.097 21.0405 23.097 21.2509V28.6229C23.0627 29.3663 22.9792 29.6545 22.5321 29.7951C22.1947 29.9209 21.8287 30.0056 21.3049 30.0822C21.1814 30.1885 21.202 30.925 21.3049 31.052C21.9122 31.052 23.097 30.9674 24.6055 30.9674C26.3416 30.9674 27.4097 31.052 28.0159 31.052C28.1737 30.925 28.2355 30.2091 28.1737 30.0822Z" fill="#00507B"/>
<path d="M26.3214 13.6751C26.3214 13.4087 26.1967 12.8963 26.0183 12.6218C25.8937 12.5029 25.4739 12.2993 24.8472 12.2993C24.2056 12.2993 23.3376 12.6081 23.0002 12.9523C22.7807 13.1628 22.7807 13.9004 22.8356 14.1452C22.9797 14.8051 23.2415 15.2762 23.7448 15.5427C24.0272 15.6697 25.3493 15.5427 25.5357 15.3814C25.9977 15.0086 26.3214 14.3144 26.3214 13.6751Z" fill="#00507B"/>
<path d="M0.0596992 12.1814C0.645247 12.258 1.05124 12.3209 1.45152 12.4684C2.44307 12.7349 2.80103 13.3113 3.62788 15.3687C4.53823 17.6354 6.23197 22.1643 7.82393 26.4747C8.45065 28.1181 8.91269 29.5431 9.27751 30.8C9.84247 30.7359 10.993 30.7359 11.5579 30.8C11.8198 29.8519 12.3425 28.3491 13.1282 26.3272C14.7064 22.3747 16.6552 17.4536 17.6479 15.1857C18.3295 13.5572 18.6326 12.8973 19.5418 12.5313C19.8791 12.3632 20.4098 12.258 20.9953 12.1814C21.1131 11.9984 21.0925 11.2756 20.9953 11.2116C20.2451 11.1978 19.3565 11.2962 17.5438 11.2962C15.4841 11.2962 14.2924 11.1772 13.7892 11.1772C13.6657 11.2756 13.5833 11.9984 13.6657 12.1814C14.4514 12.258 15.0369 12.3849 15.5047 12.4902C16.3727 12.7143 16.5111 13.2896 16.1463 14.3429C15.4223 16.7937 12.4946 24.3475 11.7295 26.1236C11.6677 26.1796 11.606 26.1453 11.5442 26.1453C10.9244 24.6003 7.61007 15.825 6.8038 13.4943C6.6597 13.0448 6.72145 12.7143 7.10686 12.5885C7.43052 12.4684 7.97489 12.3003 8.71941 12.1814C8.84292 12.0544 8.84292 11.2756 8.67824 11.2116C8.13386 11.2116 6.28001 11.2962 4.34495 11.2962C2.8502 11.2962 1.01007 11.2116 0.121458 11.2116C0.0185295 11.2539 -0.056953 11.9984 0.0596992 12.1814Z" fill="#00507B"/>
<path d="M0 33.833H96.7971V43.833H0V33.833Z" fill="#4CD0CC"/>
<path fill-rule="evenodd" clip-rule="evenodd" d="M4.24661 41.2542C4.24661 41.2813 4.2378 41.3063 4.22021 41.3293C4.20193 41.3503 4.17283 41.3686 4.1329 41.3828C4.09296 41.3956 4.03746 41.4065 3.97046 41.4153C3.90277 41.4234 3.81546 41.4281 3.71055 41.4281C3.60768 41.4281 3.52172 41.4238 3.45268 41.4153C3.38297 41.4065 3.32814 41.3956 3.28753 41.3828C3.2476 41.3686 3.2185 41.3503 3.20022 41.3293C3.18263 41.3063 3.17383 41.2813 3.17383 41.2542V36.1969C3.17383 36.1698 3.18263 36.1448 3.20022 36.1218C3.2185 36.1008 3.2476 36.0825 3.29024 36.0683C3.3322 36.0541 3.38635 36.0446 3.45404 36.0358C3.52172 36.0277 3.60768 36.0229 3.71055 36.0229C3.81546 36.0229 3.90277 36.0277 3.97046 36.0358C4.03746 36.0446 4.09296 36.0541 4.1329 36.0683C4.17283 36.0825 4.20193 36.1008 4.22021 36.1218C4.2378 36.1448 4.24661 36.1698 4.24661 36.1969V41.2542ZM8.79085 41.263C8.79085 41.2896 8.7825 41.3135 8.76581 41.3347C8.75024 41.3557 8.72249 41.3726 8.68527 41.3868C8.64669 41.3997 8.5939 41.4112 8.52757 41.418C8.46056 41.4247 8.37934 41.4281 8.28187 41.4281C8.18103 41.4281 8.09778 41.4247 8.03145 41.418C7.96512 41.4112 7.91233 41.3997 7.87375 41.3868C7.83584 41.3726 7.80809 41.3557 7.7932 41.3347C7.77651 41.3135 7.76816 41.2896 7.76816 41.263V39.1574C7.76816 38.978 7.75598 38.8372 7.72958 38.7357C7.70454 38.6321 7.66731 38.5448 7.61858 38.4731C7.56985 38.3993 7.50623 38.3431 7.43042 38.3018C7.35259 38.2626 7.26392 38.243 7.16104 38.243C7.03109 38.243 6.90114 38.2903 6.7678 38.3878C6.6365 38.4839 6.49775 38.6254 6.35494 38.8088V41.263C6.35494 41.2896 6.34659 41.3135 6.32989 41.3347C6.315 41.3557 6.28725 41.3726 6.24664 41.3868C6.20806 41.3997 6.15527 41.4112 6.09165 41.418C6.02667 41.4247 5.94342 41.4281 5.84393 41.4281C5.74376 41.4281 5.66118 41.4247 5.59553 41.418C5.53191 41.4112 5.47912 41.3997 5.44054 41.3868C5.4006 41.3726 5.37285 41.3557 5.35728 41.3347C5.34104 41.3135 5.33292 41.2896 5.33292 41.263V37.5695C5.33292 37.5424 5.33969 37.5183 5.35323 37.4971C5.36609 37.4761 5.39045 37.4592 5.42564 37.445C5.46152 37.4321 5.50551 37.4213 5.56101 37.4138C5.61651 37.4071 5.68758 37.4044 5.77015 37.4044C5.85746 37.4044 5.92853 37.4071 5.98539 37.4138C6.04224 37.4213 6.08623 37.4321 6.11805 37.445C6.1485 37.4592 6.17084 37.4761 6.18437 37.4971C6.19836 37.5183 6.20536 37.5424 6.20536 37.5695V37.9959C6.40502 37.7753 6.60875 37.6115 6.81653 37.5011C7.02297 37.3915 7.23888 37.336 7.46359 37.336C7.70995 37.336 7.91774 37.3773 8.08695 37.4605C8.25548 37.5424 8.39152 37.6555 8.49711 37.7976C8.60066 37.9391 8.67579 38.1056 8.72114 38.2964C8.76716 38.4866 8.79085 38.7154 8.79085 38.9827V41.263ZM12.3456 40.218C12.3456 40.4269 12.3068 40.6119 12.2292 40.773C12.1534 40.9327 12.0437 41.0653 11.9022 41.1736C11.7608 41.2813 11.595 41.3618 11.4021 41.4153C11.2098 41.4687 11.0021 41.4958 10.7774 41.4958C10.6413 41.4958 10.5114 41.4857 10.3882 41.4647C10.265 41.4437 10.1553 41.4166 10.0572 41.3841C9.95974 41.353 9.87784 41.3205 9.81287 41.2867C9.74789 41.2528 9.70119 41.2217 9.67209 41.1919C9.64163 41.1621 9.61794 41.1175 9.60237 41.0552C9.58613 40.9943 9.57733 40.9029 9.57733 40.7811C9.57733 40.7021 9.58026 40.6387 9.58613 40.5909C9.59154 40.5428 9.59967 40.5029 9.60914 40.4751C9.62065 40.4467 9.63418 40.4271 9.6511 40.4169C9.666 40.4068 9.68698 40.4027 9.71202 40.4027C9.74112 40.4027 9.78512 40.4196 9.84333 40.4548C9.90153 40.4907 9.97395 40.5286 10.0613 40.5692C10.1472 40.6119 10.2481 40.6511 10.3631 40.687C10.4782 40.7235 10.6095 40.7418 10.755 40.7418C10.8464 40.7418 10.9296 40.7317 11.0007 40.712C11.0725 40.6938 11.1347 40.6653 11.1875 40.6288C11.2403 40.5936 11.2802 40.5482 11.308 40.4921C11.3344 40.4366 11.3479 40.3729 11.3479 40.3012C11.3479 40.2179 11.3236 40.1476 11.2735 40.088C11.222 40.0284 11.1557 39.9763 11.0738 39.933C10.9906 39.889 10.8965 39.8477 10.7929 39.8085C10.6887 39.7706 10.5804 39.7279 10.4714 39.6799C10.3618 39.6332 10.2535 39.5797 10.1499 39.5188C10.0457 39.4585 9.95162 39.3848 9.86837 39.2961C9.78647 39.2081 9.72014 39.1012 9.6687 38.978C9.61929 38.8541 9.59425 38.7046 9.59425 38.5306C9.59425 38.354 9.62877 38.1935 9.69645 38.0453C9.76481 37.8984 9.8616 37.7712 9.98884 37.667C10.1181 37.5621 10.2731 37.4802 10.4559 37.4226C10.64 37.3644 10.845 37.336 11.0738 37.336C11.1889 37.336 11.2985 37.3448 11.4061 37.3604C11.5131 37.3773 11.6112 37.3983 11.6972 37.4226C11.7845 37.4477 11.8583 37.4734 11.9178 37.5032C11.9774 37.5309 12.02 37.5566 12.0464 37.5763C12.0728 37.5973 12.0911 37.6176 12.1019 37.6385C12.1114 37.6595 12.1202 37.6839 12.1256 37.713C12.131 37.7414 12.1364 37.778 12.1405 37.8206C12.1446 37.8633 12.1459 37.9167 12.1459 37.9803C12.1459 38.0548 12.1446 38.1157 12.1405 38.1624C12.1364 38.2091 12.1297 38.247 12.1202 38.2741C12.11 38.3018 12.0979 38.3201 12.0809 38.3303C12.0647 38.3404 12.0451 38.3445 12.0241 38.3445C11.999 38.3445 11.9605 38.3303 11.909 38.3005C11.8583 38.2721 11.7926 38.2416 11.7154 38.2091C11.6376 38.1766 11.5476 38.1455 11.4467 38.1171C11.3439 38.0873 11.2274 38.0731 11.0975 38.0731C11.0048 38.0731 10.9242 38.0832 10.8565 38.1015C10.7882 38.1211 10.7327 38.1496 10.6887 38.1847C10.646 38.2199 10.6122 38.2626 10.5919 38.3106C10.5696 38.3587 10.5587 38.4108 10.5587 38.4643C10.5587 38.5502 10.5845 38.6227 10.6359 38.6802C10.6873 38.7384 10.7552 38.7894 10.8396 38.8332C10.9229 38.8765 11.0197 38.9191 11.1266 38.957C11.2329 38.9956 11.3425 39.0376 11.4522 39.0829C11.5618 39.1283 11.6708 39.1817 11.7777 39.2426C11.884 39.3029 11.9814 39.378 12.0647 39.4653C12.1486 39.5547 12.217 39.6589 12.2677 39.7814C12.3192 39.9046 12.3456 40.0501 12.3456 40.218ZM16.5433 41.263C16.5433 41.2896 16.5365 41.3135 16.523 41.3347C16.5101 41.3557 16.4864 41.3726 16.4519 41.3868C16.4187 41.3997 16.3741 41.4112 16.3179 41.418C16.2624 41.4254 16.1927 41.4281 16.1101 41.4281C16.0201 41.4281 15.9477 41.4254 15.8922 41.418C15.8367 41.4112 15.7927 41.3997 15.7609 41.3868C15.7277 41.3726 15.7054 41.3557 15.6912 41.3347C15.6776 41.3135 15.6708 41.2896 15.6708 41.263V40.8366C15.4712 41.0552 15.2675 41.2203 15.0597 41.3307C14.8517 41.4408 14.6369 41.4958 14.4153 41.4958C14.1662 41.4958 13.9558 41.4545 13.7865 41.3713C13.6173 41.2894 13.4806 41.175 13.3764 41.0329C13.2728 40.8887 13.1977 40.7235 13.1517 40.534C13.1077 40.3452 13.0853 40.109 13.0853 39.8281V37.5695C13.0853 37.5424 13.0921 37.5187 13.1077 37.4971C13.1226 37.4761 13.1503 37.4592 13.1896 37.445C13.2282 37.4321 13.2823 37.4213 13.3486 37.4138C13.415 37.4071 13.4969 37.4044 13.595 37.4044C13.6952 37.4044 13.7784 37.4071 13.8434 37.4138C13.9084 37.4213 13.9612 37.4321 13.9997 37.445C14.0397 37.4592 14.0674 37.4761 14.083 37.4971C14.0997 37.5183 14.108 37.5424 14.108 37.5695V39.6548C14.108 39.8477 14.1202 39.9946 14.1439 40.0968C14.1687 40.1997 14.2062 40.2872 14.2563 40.3594C14.3057 40.4325 14.37 40.4887 14.4471 40.53C14.5234 40.5697 14.6134 40.5895 14.7172 40.5895C14.8478 40.5895 14.9778 40.5415 15.1098 40.4454C15.2397 40.3493 15.3812 40.2078 15.5294 40.0244V37.5695C15.5294 37.5424 15.5362 37.5187 15.5517 37.4971C15.5666 37.4761 15.593 37.4592 15.6329 37.445C15.6722 37.4321 15.725 37.4213 15.7886 37.4138C15.8536 37.4071 15.9368 37.4044 16.0363 37.4044C16.1358 37.4044 16.2191 37.4071 16.2841 37.4138C16.3484 37.4213 16.4005 37.4321 16.4384 37.445C16.4756 37.4592 16.5033 37.4761 16.5182 37.4971C16.5349 37.5183 16.5433 37.5424 16.5433 37.5695V41.263ZM19.899 37.914C19.899 38.0128 19.8963 38.0947 19.8909 38.1577C19.8855 38.2213 19.8767 38.2707 19.8672 38.3066C19.8564 38.3418 19.8408 38.3668 19.8239 38.381C19.8063 38.3952 19.784 38.4007 19.7562 38.4007C19.7352 38.4007 19.7109 38.3966 19.6831 38.3864C19.6567 38.377 19.6262 38.3668 19.5917 38.356C19.5579 38.3445 19.5207 38.3343 19.4807 38.3249C19.4388 38.3147 19.3948 38.3106 19.346 38.3106C19.2892 38.3106 19.2323 38.3215 19.1755 38.3458C19.1193 38.3695 19.0597 38.4054 18.9981 38.4562C18.9372 38.5056 18.8736 38.5719 18.8073 38.6538C18.741 38.737 18.6699 38.8386 18.5941 38.9597V41.263C18.5941 41.2896 18.5857 41.3135 18.569 41.3347C18.5535 41.3557 18.5257 41.3726 18.4858 41.3868C18.4472 41.3997 18.3944 41.4112 18.3308 41.418C18.2658 41.4254 18.1826 41.4281 18.0824 41.4281C17.9829 41.4281 17.8997 41.4254 17.8347 41.418C17.7711 41.4112 17.7183 41.3997 17.6797 41.3868C17.6391 41.3726 17.612 41.3557 17.5964 41.3347C17.5797 41.3135 17.5714 41.2896 17.5714 41.263V37.5695C17.5714 37.5424 17.5784 37.5183 17.5924 37.4971C17.6046 37.4761 17.6296 37.4592 17.6641 37.445C17.7 37.4321 17.7447 37.4213 17.8002 37.4138C17.8557 37.4071 17.926 37.4044 18.0093 37.4044C18.0966 37.4044 18.167 37.4071 18.2239 37.4138C18.2807 37.4213 18.3254 37.4321 18.3572 37.445C18.3876 37.4592 18.41 37.4761 18.4235 37.4971C18.4375 37.5183 18.4445 37.5424 18.4445 37.5695V38.0298C18.5386 37.891 18.6286 37.778 18.7118 37.6893C18.7965 37.6006 18.8763 37.5282 18.9514 37.4761C19.0273 37.424 19.1037 37.3874 19.1802 37.3671C19.2547 37.3462 19.3312 37.336 19.407 37.336C19.4415 37.336 19.4807 37.3374 19.5207 37.3421C19.5613 37.3462 19.6039 37.3529 19.6466 37.3631C19.6899 37.3732 19.7285 37.3841 19.7603 37.3956C19.7934 37.4084 19.8171 37.4213 19.8327 37.4348C19.8462 37.449 19.8577 37.4646 19.8645 37.4802C19.8713 37.4971 19.8767 37.5201 19.8821 37.5492C19.8882 37.5776 19.8922 37.6216 19.895 37.6792C19.8977 37.7374 19.899 37.8152 19.899 37.914ZM23.428 41.2752C23.428 41.3137 23.4138 41.3435 23.3874 41.3659C23.3597 41.3882 23.317 41.4038 23.2588 41.4139C23.2006 41.4234 23.1146 41.4281 22.9996 41.4281C22.8777 41.4281 22.7891 41.4234 22.7336 41.4139C22.6781 41.4038 22.6381 41.3882 22.6158 41.3659C22.5921 41.3435 22.5813 41.3137 22.5813 41.2752V40.9821C22.4317 41.1439 22.2625 41.2697 22.0716 41.3604C21.8815 41.4505 21.6696 41.4958 21.4368 41.4958C21.2459 41.4958 21.0686 41.4701 20.9075 41.4193C20.7471 41.3686 20.6083 41.2921 20.4906 41.1919C20.3728 41.0904 20.2814 40.9665 20.2164 40.8183C20.1515 40.668 20.119 40.4948 20.119 40.2971C20.119 40.0812 20.1609 39.8944 20.2428 39.7367C20.3261 39.577 20.4493 39.447 20.6124 39.3428C20.7762 39.2393 20.9786 39.1634 21.2222 39.114C21.4645 39.0646 21.7474 39.0389 22.0683 39.0389H22.4216V38.8162C22.4216 38.6998 22.4107 38.5983 22.387 38.511C22.3654 38.425 22.3261 38.3513 22.2733 38.2937C22.2212 38.2355 22.1515 38.1935 22.0628 38.1651C21.9755 38.138 21.8666 38.1238 21.7373 38.1238C21.5674 38.1238 21.4144 38.1441 21.2818 38.182C21.1471 38.2199 21.0293 38.2639 20.9271 38.3106C20.8242 38.3573 20.739 38.4007 20.6692 38.4392C20.6002 38.4771 20.5447 38.4968 20.5014 38.4968C20.4709 38.4968 20.4452 38.4873 20.4229 38.4683C20.3992 38.4487 20.3796 38.421 20.366 38.3851C20.3505 38.3499 20.3396 38.3045 20.3315 38.2524C20.3227 38.2003 20.3186 38.1428 20.3186 38.0805C20.3186 37.9943 20.3256 37.9264 20.3396 37.8768C20.3518 37.8274 20.3782 37.7841 20.4161 37.7428C20.4547 37.7035 20.5197 37.6595 20.6151 37.6115C20.7092 37.5634 20.8202 37.5187 20.9481 37.4775C21.0753 37.435 21.2139 37.4012 21.3637 37.3759C21.5146 37.3489 21.6696 37.336 21.8287 37.336C22.1129 37.336 22.3552 37.3644 22.5576 37.4213C22.7586 37.4775 22.9251 37.5648 23.0537 37.6825C23.1837 37.7996 23.2798 37.9506 23.3393 38.1353C23.3989 38.3188 23.428 38.5394 23.428 38.7919V41.2752ZM22.4216 39.6914H22.0324C21.8679 39.6914 21.7278 39.7042 21.6114 39.7279C21.495 39.7536 21.4009 39.7902 21.3271 39.841C21.254 39.8904 21.2012 39.9492 21.1681 40.0203C21.1336 40.0907 21.1166 40.1712 21.1166 40.2613C21.1166 40.4169 21.1654 40.5381 21.2608 40.6261C21.3562 40.7147 21.4896 40.7587 21.6601 40.7587C21.8029 40.7587 21.9342 40.7215 22.0547 40.6471C22.1752 40.5719 22.297 40.4636 22.4216 40.3195V39.6914ZM27.9053 41.263C27.9053 41.2896 27.8969 41.3135 27.8802 41.3347C27.8653 41.3557 27.8376 41.3726 27.8003 41.3868C27.7611 41.3997 27.709 41.4112 27.642 41.418C27.5756 41.4254 27.4937 41.4281 27.397 41.4281C27.2961 41.4281 27.2129 41.4254 27.1465 41.418C27.0795 41.4112 27.0267 41.3997 26.9881 41.3868C26.9509 41.3726 26.9232 41.3557 26.9076 41.3347C26.8914 41.3135 26.8832 41.2896 26.8832 41.263V39.158C26.8832 38.9787 26.8704 38.8372 26.844 38.7357C26.8189 38.6328 26.7817 38.5448 26.7337 38.4731C26.6849 38.3993 26.6213 38.3431 26.5448 38.3018C26.4677 38.2626 26.379 38.243 26.2761 38.243C26.1462 38.243 26.0155 38.291 25.8829 38.3885C25.7509 38.4846 25.6128 38.6254 25.47 38.8088V41.263C25.47 41.2896 25.4617 41.3135 25.445 41.3347C25.4294 41.3557 25.4017 41.3726 25.3617 41.3868C25.3231 41.3997 25.2703 41.4112 25.2067 41.418C25.1418 41.4254 25.0585 41.4281 24.9583 41.4281C24.8588 41.4281 24.7756 41.4254 24.7106 41.418C24.647 41.4112 24.5942 41.3997 24.5556 41.3868C24.515 41.3726 24.4873 41.3557 24.4724 41.3347C24.4557 41.3135 24.4473 41.2896 24.4473 41.263V37.5695C24.4473 37.5424 24.4543 37.5183 24.4683 37.4971C24.4805 37.4761 24.5055 37.4592 24.54 37.445C24.5759 37.4321 24.6206 37.4213 24.6761 37.4138C24.7316 37.4071 24.802 37.4044 24.8852 37.4044C24.9725 37.4044 25.0429 37.4071 25.0998 37.4138C25.1566 37.4213 25.2013 37.4321 25.2331 37.445C25.2636 37.4592 25.2859 37.4761 25.2995 37.4971C25.3134 37.5183 25.3204 37.5424 25.3204 37.5695V37.9959C25.5194 37.7753 25.7231 37.6115 25.9309 37.5018C26.1374 37.3915 26.354 37.3367 26.578 37.3367C26.825 37.3367 27.0328 37.3773 27.2013 37.4605C27.3706 37.5424 27.5066 37.6555 27.6115 37.7983C27.7157 37.9391 27.7902 38.1056 27.8362 38.2964C27.8816 38.4873 27.9053 38.7161 27.9053 38.9827V41.263ZM31.6434 40.6741C31.6434 40.7459 31.642 40.8054 31.638 40.8548C31.6339 40.9027 31.6283 40.9435 31.6211 40.9774C31.6143 41.0098 31.6059 41.0367 31.596 41.0579C31.5865 41.0796 31.5656 41.1046 31.5337 41.1371C31.5006 41.1682 31.4451 41.2075 31.3679 41.2528C31.2887 41.2982 31.2001 41.3388 31.0985 41.376C30.9991 41.4112 30.8908 41.441 30.773 41.462C30.6552 41.4843 30.5334 41.4958 30.4089 41.4958C30.1307 41.4958 29.8836 41.4518 29.6691 41.3632C29.4532 41.2758 29.2731 41.1445 29.1263 40.9719C28.9807 40.8 28.8697 40.5882 28.796 40.3398C28.7215 40.0907 28.6843 39.8071 28.6843 39.487C28.6843 39.1167 28.7296 38.7966 28.8197 38.5279C28.911 38.2585 29.0376 38.0352 29.1994 37.8592C29.3618 37.6825 29.554 37.5512 29.776 37.4646C29.9973 37.3786 30.241 37.3367 30.507 37.3367C30.6153 37.3367 30.7209 37.3462 30.8258 37.3658C30.93 37.3847 31.0268 37.4111 31.1182 37.4436C31.2082 37.4775 31.2901 37.514 31.3605 37.5553C31.4329 37.5979 31.4843 37.6331 31.5128 37.6643C31.5439 37.6934 31.5642 37.7191 31.5771 37.7401C31.5879 37.7617 31.5974 37.7881 31.6048 37.8206C31.6116 37.8545 31.617 37.8955 31.6211 37.9438C31.6251 37.9932 31.6265 38.0507 31.6265 38.1198C31.6265 38.2809 31.6143 38.3939 31.5865 38.4589C31.5588 38.5238 31.5243 38.5563 31.481 38.5563C31.4356 38.5563 31.3855 38.5367 31.3341 38.4981C31.2833 38.4602 31.2224 38.4162 31.1513 38.3702C31.0823 38.3235 30.9977 38.2795 30.9009 38.2416C30.8034 38.203 30.6877 38.1834 30.5517 38.1834C30.2857 38.1834 30.0833 38.2883 29.9418 38.4954C29.8024 38.7046 29.7313 39.0098 29.7313 39.4118C29.7313 39.6095 29.7496 39.7848 29.7841 39.9371C29.82 40.088 29.8714 40.2152 29.9405 40.3168C30.0102 40.4183 30.0955 40.4961 30.1997 40.5469C30.3053 40.5977 30.4258 40.6234 30.5638 40.6234C30.704 40.6234 30.8258 40.6024 30.9273 40.5584C31.0282 40.5158 31.1168 40.4677 31.1933 40.4156C31.2678 40.3635 31.3314 40.3154 31.3842 40.2735C31.4356 40.2295 31.4782 40.2085 31.5128 40.2085C31.5378 40.2085 31.5574 40.2152 31.5744 40.2295C31.5906 40.2437 31.6035 40.2687 31.6129 40.3059C31.6224 40.3438 31.6292 40.3919 31.6353 40.4494C31.6407 40.5076 31.6434 40.5825 31.6434 40.6741ZM35.7288 39.3103C35.7288 39.4376 35.701 39.5303 35.6455 39.5912C35.5907 39.6521 35.5142 39.6833 35.4161 39.6833H33.2103C33.2103 39.8396 33.2285 39.9811 33.2658 40.1097C33.3016 40.2362 33.3598 40.3452 33.439 40.4339C33.5189 40.5232 33.6218 40.5909 33.7477 40.6376C33.8736 40.6843 34.0231 40.708 34.1991 40.708C34.3785 40.708 34.5348 40.6951 34.6702 40.6687C34.8049 40.6416 34.9226 40.6132 35.0208 40.5807C35.1196 40.5482 35.2008 40.5205 35.2665 40.4934C35.3314 40.4663 35.3842 40.4542 35.4242 40.4542C35.4492 40.4542 35.4695 40.4582 35.4851 40.4677C35.502 40.4779 35.5155 40.4948 35.5264 40.5205C35.5365 40.5442 35.5447 40.5794 35.5487 40.6247C35.5528 40.6701 35.5541 40.7276 35.5541 40.7953C35.5541 40.8562 35.5528 40.9083 35.5501 40.951C35.5474 40.9929 35.5433 41.0301 35.5379 41.0593C35.5325 41.0904 35.525 41.1161 35.5142 41.1357C35.5034 41.1567 35.4892 41.177 35.4709 41.1966C35.4533 41.2149 35.4059 41.242 35.3274 41.2758C35.2482 41.3097 35.1487 41.3422 35.0269 41.3747C34.9044 41.4071 34.7663 41.4349 34.6093 41.4593C34.4529 41.4829 34.2851 41.4958 34.1064 41.4958C33.7835 41.4958 33.5027 41.4552 33.2603 41.3713C33.0187 41.2894 32.817 41.1642 32.6532 40.9963C32.4915 40.8278 32.3703 40.6146 32.2904 40.3594C32.2113 40.1022 32.1713 39.8017 32.1713 39.4572C32.1713 39.1296 32.2126 38.8345 32.2972 38.5705C32.3802 38.3079 32.5021 38.0848 32.6627 37.9012C32.8224 37.7175 33.0165 37.5776 33.2448 37.4815C33.4749 37.3847 33.7328 37.3367 34.0191 37.3367C34.323 37.3367 34.5815 37.3813 34.7968 37.4734C35.0127 37.5634 35.1886 37.6907 35.3274 37.8517C35.4641 38.0128 35.567 38.2051 35.632 38.425C35.6969 38.645 35.7288 38.8853 35.7288 39.1452V39.3103ZM34.7399 39.0139C34.748 38.7215 34.6898 38.4914 34.5666 38.3249C34.4434 38.1563 34.2533 38.0731 33.9961 38.0731C33.8654 38.0731 33.7517 38.0988 33.6563 38.1482C33.5595 38.1976 33.479 38.2639 33.4153 38.3485C33.3517 38.4331 33.303 38.532 33.2698 38.6463C33.2353 38.7621 33.2157 38.8839 33.2103 39.0139H34.7399ZM42.3082 39.7956C42.3082 39.9865 42.2818 40.1584 42.2311 40.3141C42.1796 40.4677 42.1086 40.6051 42.0185 40.7235C41.9272 40.842 41.8196 40.9435 41.695 41.0301C41.5685 41.1161 41.4304 41.1851 41.2788 41.2413C41.1278 41.2968 40.9661 41.3374 40.7942 41.3632C40.6222 41.3895 40.4314 41.4024 40.2209 41.4024H38.8253C38.7368 41.4024 38.6621 41.3756 38.6012 41.3219C38.5403 41.2682 38.5098 41.1806 38.5098 41.0593V36.3918C38.5098 36.2704 38.5403 36.1829 38.6012 36.1292C38.6621 36.0755 38.7368 36.0487 38.8253 36.0487H40.1417C40.4632 36.0487 40.7346 36.0771 40.958 36.1319C41.1806 36.1874 41.3674 36.2707 41.5204 36.3817C41.674 36.4933 41.7905 36.6348 41.8703 36.8054C41.9522 36.9766 41.9928 37.1769 41.9928 37.4084C41.9928 37.5384 41.9759 37.6595 41.9441 37.7739C41.9123 37.8883 41.8636 37.9925 41.8026 38.0859C41.7404 38.1807 41.6646 38.2626 41.5725 38.3343C41.4825 38.4068 41.3803 38.4643 41.2639 38.5083C41.4121 38.5367 41.5509 38.5848 41.6767 38.6538C41.8026 38.7228 41.9121 38.8117 42.005 38.9205C42.0991 39.0294 42.1729 39.158 42.227 39.3029C42.2805 39.4497 42.3082 39.6135 42.3082 39.7956ZM40.9288 37.5397C40.9288 37.4321 40.9119 37.3367 40.8801 37.25C40.8483 37.1654 40.7996 37.0937 40.7346 37.0368C40.6696 36.9807 40.5877 36.938 40.4896 36.9069C40.3908 36.8778 40.2595 36.8622 40.0943 36.8622H39.5569V38.2511H40.1512C40.3048 38.2511 40.4287 38.2328 40.52 38.1949C40.6112 38.1579 40.6872 38.1071 40.7481 38.0426C40.809 37.9776 40.8537 37.9012 40.8842 37.8152C40.9133 37.7272 40.9288 37.6372 40.9288 37.5397ZM41.203 39.8355C41.203 39.711 41.182 39.5993 41.142 39.5005C41.1019 39.4035 41.0423 39.3216 40.9634 39.2548C40.8855 39.1885 40.786 39.1377 40.6642 39.1012C40.5417 39.066 40.384 39.0477 40.1884 39.0477H39.5569V40.5726H40.3271C40.4754 40.5726 40.5999 40.557 40.7028 40.5246C40.8036 40.4934 40.8909 40.4454 40.9661 40.3831C41.0392 40.3208 41.0974 40.245 41.1407 40.1516C41.182 40.0596 41.203 39.954 41.203 39.8355ZM45.4379 37.914C45.4379 38.0128 45.4352 38.0947 45.4298 38.1584C45.4244 38.2213 45.4162 38.2707 45.4061 38.3066C45.3953 38.3418 45.3797 38.3668 45.3634 38.381C45.3452 38.3952 45.3228 38.4007 45.2958 38.4007C45.2748 38.4007 45.2497 38.3966 45.222 38.3871C45.1956 38.377 45.1651 38.3668 45.1306 38.356C45.0975 38.3445 45.0595 38.3343 45.0196 38.3249C44.9783 38.3147 44.9337 38.3106 44.8856 38.3106C44.8288 38.3106 44.7719 38.3221 44.715 38.3458C44.6582 38.3702 44.5986 38.4054 44.5377 38.4562C44.4768 38.5056 44.4132 38.5719 44.3462 38.6538C44.2798 38.737 44.2094 38.8386 44.133 38.9597V41.263C44.133 41.2896 44.1246 41.3135 44.1079 41.3347C44.093 41.3557 44.0653 41.3726 44.0247 41.3868C43.9861 41.3997 43.9333 41.4112 43.8697 41.418C43.8047 41.4254 43.7215 41.4281 43.622 41.4281C43.5218 41.4281 43.4392 41.4254 43.3736 41.418C43.3099 41.4112 43.2571 41.3997 43.2186 41.3868C43.1786 41.3726 43.1509 41.3557 43.1353 41.3347C43.1186 41.3135 43.1103 41.2896 43.1103 41.263V37.5695C43.1103 37.5424 43.1173 37.5183 43.1313 37.4971C43.1441 37.4761 43.1685 37.4592 43.2037 37.445C43.2396 37.4321 43.2835 37.4213 43.339 37.4138C43.3945 37.4071 43.4656 37.4044 43.5482 37.4044C43.6355 37.4044 43.7066 37.4071 43.7634 37.4138C43.8196 37.4213 43.8643 37.4321 43.8961 37.445C43.9265 37.4592 43.9489 37.4761 43.9624 37.4971C43.9764 37.5183 43.9834 37.5424 43.9834 37.5695V38.0298C44.0775 37.891 44.1675 37.778 44.2507 37.6893C44.3353 37.6006 44.4159 37.5282 44.4903 37.4761C44.5668 37.424 44.6426 37.3874 44.7191 37.3671C44.7942 37.3462 44.87 37.3367 44.9465 37.3367C44.981 37.3367 45.0196 37.338 45.0596 37.3421C45.1002 37.3462 45.1428 37.3536 45.1861 37.3631C45.2288 37.3732 45.2673 37.3847 45.2998 37.3956C45.333 37.4084 45.3567 37.4213 45.3716 37.4355C45.3858 37.449 45.3966 37.4646 45.4034 37.4802C45.4101 37.4971 45.4162 37.5201 45.4217 37.5499C45.4271 37.5776 45.4311 37.6216 45.4338 37.6792C45.4365 37.7374 45.4379 37.8152 45.4379 37.914ZM49.6221 39.3794C49.6221 39.6927 49.5821 39.9797 49.5002 40.2389C49.4183 40.4975 49.2965 40.7208 49.13 40.9083C48.9655 41.0965 48.7591 41.24 48.5094 41.3435C48.2603 41.445 47.9695 41.4958 47.6369 41.4958C47.3141 41.4958 47.0339 41.4505 46.7956 41.3591C46.5574 41.2684 46.3597 41.1357 46.2027 40.9618C46.0464 40.7885 45.93 40.5753 45.8535 40.3208C45.7777 40.0684 45.7398 39.7787 45.7398 39.4525C45.7398 39.1391 45.7817 38.8514 45.8636 38.5915C45.9469 38.3303 46.0701 38.1069 46.2359 37.9208C46.401 37.7358 46.6075 37.5918 46.8552 37.489C47.1022 37.3874 47.3926 37.3367 47.7256 37.3367C48.0511 37.3367 48.332 37.3813 48.5703 37.4707C48.8085 37.5607 49.0055 37.692 49.1605 37.866C49.3175 38.0392 49.4326 38.2524 49.5084 38.5069C49.5848 38.7594 49.6221 39.0504 49.6221 39.3794ZM48.5743 39.42C48.5743 39.2379 48.5608 39.07 48.5317 38.9178C48.5026 38.7634 48.4552 38.6308 48.3862 38.5184C48.3185 38.4054 48.2285 38.3161 48.1161 38.2524C48.0024 38.1888 47.861 38.1584 47.689 38.1584C47.5368 38.1584 47.4041 38.1861 47.289 38.243C47.1753 38.2991 47.0812 38.3824 47.0075 38.4914C46.9344 38.5996 46.8789 38.731 46.843 38.8839C46.8058 39.0376 46.7875 39.2115 46.7875 39.4078C46.7875 39.5898 46.8031 39.7577 46.8322 39.91C46.8626 40.0643 46.9107 40.197 46.977 40.31C47.044 40.423 47.134 40.5103 47.2491 40.5726C47.3624 40.6344 47.5036 40.6653 47.6728 40.6653C47.8278 40.6653 47.9625 40.6376 48.0775 40.5807C48.1912 40.5246 48.2853 40.4427 48.3584 40.335C48.4322 40.2267 48.4857 40.0968 48.5222 39.9438C48.5567 39.7902 48.5743 39.6162 48.5743 39.42Z" fill="#002055"/>
<path fill-rule="evenodd" clip-rule="evenodd" d="M53.8011 41.2658C53.8011 41.2922 53.7944 41.3165 53.7795 41.3375C53.7639 41.3585 53.7375 41.3741 53.6976 41.3869C53.6583 41.3998 53.6048 41.4099 53.5365 41.4167C53.4688 41.4235 53.3815 41.4269 53.2718 41.4269C53.1613 41.4269 53.0713 41.4239 53.0018 41.4181C52.9328 41.4126 52.8759 41.4038 52.8319 41.391C52.7872 41.3788 52.7527 41.3619 52.7277 41.3389C52.7026 41.3179 52.6817 41.2881 52.6627 41.2529L51.4573 39.307V41.2617C51.4573 41.2883 51.4489 41.3122 51.4322 41.3335C51.4173 41.3544 51.3896 41.3714 51.349 41.3856C51.3104 41.3984 51.2576 41.4099 51.194 41.4167C51.129 41.4235 51.0457 41.4269 50.9463 41.4269C50.8461 41.4269 50.7628 41.4235 50.6979 41.4167C50.6342 41.4099 50.5814 41.3984 50.5429 41.3856C50.5029 41.3714 50.4752 41.3544 50.4596 41.3335C50.4429 41.3122 50.4346 41.2883 50.4346 41.2617V35.8186C50.4346 35.7902 50.4434 35.7665 50.4596 35.7435C50.4752 35.7225 50.5029 35.7029 50.5429 35.6887C50.5814 35.6731 50.6342 35.6616 50.6979 35.6535C50.7628 35.6447 50.8461 35.6406 50.9463 35.6406C51.0457 35.6406 51.129 35.6447 51.194 35.6535C51.2576 35.6616 51.3104 35.6731 51.349 35.6887C51.3896 35.7029 51.4173 35.7225 51.4322 35.7435C51.4491 35.7665 51.4573 35.7902 51.4573 35.8186V39.0586L52.5294 37.5892C52.5517 37.5554 52.5754 37.527 52.6031 37.5012C52.6295 37.4775 52.6654 37.4579 52.7094 37.4437C52.7541 37.4308 52.8096 37.4193 52.8759 37.4126C52.9422 37.4058 53.0268 37.4024 53.1297 37.4024C53.2292 37.4024 53.3138 37.4058 53.3828 37.4126C53.4505 37.4193 53.506 37.4308 53.5493 37.4437C53.5906 37.4579 53.6197 37.4748 53.6353 37.4958C53.652 37.517 53.6604 37.5425 53.6604 37.5723C53.6604 37.6129 53.6502 37.6583 53.6299 37.705C53.6089 37.7517 53.5785 37.8011 53.5378 37.8545L52.48 39.0803L53.7084 41.0126C53.7402 41.0681 53.7639 41.1162 53.7795 41.1555C53.7944 41.1947 53.8011 41.2319 53.8011 41.2658ZM57.5393 39.3091C57.5393 39.4356 57.5115 39.529 57.456 39.5899C57.4005 39.6502 57.3247 39.6813 57.2259 39.6813H55.0208C55.0208 39.8383 55.0384 39.9791 55.0763 40.1077C55.1122 40.235 55.1704 40.3439 55.2489 40.4326C55.3294 40.5213 55.4323 40.5896 55.5582 40.6356C55.6841 40.6823 55.8337 40.7067 56.0096 40.7067C56.1883 40.7067 56.3447 40.6939 56.4807 40.6668C56.6154 40.6404 56.7332 40.612 56.8313 40.5795C56.9294 40.547 57.0113 40.5186 57.0763 40.4922C57.1413 40.4651 57.1941 40.4522 57.2347 40.4522C57.2597 40.4522 57.28 40.4563 57.2956 40.4664C57.3119 40.4766 57.3261 40.4935 57.3369 40.5186C57.3464 40.5429 57.3552 40.5781 57.3592 40.6235C57.3633 40.6681 57.3646 40.7263 57.3646 40.794C57.3646 40.8549 57.3633 40.9071 57.3606 40.9497C57.3579 40.9917 57.3538 41.0282 57.3484 41.058C57.3423 41.0891 57.3355 41.1148 57.3247 41.1345C57.3132 41.1554 57.2997 41.1751 57.2814 41.1947C57.2638 41.2137 57.2164 41.2401 57.1372 41.2739C57.0587 41.3077 56.9586 41.3402 56.8367 41.3727C56.7149 41.4052 56.5761 41.4336 56.4198 41.4573C56.2634 41.4817 56.0956 41.4945 55.9169 41.4945C55.5941 41.4945 55.3132 41.4533 55.0702 41.37C54.8292 41.2881 54.6269 41.1622 54.4637 40.9944C54.3013 40.8265 54.1808 40.6133 54.1003 40.3581C54.0218 40.1009 53.9812 39.7998 53.9812 39.4559C53.9812 39.1283 54.0231 38.8332 54.1077 38.5686C54.1908 38.3064 54.3126 38.0835 54.4732 37.8999C54.6325 37.7162 54.8265 37.5764 55.0553 37.4803C55.2854 37.3828 55.5426 37.3347 55.8296 37.3347C56.1328 37.3347 56.392 37.3801 56.6066 37.4721C56.8232 37.5622 56.9992 37.6894 57.1372 37.8505C57.2746 38.0116 57.3775 38.2031 57.4425 38.4238C57.5075 38.6437 57.5393 38.884 57.5393 39.1432V39.3091ZM56.5497 39.0126C56.5585 38.7209 56.5003 38.4908 56.3772 38.3236C56.2533 38.1557 56.0638 38.0725 55.8059 38.0725C55.676 38.0725 55.5622 38.0982 55.4668 38.1476C55.3693 38.197 55.2895 38.2633 55.2259 38.348C55.1616 38.4326 55.1135 38.5314 55.0803 38.6458C55.0458 38.7615 55.0262 38.8833 55.0208 39.0126H56.5497ZM60.7102 37.9127C60.7102 38.0122 60.7075 38.0941 60.7014 38.1571C60.696 38.2207 60.6879 38.2701 60.6784 38.3053C60.6669 38.3405 60.652 38.3662 60.6351 38.3804C60.6168 38.3947 60.5952 38.4001 60.5674 38.4001C60.5464 38.4001 60.5214 38.396 60.4936 38.3859C60.4672 38.3764 60.4368 38.3662 60.4023 38.3547C60.3691 38.3439 60.3319 38.3337 60.2913 38.3236C60.25 38.3141 60.206 38.31 60.1573 38.31C60.1004 38.31 60.0435 38.3209 59.9867 38.3452C59.9298 38.3689 59.8703 38.4041 59.8094 38.4549C59.7485 38.5043 59.6848 38.5713 59.6185 38.6532C59.5515 38.7365 59.4811 38.838 59.4046 38.9591V41.2617C59.4046 41.2888 59.3965 41.3129 59.3803 41.3341C59.3647 41.3551 59.3369 41.372 59.297 41.3862C59.2577 41.3991 59.2056 41.4099 59.1413 41.4174C59.0764 41.4242 58.9931 41.4275 58.8936 41.4275C58.7941 41.4275 58.7109 41.4242 58.6459 41.4174C58.5823 41.4099 58.5295 41.3991 58.4902 41.3862C58.4503 41.372 58.4225 41.3551 58.4076 41.3341C58.391 41.3129 58.3826 41.2888 58.3826 41.2617V37.5682C58.3826 37.5416 58.3894 37.5177 58.4029 37.4965C58.4158 37.4755 58.4408 37.4586 58.4753 37.4444C58.5112 37.4315 58.5559 37.42 58.6107 37.4132C58.6662 37.4065 58.7373 37.4031 58.8205 37.4031C58.9078 37.4031 58.9782 37.4065 59.0351 37.4132C59.0919 37.42 59.1359 37.4315 59.1677 37.4444C59.1982 37.4586 59.2205 37.4755 59.2347 37.4965C59.2483 37.5177 59.255 37.5416 59.255 37.5682V38.0292C59.3498 37.8904 59.4398 37.7774 59.5224 37.6887C59.607 37.5994 59.6875 37.5276 59.7627 37.4755C59.8385 37.4234 59.915 37.3862 59.9908 37.3665C60.0659 37.3456 60.1417 37.3354 60.2182 37.3354C60.2527 37.3354 60.2913 37.3368 60.3319 37.3415C60.3718 37.3456 60.4151 37.3523 60.4578 37.3625C60.5004 37.3726 60.5397 37.3835 60.5715 37.395C60.6046 37.4078 60.6283 37.42 60.6432 37.4342C60.6574 37.4484 60.6683 37.464 60.675 37.4796C60.6825 37.4965 60.6879 37.5188 60.6933 37.5486C60.6987 37.577 60.7028 37.621 60.7055 37.6786C60.7089 37.7368 60.7102 37.8139 60.7102 37.9127ZM63.7885 40.2174C63.7885 40.4263 63.7497 40.6113 63.672 40.7724C63.5956 40.9314 63.4866 41.0641 63.3451 41.173C63.2037 41.2807 63.0372 41.3605 62.845 41.4147C62.6521 41.4681 62.4443 41.4952 62.2202 41.4952C62.0842 41.4952 61.9542 41.4851 61.8311 41.4641C61.7072 41.4424 61.5982 41.416 61.4994 41.3835C61.4026 41.3524 61.3207 41.3199 61.2558 41.2861C61.1908 41.2522 61.1434 41.2211 61.1143 41.1913C61.0838 41.1615 61.0601 41.1169 61.0453 41.0546C61.0283 40.9937 61.0202 40.9023 61.0202 40.7805C61.0202 40.7015 61.0229 40.6379 61.0283 40.5896C61.0344 40.5422 61.0426 40.5023 61.052 40.4739C61.0635 40.4461 61.0771 40.4265 61.094 40.4163C61.1089 40.4062 61.1299 40.4021 61.1549 40.4021C61.184 40.4021 61.228 40.4191 61.2862 40.4543C61.3444 40.4894 61.4162 40.528 61.5035 40.5686C61.5894 40.6113 61.691 40.6505 61.806 40.6857C61.9211 40.723 62.0524 40.7412 62.1979 40.7412C62.2893 40.7412 62.3725 40.7311 62.4429 40.7114C62.5153 40.6932 62.5776 40.6647 62.6304 40.6282C62.6825 40.593 62.7231 40.5477 62.7509 40.4915C62.7773 40.436 62.7908 40.3724 62.7908 40.3006C62.7908 40.2174 62.7658 40.1463 62.7164 40.0874C62.6649 40.0278 62.5979 39.9757 62.5167 39.9317C62.4334 39.8884 62.3394 39.8471 62.2351 39.8079C62.1316 39.77 62.0233 39.7273 61.9136 39.6793C61.8047 39.6326 61.6964 39.5791 61.5921 39.5182C61.4886 39.458 61.3945 39.3842 61.3113 39.2955C61.2294 39.2075 61.163 39.1006 61.1116 38.9774C61.0615 38.8535 61.0371 38.704 61.0371 38.53C61.0371 38.3534 61.0717 38.1923 61.1393 38.0441C61.207 37.8979 61.3045 37.7706 61.4317 37.6657C61.5603 37.5615 61.716 37.4796 61.8987 37.422C62.0828 37.3638 62.2879 37.3354 62.5167 37.3354C62.6318 37.3354 62.7407 37.3442 62.849 37.3598C62.956 37.3767 63.0541 37.3977 63.1401 37.422C63.2274 37.4471 63.3005 37.4728 63.36 37.5019C63.4196 37.5303 63.4629 37.5561 63.4893 37.5757C63.5157 37.5967 63.5333 37.6163 63.5448 37.638C63.5543 37.6589 63.5624 37.6826 63.5678 37.7124C63.5739 37.7408 63.5793 37.7774 63.5834 37.82C63.5874 37.862 63.5888 37.9161 63.5888 37.9798C63.5888 38.0542 63.5874 38.1151 63.5834 38.1618C63.5793 38.2078 63.5725 38.2464 63.5624 38.2728C63.5529 38.3012 63.5401 38.3195 63.5238 38.3297C63.5069 38.3392 63.4879 38.3439 63.467 38.3439C63.4419 38.3439 63.4033 38.3297 63.3519 38.2999C63.3005 38.2715 63.2355 38.2403 63.1576 38.2078C63.0805 38.1754 62.9905 38.1449 62.8889 38.1165C62.7867 38.0867 62.6703 38.0725 62.5404 38.0725C62.447 38.0725 62.3671 38.0826 62.2988 38.1009C62.2311 38.1205 62.1756 38.149 62.1316 38.1842C62.0883 38.2194 62.0551 38.262 62.0341 38.31C62.0125 38.3581 62.0009 38.4102 62.0009 38.4637C62.0009 38.5496 62.0273 38.6221 62.0788 38.6796C62.1302 38.7374 62.1981 38.7881 62.2825 38.8319C62.3658 38.8759 62.4625 38.9185 62.5688 38.9564C62.6757 38.9943 62.7854 39.037 62.895 39.0823C63.004 39.127 63.1137 39.1811 63.2206 39.2414C63.3269 39.3023 63.4236 39.3774 63.5069 39.4647C63.5915 39.5534 63.6592 39.6583 63.7106 39.7808C63.7621 39.904 63.7885 40.0495 63.7885 40.2174ZM70.0891 37.6745C70.0891 37.9764 70.0437 38.2417 69.9503 38.4738C69.859 38.7067 69.7249 38.9016 69.5476 39.0593C69.3716 39.219 69.1557 39.3388 68.8992 39.4221C68.6427 39.5053 68.3408 39.5466 67.9929 39.5466H67.5537V41.2536C67.5537 41.282 67.5455 41.3057 67.5273 41.328C67.5097 41.3497 67.4806 41.368 67.4406 41.3822C67.4 41.3964 67.3459 41.4059 67.2782 41.4147C67.2119 41.4228 67.1246 41.4275 67.0203 41.4275C66.9179 41.4275 66.8322 41.4232 66.7631 41.4147C66.6934 41.4059 66.6393 41.395 66.5993 41.3822C66.5594 41.368 66.5303 41.3497 66.5147 41.328C66.4985 41.3057 66.4897 41.2807 66.4897 41.2536V36.4379C66.4897 36.308 66.5231 36.2105 66.5899 36.1455C66.6562 36.0806 66.7435 36.0481 66.8518 36.0481H68.0897C68.2149 36.0481 68.3341 36.0521 68.4464 36.0623C68.5581 36.0718 68.6928 36.0934 68.8505 36.1246C69.0075 36.1564 69.1666 36.2146 69.327 36.3005C69.4881 36.3851 69.6261 36.4941 69.7398 36.6254C69.8535 36.7567 69.9409 36.909 70.0004 37.0857C70.06 37.261 70.0891 37.4572 70.0891 37.6745ZM68.975 37.7537C68.975 37.5655 68.9419 37.4105 68.8769 37.2887C68.8119 37.1676 68.7314 37.0775 68.6359 37.0193C68.5403 36.9616 68.4405 36.9248 68.3368 36.909C68.2312 36.8934 68.1236 36.8867 68.0112 36.8867H67.5537V38.708H68.0363C68.2075 38.708 68.3503 38.6837 68.4667 38.6376C68.5818 38.5909 68.6772 38.5246 68.751 38.44C68.8241 38.3561 68.8796 38.2545 68.9188 38.1375C68.9561 38.0204 68.975 37.8918 68.975 37.7537ZM74.1846 37.5642C74.1846 37.5784 74.1846 37.5953 74.1832 37.6149C74.1819 37.6334 74.1792 37.6547 74.1751 37.6786C74.1706 37.7025 74.165 37.7293 74.1582 37.7591C74.1514 37.7902 74.1426 37.8241 74.1318 37.862L73.0441 41.2042C73.0319 41.2509 73.0123 41.2888 72.99 41.3172C72.967 41.347 72.9291 41.3693 72.877 41.3862C72.8242 41.4018 72.7517 41.4133 72.6617 41.4187C72.5717 41.4242 72.4526 41.4275 72.3071 41.4275C72.1642 41.4275 72.0465 41.4242 71.9565 41.4174C71.8664 41.4099 71.7947 41.3978 71.7433 41.3822C71.6918 41.3653 71.6546 41.3423 71.6323 41.3132C71.6092 41.2847 71.591 41.2482 71.5774 41.2042L70.4925 37.862C70.4756 37.8072 70.4634 37.7578 70.4539 37.7138C70.4437 37.6704 70.4383 37.638 70.437 37.6177C70.4356 37.5994 70.4356 37.5811 70.4356 37.5642C70.4356 37.5378 70.4424 37.5134 70.458 37.4924C70.4728 37.4708 70.4992 37.4539 70.5365 37.4403C70.5744 37.4275 70.6265 37.4173 70.6921 37.4119C70.7585 37.406 70.8415 37.4031 70.9412 37.4031C71.0522 37.4031 71.1409 37.4065 71.2086 37.4132C71.2749 37.42 71.329 37.4302 71.3676 37.443C71.4069 37.4559 71.4346 37.4728 71.4509 37.4965C71.4664 37.5202 71.48 37.5486 71.4915 37.5811L72.3145 40.2932L72.3389 40.3967L72.3626 40.2932L73.1707 37.5811C73.1788 37.5486 73.191 37.5202 73.2093 37.4965C73.2269 37.4728 73.2546 37.4559 73.2925 37.443C73.3311 37.4302 73.3812 37.42 73.4448 37.4132C73.5098 37.4065 73.593 37.4031 73.6952 37.4031C73.7968 37.4031 73.878 37.4065 73.9423 37.4119C74.0059 37.4173 74.056 37.4275 74.0905 37.4403C74.1264 37.4539 74.1501 37.4708 74.1636 37.4924C74.1776 37.5136 74.1846 37.5376 74.1846 37.5642ZM76.9731 40.8989C76.9731 41.0208 76.9664 41.1135 76.9515 41.1785C76.9359 41.2434 76.9163 41.2888 76.8919 41.3145C76.8682 41.3409 76.8324 41.3653 76.785 41.3849C76.7362 41.4059 76.6807 41.4242 76.6171 41.4384C76.5549 41.4539 76.4858 41.4654 76.4107 41.4736C76.3362 41.4824 76.2611 41.4864 76.1853 41.4864C75.9829 41.4864 75.807 41.4593 75.6574 41.4072C75.5089 41.3553 75.3855 41.275 75.2871 41.1663C75.1904 41.0573 75.1179 40.9206 75.0726 40.7534C75.0266 40.5883 75.0036 40.392 75.0036 40.1666V38.2762H74.5643C74.5129 38.2762 74.4729 38.2437 74.4465 38.1787C74.4185 38.1138 74.4046 38.005 74.4046 37.8525C74.4046 37.772 74.4073 37.7043 74.4147 37.6488C74.4215 37.594 74.4323 37.55 74.4465 37.5175C74.4587 37.4863 74.477 37.464 74.498 37.4498C74.5169 37.4356 74.542 37.4288 74.5684 37.4288H75.0036V36.6031C75.0036 36.576 75.0103 36.5503 75.0252 36.528C75.0408 36.507 75.0685 36.4887 75.1071 36.4731C75.1457 36.4576 75.1998 36.4461 75.2662 36.4393C75.3332 36.4318 75.4151 36.4291 75.5132 36.4291C75.6127 36.4291 75.696 36.4318 75.7623 36.4393C75.8291 36.4461 75.8819 36.4573 75.9207 36.4731C75.9579 36.4887 75.9856 36.507 76.0005 36.528C76.0175 36.5503 76.0256 36.576 76.0256 36.6031V37.4288H76.8114C76.8389 37.4288 76.8624 37.4358 76.8818 37.4498C76.9027 37.464 76.9197 37.4863 76.9332 37.5175C76.9467 37.55 76.9569 37.594 76.9637 37.6488C76.9704 37.7043 76.9731 37.772 76.9731 37.8525C76.9731 38.0048 76.9596 38.1138 76.9332 38.1787C76.9055 38.2437 76.8669 38.2762 76.8154 38.2762H76.0256V40.0096C76.0256 40.2113 76.056 40.3629 76.1183 40.463C76.1806 40.5632 76.2916 40.614 76.4513 40.614C76.5048 40.614 76.5535 40.6099 76.5968 40.5998C76.6395 40.5896 76.678 40.5788 76.7119 40.5659C76.7464 40.5544 76.7741 40.5436 76.7972 40.5334C76.8195 40.524 76.8418 40.5192 76.8594 40.5192C76.8763 40.5192 76.8919 40.524 76.9068 40.5334C76.921 40.5436 76.9332 40.5619 76.9413 40.5916C76.9481 40.6194 76.9569 40.6593 76.9637 40.7087C76.9704 40.7595 76.9731 40.8218 76.9731 40.8989ZM78.9075 40.8028C78.9075 41.0587 78.8642 41.2326 78.7755 41.3199C78.6889 41.4086 78.5305 41.4526 78.3031 41.4526C78.0764 41.4526 77.918 41.4086 77.8327 41.3226C77.7447 41.2353 77.7021 41.0702 77.7021 40.8272C77.7021 40.5686 77.7468 40.394 77.8341 40.306C77.9227 40.2174 78.0818 40.1734 78.3119 40.1734C78.5359 40.1734 78.6916 40.2174 78.7789 40.3033C78.8647 40.3909 78.9075 40.5574 78.9075 40.8028ZM84.7526 40.947C84.7526 41.0289 84.7499 41.0993 84.7425 41.1561C84.7357 41.2123 84.7249 41.259 84.712 41.2956C84.6985 41.3341 84.6816 41.3605 84.6613 41.3761C84.6405 41.3932 84.6168 41.4018 84.5902 41.4018H82.1841C82.0952 41.4018 82.0203 41.375 81.9594 41.3213C81.8984 41.2676 81.868 41.18 81.868 41.0587V36.1963C81.868 36.1692 81.8761 36.1442 81.8944 36.1212C81.9126 36.1002 81.9418 36.0819 81.9817 36.0677C82.0216 36.0535 82.0771 36.044 82.1468 36.0352C82.2159 36.0266 82.3016 36.0224 82.404 36.0224C82.5096 36.0224 82.5969 36.0271 82.6646 36.0352C82.7309 36.044 82.7864 36.0535 82.8271 36.0677C82.867 36.0819 82.8961 36.1002 82.9144 36.1212C82.932 36.1442 82.9401 36.1692 82.9401 36.1963V40.5037H84.5902C84.6166 40.5037 84.6416 40.5111 84.6613 40.5267C84.6816 40.5422 84.6985 40.5659 84.712 40.6011C84.7262 40.635 84.7357 40.6803 84.7425 40.7385C84.7499 40.7947 84.7526 40.8637 84.7526 40.947ZM87.3117 40.8989C87.3117 41.0208 87.3043 41.1135 87.2894 41.1785C87.2738 41.2434 87.2549 41.2888 87.2298 41.3145C87.2062 41.3409 87.1703 41.3653 87.1229 41.3849C87.0742 41.4059 87.0193 41.4242 86.955 41.4384C86.8928 41.4539 86.8237 41.4654 86.7486 41.4736C86.6742 41.4824 86.599 41.4864 86.5232 41.4864C86.3209 41.4864 86.1449 41.4593 85.9953 41.4072C85.8468 41.3553 85.7234 41.275 85.6251 41.1663C85.5283 41.0573 85.4565 40.9206 85.4105 40.7534C85.3652 40.5883 85.3415 40.392 85.3415 40.1666V38.2762H84.9022C84.8508 38.2762 84.8108 38.2437 84.7844 38.1787C84.7565 38.1138 84.7425 38.005 84.7425 37.8525C84.7425 37.772 84.7459 37.7043 84.7526 37.6488C84.7594 37.594 84.7702 37.55 84.7844 37.5175C84.7966 37.4863 84.8149 37.464 84.8359 37.4498C84.8548 37.4356 84.8799 37.4288 84.9063 37.4288H85.3415V36.6031C85.3415 36.576 85.3482 36.5503 85.3631 36.528C85.3787 36.507 85.4065 36.4887 85.445 36.4731C85.4843 36.4576 85.5378 36.4461 85.6048 36.4393C85.6711 36.4318 85.753 36.4291 85.8511 36.4291C85.9506 36.4291 86.0339 36.4318 86.1002 36.4393C86.167 36.4461 86.2198 36.4573 86.2586 36.4731C86.2958 36.4887 86.3236 36.507 86.3385 36.528C86.3554 36.5503 86.3635 36.576 86.3635 36.6031V37.4288H87.1493C87.1768 37.4288 87.2003 37.4358 87.2197 37.4498C87.2407 37.464 87.2576 37.4863 87.2711 37.5175C87.2853 37.55 87.2948 37.594 87.3016 37.6488C87.3084 37.7043 87.3117 37.772 87.3117 37.8525C87.3117 38.0048 87.2975 38.1138 87.2711 38.1787C87.2434 38.2437 87.2048 38.2762 87.1534 38.2762H86.3635V40.0096C86.3635 40.2113 86.394 40.3629 86.4569 40.463C86.5192 40.5632 86.6295 40.614 86.7892 40.614C86.8434 40.614 86.8914 40.6099 86.9347 40.5998C86.9774 40.5896 87.016 40.5788 87.0498 40.5659C87.0843 40.5544 87.1121 40.5436 87.1351 40.5334C87.1574 40.524 87.1798 40.5192 87.198 40.5192C87.2143 40.5192 87.2298 40.524 87.2447 40.5334C87.2589 40.5436 87.2711 40.5619 87.2793 40.5916C87.2867 40.6194 87.2948 40.6593 87.3016 40.7087C87.3084 40.7595 87.3117 40.8218 87.3117 40.8989ZM91.389 41.2617C91.389 41.2915 91.382 41.317 91.368 41.3382C91.3551 41.3592 91.3321 41.3761 91.3003 41.3903C91.2671 41.4032 91.2225 41.4133 91.167 41.4187C91.1115 41.4246 91.0436 41.4275 90.9632 41.4275C90.8762 41.4275 90.8055 41.4246 90.7514 41.4187C90.6973 41.4133 90.6546 41.4032 90.6201 41.3903C90.5862 41.3761 90.5619 41.3578 90.5477 41.3382C90.5328 41.3172 90.524 41.2915 90.524 41.2604V40.8495C90.3385 41.0546 90.1416 41.2123 89.9378 41.3253C89.7334 41.4384 89.5074 41.4952 89.2576 41.4952C88.9822 41.4952 88.748 41.4397 88.5585 41.3314C88.3669 41.2225 88.2119 41.0756 88.0914 40.8908C87.971 40.7074 87.8837 40.4915 87.8295 40.2438C87.7754 39.9967 87.7476 39.7375 87.7476 39.4647C87.7476 39.1371 87.7824 38.842 87.8518 38.5794C87.9209 38.3182 88.0204 38.0948 88.1537 37.91C88.2871 37.7253 88.4515 37.5838 88.6498 37.4836C88.8466 37.3848 89.0738 37.3354 89.3314 37.3354C89.5338 37.3354 89.7179 37.3781 89.883 37.4613C90.0488 37.5459 90.2126 37.6691 90.3744 37.8309V35.8362C90.3744 35.8078 90.3818 35.7841 90.3967 35.7611C90.4123 35.7401 90.438 35.7205 90.4786 35.7063C90.5172 35.6907 90.57 35.6792 90.6336 35.6711C90.6986 35.6623 90.7819 35.6582 90.8814 35.6582C90.9815 35.6582 91.0648 35.6623 91.1297 35.6711C91.1934 35.6792 91.2462 35.6907 91.2834 35.7063C91.3206 35.7205 91.3484 35.7401 91.3639 35.7611C91.3802 35.7841 91.389 35.8078 91.389 35.8362V41.2617ZM90.3744 38.7953C90.2289 38.6072 90.0881 38.465 89.9548 38.3642C89.8201 38.2654 89.6806 38.216 89.5338 38.216C89.4018 38.216 89.2867 38.2498 89.1913 38.3182C89.0945 38.3859 89.018 38.4745 88.9598 38.5875C88.9016 38.7019 88.8576 38.8278 88.8299 38.9659C88.8008 39.106 88.7866 39.2481 88.7866 39.3937C88.7866 39.5493 88.7994 39.6989 88.8231 39.8444C88.8481 39.9913 88.8881 40.1206 88.9436 40.235C88.9991 40.3493 89.0722 40.4414 89.1649 40.5104C89.2563 40.5795 89.3727 40.6133 89.5141 40.6133C89.5832 40.6133 89.6529 40.6038 89.7192 40.5829C89.7856 40.5612 89.8526 40.5287 89.9216 40.4806C89.9906 40.4339 90.0617 40.3737 90.1348 40.2972C90.2086 40.2214 90.2884 40.1294 90.3744 40.019V38.7953ZM93.6137 40.8035C93.6137 41.0587 93.5711 41.2326 93.4824 41.3199C93.3951 41.4086 93.2367 41.4526 93.01 41.4526C92.7826 41.4526 92.6242 41.4086 92.5389 41.3226C92.4516 41.2353 92.4083 41.0702 92.4083 40.8272C92.4083 40.5686 92.4529 40.394 92.5403 40.306C92.6289 40.2174 92.788 40.1734 93.0181 40.1734C93.2421 40.1734 93.3978 40.2174 93.4851 40.3033C93.5708 40.3909 93.6137 40.5576 93.6137 40.8035Z" fill="#002055"/>
</svg>
