<svg width="16" height="14" viewBox="0 0 16 14" fill="none" xmlns="http://www.w3.org/2000/svg">
<path fill-rule="evenodd" clip-rule="evenodd" d="M13.2448 0.00414942C13.7955 0.00530738 14.3055 0.131249 14.7485 0.408069C15.1928 0.685756 15.5422 1.0984 15.7948 1.62747C15.9379 1.92744 15.9722 2.23749 15.9972 2.463L16 2.49069V11.5297L15.9991 11.5459C15.9603 12.1282 15.7261 12.6195 15.3853 13.026C14.9465 13.549 14.3826 13.8678 13.716 13.9608C13.4648 13.9959 13.2187 14.0001 12.9936 14C9.59581 13.9987 6.19835 13.9997 2.80025 13.999C2.15836 13.999 1.51847 13.8385 0.969 13.364C0.391376 12.865 0.0038648 12.2011 0.00276116 11.3454C-0.000572173 8.45111 0.00235559 5.54967 4.79957e-07 2.65684C-0.000684922 1.56355 0.732808 0.610041 1.6288 0.224729C2.00689 0.0622617 2.39383 0.00349257 2.76989 0.00319453C6.26075 0.000568715 9.75303 -0.00286458 13.2448 0.00414942ZM2.73216 1.44986C1.91325 1.45009 1.35766 2.01932 1.35642 2.87073C1.3532 5.62463 1.35504 8.37954 1.3555 11.1334C1.35561 11.3584 1.38533 11.5786 1.48617 11.7818C1.74731 12.3079 2.16986 12.5526 2.734 12.5524H13.2375C13.3158 12.5524 13.3944 12.5514 13.4721 12.5438C14.1139 12.4811 14.6186 11.9664 14.6454 11.3005C14.6713 10.6514 14.656 9.99974 14.6629 9.34968C14.6638 9.26271 14.6295 9.25234 14.5598 9.25323C14.3102 9.25642 14.0605 9.25419 13.8108 9.25419C13.0421 9.25416 12.2733 9.26096 11.5047 9.25323C9.95178 9.23757 8.91412 7.68567 9.45442 6.19567C9.77137 5.32235 10.5804 4.75269 11.5213 4.74901C12.525 4.7451 13.5294 4.7462 14.5332 4.74996C14.6319 4.75029 14.6649 4.72926 14.6638 4.61914C14.658 4.03501 14.6621 3.45012 14.6592 2.86596C14.6586 2.73995 14.6547 2.61259 14.6224 2.48878C14.4519 1.83525 13.964 1.45006 13.2936 1.44986C9.77311 1.44872 6.25266 1.44881 2.73216 1.44986ZM14.2755 5.67907C13.3746 5.67919 12.4732 5.6661 11.5728 5.68957C10.9181 5.7067 10.4108 6.30906 10.4105 7.01305C10.4102 7.71702 10.9174 8.3115 11.5719 8.3394C12.0634 8.36035 12.5566 8.34322 13.0488 8.34322V8.34895C13.541 8.34895 14.0336 8.34612 14.5258 8.35181C14.6302 8.35298 14.6658 8.32939 14.6648 8.20667C14.6587 7.50243 14.6623 6.79779 14.6601 6.09349C14.6597 5.95951 14.7144 5.78262 14.6381 5.70199C14.5618 5.62154 14.3997 5.679 14.2755 5.67907Z" fill="#004370"/>
<path d="M11.7638 7.45305C11.6707 7.45294 11.5775 7.45729 11.4847 7.4521C11.2288 7.4379 11.0419 7.24208 11.045 6.99602C11.0481 6.75372 11.2289 6.56148 11.4787 6.54997C11.6692 6.54119 11.8607 6.54185 12.0513 6.54961C12.3075 6.55999 12.4942 6.75891 12.4912 7.00497C12.488 7.2533 12.3018 7.44082 12.0428 7.45258C11.9499 7.45675 11.8567 7.45323 11.7638 7.45305Z" fill="#004370"/>
</svg>
