<svg width="32" height="32" viewBox="0 0 32 32" fill="none" xmlns="http://www.w3.org/2000/svg">
<g clip-path="url(#clip0_482_111264)">
<path d="M32 11.3333C32 9.496 30.5053 8 28.6667 8C26.828 8 25.3333 9.496 25.3333 11.3333C25.3333 12.9427 26.48 14.2893 28 14.5987V21.3333C28 26.48 23.812 30.6667 18.6667 30.6667C13.5213 30.6667 9.33333 26.48 9.33333 21.3333V19.9667C13.8013 19.624 17.3333 15.888 17.3333 11.3333V4.66667C17.3333 2.09333 15.24 0 12.6667 0H11.3333C10.9653 0 10.6667 0.298667 10.6667 0.666667C10.6667 1.03467 10.9653 1.33333 11.3333 1.33333H12.6667C14.5053 1.33333 16 2.82933 16 4.66667V11.3333C16 15.3773 12.7093 18.6667 8.66667 18.6667C4.624 18.6667 1.33333 15.3773 1.33333 11.3333V4.66667C1.33333 2.82933 2.828 1.33333 4.66667 1.33333H6C6.368 1.33333 6.66667 1.03467 6.66667 0.666667C6.66667 0.298667 6.368 0 6 0H4.66667C2.09333 0 0 2.09333 0 4.66667V11.3333C0 15.8867 3.532 19.624 8 19.9667V21.3333C8 27.2147 12.7853 32 18.6667 32C24.548 32 29.3333 27.2147 29.3333 21.3333V14.5987C30.8533 14.2893 32 12.9427 32 11.3333ZM28.6667 13.3333C27.564 13.3333 26.6667 12.436 26.6667 11.3333C26.6667 10.2307 27.564 9.33333 28.6667 9.33333C29.7693 9.33333 30.6667 10.2307 30.6667 11.3333C30.6667 12.436 29.7693 13.3333 28.6667 13.3333Z" fill="#303030"/>
</g>
<defs>
<clipPath id="clip0_482_111264">
<rect width="32" height="32" fill="white"/>
</clipPath>
</defs>
</svg>
