<svg width="32" height="30" viewBox="0 0 32 30" fill="none" xmlns="http://www.w3.org/2000/svg">
<path d="M21.088 2.79023C20.2787 1.22356 18.6067 0.355564 16.9173 0.643564C7.38533 2.24223 2.08533 9.8529 0.688 12.1489C-0.229333 13.6556 -0.229333 15.5276 0.688 17.0342C2.08533 19.3302 7.38533 26.9409 16.916 28.5396C17.1293 28.5756 17.3427 28.5929 17.5547 28.5929C19.0133 28.5929 20.3813 27.7609 21.088 26.3929C22.416 23.8196 24 19.6849 24 14.5916C24 9.49823 22.416 5.36356 21.088 2.79023ZM21.32 22.4689C17.52 21.8222 14.6653 18.4622 14.6653 14.5916C14.6653 10.7209 17.52 7.3609 21.32 6.71423C21.724 7.87956 22.0707 9.1969 22.316 10.6276C20.276 10.8076 18.6667 12.5062 18.6667 14.5916C18.6667 16.6769 20.2773 18.3756 22.316 18.5556C22.0707 19.9849 21.724 21.3036 21.32 22.4689ZM19.9987 14.5916C19.9987 13.1782 21.1067 12.0289 22.5 11.9422C22.5973 12.7942 22.6653 13.6702 22.6653 14.5916C22.6653 15.5129 22.5973 16.3902 22.5 17.2409C21.108 17.1529 19.9987 16.0049 19.9987 14.5916ZM19.9027 25.7809C19.36 26.8316 18.2493 27.4102 17.136 27.2249C8.16267 25.7196 3.14933 18.5142 1.82667 16.3422C1.16933 15.2622 1.16933 13.9222 1.82667 12.8422C3.14933 10.6702 8.16267 3.4649 17.1373 1.95956C17.276 1.93556 17.4147 1.9249 17.5533 1.9249C18.5187 1.9249 19.4293 2.4849 19.904 3.40356C20.2107 3.99823 20.532 4.6849 20.8427 5.44623C16.4693 6.3089 13.3333 10.0876 13.3333 14.5916C13.3333 19.0956 16.4693 22.8756 20.8427 23.7369C20.532 24.4996 20.2107 25.1849 19.904 25.7796L19.9027 25.7809ZM26.5147 0.611564C26.028 -0.0271023 25.1773 -0.185769 24.4893 0.231564C23.8013 0.650231 23.552 1.48223 23.896 2.21023C25.708 6.04623 26.6653 10.3289 26.6653 14.5916C26.6653 18.9022 25.708 23.2102 23.896 27.0462C23.552 27.7742 23.8013 28.6062 24.4893 29.0249C24.7453 29.1809 25.0253 29.2569 25.3 29.2569C25.7613 29.2569 26.2093 29.0449 26.5147 28.6449C30.2053 23.8222 32 19.2262 32 14.5916C32 9.9569 30.2573 5.5009 26.5147 0.611564ZM25.456 27.8356C25.4253 27.8756 25.34 27.9796 25.184 27.8862C25.0213 27.7876 25.0827 27.6582 25.1027 27.6169C26.9973 23.6022 28 19.0982 28 14.5916C28 10.1316 26.9987 5.65423 25.1027 1.63956C25.0827 1.59823 25.0213 1.4689 25.184 1.37023C25.2307 1.34223 25.2707 1.33023 25.3053 1.33023C25.3867 1.33023 25.4347 1.3929 25.456 1.4209C29.0107 6.06623 30.6667 10.2516 30.6667 14.5916C30.6667 18.9822 29.0107 23.1889 25.456 27.8356Z" fill="#303030"/>
</svg>
