<svg width="32" height="32" viewBox="0 0 32 32" fill="none" xmlns="http://www.w3.org/2000/svg">
<g clip-path="url(#clip0_482_111037)">
<path d="M24.6667 6.66667C26.504 6.66667 28 5.172 28 3.33333C28 1.49467 26.504 0 24.6667 0C22.8293 0 21.3333 1.49467 21.3333 3.33333C21.3333 5.172 22.8293 6.66667 24.6667 6.66667ZM24.6667 1.33333C25.7693 1.33333 26.6667 2.23067 26.6667 3.33333C26.6667 4.436 25.7693 5.33333 24.6667 5.33333C23.564 5.33333 22.6667 4.436 22.6667 3.33333C22.6667 2.23067 23.564 1.33333 24.6667 1.33333ZM31.1653 25.5387C30.5333 26.2547 29.6227 26.6667 28.6667 26.6667H28V31.3333C28 31.7013 27.7013 32 27.3333 32C26.9653 32 26.6667 31.7013 26.6667 31.3333V26.6667H24C23.632 26.6667 23.3333 26.368 23.3333 26C23.3333 25.632 23.632 25.3333 24 25.3333H28.6667C29.24 25.3333 29.7867 25.0867 30.1667 24.656C30.5467 24.2267 30.7227 23.6533 30.652 23.0853L28.448 12.4107C28.08 10.6267 26.4893 9.332 24.668 9.332C23.844 9.332 23.0573 9.588 22.3933 10.0733C22.0947 10.2933 21.68 10.224 21.4613 9.92933C21.244 9.632 21.3093 9.21467 21.6067 8.99867C22.5 8.34533 23.5587 8 24.6667 8C27.1173 8 29.256 9.74267 29.752 12.1413L31.9653 22.868C32.092 23.868 31.7987 24.8227 31.1653 25.5387ZM16 13.3333C17.8373 13.3333 19.3333 11.8387 19.3333 10C19.3333 8.16133 17.8373 6.66667 16 6.66667C14.1627 6.66667 12.6667 8.16133 12.6667 10C12.6667 11.8387 14.1627 13.3333 16 13.3333ZM16 8C17.1027 8 18 8.89733 18 10C18 11.1027 17.1027 12 16 12C14.8973 12 14 11.1027 14 10C14 8.89733 14.8973 8 16 8ZM17.3333 14.6667H14.6667C12.4613 14.6667 10.6667 16.4613 10.6667 18.6667V22.6667C10.6667 24.4053 11.7813 25.8867 13.3333 26.4373V31.3333C13.3333 31.7013 13.632 32 14 32C14.368 32 14.6667 31.7013 14.6667 31.3333V26.6667H17.3333V31.3333C17.3333 31.7013 17.632 32 18 32C18.368 32 18.6667 31.7013 18.6667 31.3333V26.4373C20.2187 25.8867 21.3333 24.4053 21.3333 22.6667V18.6667C21.3333 16.4613 19.5387 14.6667 17.3333 14.6667ZM20 22.6667C20 24.1373 18.804 25.3333 17.3333 25.3333H14.6667C13.196 25.3333 12 24.1373 12 22.6667V18.6667C12 17.196 13.196 16 14.6667 16H17.3333C18.804 16 20 17.196 20 18.6667V22.6667ZM6 6.66667C7.83733 6.66667 9.33333 5.172 9.33333 3.33333C9.33333 1.49467 7.83733 0 6 0C4.16267 0 2.66667 1.49467 2.66667 3.33333C2.66667 5.172 4.16267 6.66667 6 6.66667ZM6 1.33333C7.10267 1.33333 8 2.23067 8 3.33333C8 4.436 7.10267 5.33333 6 5.33333C4.89733 5.33333 4 4.436 4 3.33333C4 2.23067 4.89733 1.33333 6 1.33333ZM9.91067 9.53467C9.72533 9.852 9.31733 9.96267 9 9.77867C8.49467 9.48667 7.91867 9.33333 7.33333 9.33333H4.66667C2.82933 9.33333 1.33333 10.828 1.33333 12.6667V18C1.33333 19.8387 2.82933 21.3333 4.66667 21.3333H7.33333C7.70133 21.3333 8 21.632 8 22C8 22.368 7.70133 22.6667 7.33333 22.6667H4.66667C4.44 22.6667 4.21733 22.6507 4 22.6187V31.3333C4 31.7013 3.70133 32 3.33333 32C2.96533 32 2.66667 31.7013 2.66667 31.3333V22.216C1.092 21.4653 0 19.8573 0 18V12.6667C0 10.0933 2.09333 8 4.66667 8H7.33333C8.152 8 8.95867 8.216 9.66667 8.62533C9.98533 8.80933 10.0947 9.21467 9.91067 9.53467Z" fill="#004370"/>
</g>
<defs>
<clipPath id="clip0_482_111037">
<rect width="32" height="32" fill="white"/>
</clipPath>
</defs>
</svg>
