<svg width="32" height="32" viewBox="0 0 32 32" fill="none" xmlns="http://www.w3.org/2000/svg">
<g clip-path="url(#clip0_482_111040)">
<path d="M26.6667 8.068V6C26.6667 2.692 23.9747 0 20.6667 0H11.3333C8.02533 0 5.33333 2.692 5.33333 6V8.068C2.34133 8.404 0 10.92 0 14V26C0 29.308 2.692 32 6 32H26C29.308 32 32 29.308 32 26V14C32 10.92 29.6587 8.404 26.6667 8.068ZM1.33333 26V14C1.33333 11.656 3.07733 9.728 5.33333 9.40133V30.6C3.07733 30.2733 1.33333 28.344 1.33333 26ZM6.66667 6C6.66667 3.42667 8.76 1.33333 11.3333 1.33333H20.6667C23.24 1.33333 25.3333 3.42667 25.3333 6V30.6667H6.66667V6ZM30.6667 26C30.6667 28.344 28.9227 30.272 26.6667 30.5987V9.40133C28.9227 9.728 30.6667 11.656 30.6667 14V26ZM14.6667 19.3333C14.6667 19.7013 14.368 20 14 20H11.3333C10.9653 20 10.6667 19.7013 10.6667 19.3333C10.6667 18.9653 10.9653 18.6667 11.3333 18.6667H14C14.368 18.6667 14.6667 18.9653 14.6667 19.3333ZM21.3333 19.3333C21.3333 19.7013 21.0347 20 20.6667 20H18C17.632 20 17.3333 19.7013 17.3333 19.3333C17.3333 18.9653 17.632 18.6667 18 18.6667H20.6667C21.0347 18.6667 21.3333 18.9653 21.3333 19.3333ZM14.6667 24.6667C14.6667 25.0347 14.368 25.3333 14 25.3333H11.3333C10.9653 25.3333 10.6667 25.0347 10.6667 24.6667C10.6667 24.2987 10.9653 24 11.3333 24H14C14.368 24 14.6667 24.2987 14.6667 24.6667ZM21.3333 24.6667C21.3333 25.0347 21.0347 25.3333 20.6667 25.3333H18C17.632 25.3333 17.3333 25.0347 17.3333 24.6667C17.3333 24.2987 17.632 24 18 24H20.6667C21.0347 24 21.3333 24.2987 21.3333 24.6667ZM16.6667 10V12.6667C16.6667 13.0347 16.368 13.3333 16 13.3333C15.632 13.3333 15.3333 13.0347 15.3333 12.6667V10H12.6667C12.2987 10 12 9.70133 12 9.33333C12 8.96533 12.2987 8.66667 12.6667 8.66667H15.3333V6C15.3333 5.632 15.632 5.33333 16 5.33333C16.368 5.33333 16.6667 5.632 16.6667 6V8.66667H19.3333C19.7013 8.66667 20 8.96533 20 9.33333C20 9.70133 19.7013 10 19.3333 10H16.6667Z" fill="#004370"/>
</g>
<defs>
<clipPath id="clip0_482_111040">
<rect width="32" height="32" fill="white"/>
</clipPath>
</defs>
</svg>
