<svg width="32" height="32" viewBox="0 0 32 32" fill="none" xmlns="http://www.w3.org/2000/svg">
<g clip-path="url(#clip0_482_111268)">
<path d="M24.3627 0C21.9707 0 20.4533 0.42 19.1147 0.792C18.0667 1.08267 17.1613 1.33333 15.9987 1.33333C14.836 1.33333 13.9307 1.08267 12.8827 0.792C11.5453 0.421333 10.028 0 7.63467 0C0.0866665 0 0 7.56 0 7.63733C0 16.2587 4.44267 24.836 7.78267 30.5387C8.31067 31.4413 9.296 32.0013 10.352 32.0013C11.9947 32.0013 13.332 30.664 13.332 29.0213V20.192C13.332 18.732 14.3813 17.484 15.7213 17.348C16.4907 17.272 17.2213 17.512 17.788 18.024C18.3453 18.5293 18.6653 19.2507 18.6653 20.0013V29.0213C18.6653 30.664 20.0027 32.0013 21.6453 32.0013C22.7027 32.0013 23.6867 31.4413 24.216 30.5387C27.5573 24.8373 31.9987 16.2613 31.9987 7.63733C31.9987 7.56 31.9133 0 24.3627 0ZM23.0653 29.8627C22.7747 30.3587 22.232 30.6667 21.6467 30.6667C20.7373 30.6667 20 29.928 20 29.02V20C20 18.872 19.52 17.792 18.684 17.0333C17.9467 16.3653 16.9827 16 15.9907 16C15.8573 16 15.724 16.0067 15.5907 16.0213C13.5773 16.2227 12.0013 18.0547 12.0013 20.1907V29.02C12.0013 29.9293 11.2627 30.6667 10.3547 30.6667C9.76933 30.6667 9.22533 30.36 8.93467 29.8627C5.67067 24.296 1.33333 15.9333 1.33333 7.63867C1.33333 7.38133 1.43067 1.33333 7.63733 1.33333C9.84933 1.33333 11.2107 1.71067 12.528 2.07733C13.6227 2.38133 14.656 2.66667 16 2.66667C17.344 2.66667 18.3773 2.38 19.472 2.07733C20.7893 1.712 22.152 1.33333 24.3627 1.33333C30.568 1.33333 30.6653 7.38 30.6667 7.63733C30.6667 15.936 26.3293 24.2973 23.0667 29.864L23.0653 29.8627Z" fill="#303030"/>
</g>
<defs>
<clipPath id="clip0_482_111268">
<rect width="32" height="32" fill="white"/>
</clipPath>
</defs>
</svg>
