<svg width="32" height="32" viewBox="0 0 32 32" fill="none" xmlns="http://www.w3.org/2000/svg">
<g clip-path="url(#clip0_482_111266)">
<path d="M4.66667 13.334C4.66667 12.966 4.96533 12.6673 5.33333 12.6673H10.6667V7.33398C10.6667 6.96598 10.9653 6.66732 11.3333 6.66732C11.7013 6.66732 12 6.96598 12 7.33398V12.6673H17.3333C17.7013 12.6673 18 12.966 18 13.334C18 13.702 17.7013 14.0007 17.3333 14.0007H12V19.334C12 19.702 11.7013 20.0007 11.3333 20.0007C10.9653 20.0007 10.6667 19.702 10.6667 19.334V14.0007H5.33333C4.96533 14.0007 4.66667 13.702 4.66667 13.334ZM32 14.0007V20.6673C32 22.666 30.7307 24.362 28.96 25.0247C29.1987 25.5407 29.3333 26.094 29.3333 26.6673C29.3333 28.8727 27.5387 30.6673 25.3333 30.6673C23.128 30.6673 21.3333 28.8727 21.3333 26.6673C21.3333 26.2073 21.4187 25.7607 21.5733 25.334H10.4267C10.5813 25.7607 10.6667 26.2073 10.6667 26.6673C10.6667 28.8727 8.872 30.6673 6.66667 30.6673C4.46133 30.6673 2.66667 28.8727 2.66667 26.6673C2.66667 26.094 2.80133 25.5407 3.04 25.0247C1.26933 24.3607 0 22.666 0 20.6673V7.33398C0 4.02598 2.692 1.33398 6 1.33398H16.6667C19.9747 1.33398 22.6667 4.02598 22.6667 7.33398V8.00065H26C29.308 8.00065 32 10.6927 32 14.0007ZM22.6667 9.33398V16.0007H30.6667V14.0007C30.6667 11.4273 28.5733 9.33398 26 9.33398H22.6667ZM4.66667 24.0007H21.3333V7.33398C21.3333 4.76065 19.24 2.66732 16.6667 2.66732H6C3.42667 2.66732 1.33333 4.76065 1.33333 7.33398V20.6673C1.33333 22.506 2.828 24.0007 4.66667 24.0007ZM8.928 25.334H4.66667C4.58133 25.334 4.50267 25.314 4.41867 25.3087C4.16267 25.7273 4 26.1847 4 26.6673C4 28.138 5.196 29.334 6.66667 29.334C8.13733 29.334 9.33333 28.138 9.33333 26.6673C9.33333 26.194 9.17467 25.746 8.928 25.334ZM27.5813 25.3087C27.4973 25.3127 27.4187 25.334 27.3333 25.334H23.072C22.8253 25.746 22.6667 26.194 22.6667 26.6673C22.6667 28.138 23.8627 29.334 25.3333 29.334C26.804 29.334 28 28.138 28 26.6673C28 26.1847 27.8373 25.7273 27.5813 25.3087ZM30.6667 20.6673V17.334H22.6667V24.0007H27.3333C29.172 24.0007 30.6667 22.506 30.6667 20.6673Z" fill="#303030"/>
</g>
<defs>
<clipPath id="clip0_482_111266">
<rect width="32" height="32" fill="white"/>
</clipPath>
</defs>
</svg>
