<svg width="32" height="32" viewBox="0 0 32 32" fill="none" xmlns="http://www.w3.org/2000/svg">
<g clip-path="url(#clip0_482_111272)">
<path d="M26 6.66732H21.3333V4.66732C21.3333 2.82998 19.8387 1.33398 18 1.33398H14C12.1613 1.33398 10.6667 2.82998 10.6667 4.66732V6.66732H6C2.692 6.66732 0 9.35932 0 12.6673V24.6673C0 27.9753 2.692 30.6673 6 30.6673H26C29.308 30.6673 32 27.9753 32 24.6673V12.6673C32 9.35932 29.308 6.66732 26 6.66732ZM12 4.66732C12 3.56465 12.8973 2.66732 14 2.66732H18C19.1027 2.66732 20 3.56465 20 4.66732V6.66732H12V4.66732ZM30.6667 24.6673C30.6667 27.2407 28.5733 29.334 26 29.334H6C3.42667 29.334 1.33333 27.2407 1.33333 24.6673V12.6673C1.33333 10.094 3.42667 8.00065 6 8.00065H26C28.5733 8.00065 30.6667 10.094 30.6667 12.6673V24.6673ZM21.3333 18.6673C21.3333 19.0353 21.0347 19.334 20.6667 19.334H16.6667V23.334C16.6667 23.702 16.368 24.0007 16 24.0007C15.632 24.0007 15.3333 23.702 15.3333 23.334V19.334H11.3333C10.9653 19.334 10.6667 19.0353 10.6667 18.6673C10.6667 18.2993 10.9653 18.0007 11.3333 18.0007H15.3333V14.0007C15.3333 13.6327 15.632 13.334 16 13.334C16.368 13.334 16.6667 13.6327 16.6667 14.0007V18.0007H20.6667C21.0347 18.0007 21.3333 18.2993 21.3333 18.6673Z" fill="#303030"/>
</g>
<defs>
<clipPath id="clip0_482_111272">
<rect width="32" height="32" fill="white"/>
</clipPath>
</defs>
</svg>
