<svg width="16" height="17" viewBox="0 0 16 17" fill="none" xmlns="http://www.w3.org/2000/svg">
<path d="M4.699 9.76297C6.31248 9.44787 8.04003 9.51867 9.43769 10.3589L9.58295 10.4525C9.72491 10.5521 9.85862 10.6695 9.97903 10.8058C10.3036 11.1735 10.4691 11.6307 10.4773 12.0888C10.6431 11.9811 10.8103 11.8631 10.979 11.7346L12.5422 10.5445C13.3244 9.94914 14.4608 9.94931 15.243 10.5445C15.9658 11.0947 16.2543 12.0819 15.7371 12.918C15.3693 13.5123 14.8152 14.3344 14.2515 14.8607C13.6818 15.3926 12.8711 15.8401 12.2576 16.1386C11.5125 16.5011 10.7074 16.7012 9.92498 16.829C8.42575 17.0735 6.8696 17.0545 5.378 16.7805L5.08073 16.7217C4.27268 16.5539 3.43271 16.4672 2.60286 16.4672H0.648603C0.290462 16.4672 0.00011742 16.1743 0 15.8133C0.000122989 15.4524 0.290466 15.1595 0.648603 15.1595H2.60286C3.52135 15.1595 4.44903 15.2557 5.34253 15.4413C6.77123 15.738 8.27644 15.7735 9.71807 15.5384C10.4349 15.4213 11.1042 15.2479 11.6934 14.9612L12.1453 14.7296C12.6012 14.4833 13.0539 14.1962 13.3698 13.9013C13.7957 13.5036 14.273 12.8135 14.6366 12.2259C14.7461 12.0486 14.7307 11.793 14.4618 11.5882C14.1421 11.345 13.643 11.3449 13.3234 11.5882L11.761 12.7784C11.1371 13.2534 10.369 13.7617 9.41657 13.9149C9.31264 13.9316 9.20406 13.9468 9.09143 13.96L9.09058 13.9592C9.05744 13.9644 9.02347 13.9689 8.98839 13.9711C8.49629 14.022 7.92411 14.0347 7.29172 13.9745C6.93511 13.9405 6.67276 13.6214 6.70646 13.2619C6.74032 12.9026 7.05686 12.6389 7.41333 12.6728C7.9559 12.7245 8.44272 12.713 8.8558 12.6703L8.88029 12.6668C8.89759 12.6567 8.92493 12.6386 8.95968 12.6081C9.23524 12.365 9.25946 11.9581 9.00951 11.6751C8.94634 11.6036 8.86811 11.539 8.77304 11.4818C7.75159 10.8678 6.38705 10.7653 4.9456 11.0468C3.51235 11.3268 2.08809 11.9714 1.02358 12.7324C0.731444 12.9412 0.327162 12.8718 0.119924 12.5775C-0.087161 12.2829 -0.018516 11.8745 0.27363 11.6657C1.48283 10.8014 3.07748 10.0797 4.699 9.76297Z" fill="#004370"/>
<path fill-rule="evenodd" clip-rule="evenodd" d="M12.5397 3.02132C12.5396 3.90824 12.0397 4.72477 11.4823 5.37609C10.9092 6.04571 10.1836 6.64661 9.54917 7.1128C8.89621 7.59261 8.37835 7.99988 7.56704 7.99988C6.75572 7.99988 6.23785 7.59261 5.58491 7.1128C4.9505 6.64661 4.22483 6.0457 3.65177 5.37609C3.0944 4.72477 2.59451 3.90822 2.59441 3.02132C2.59441 1.61038 3.3338 0.533881 4.46844 0.14895C5.43629 -0.17938 6.56277 0.0376561 7.56704 0.774674C8.57131 0.0376555 9.69785 -0.17938 10.6656 0.14895C11.8003 0.533888 12.5397 1.61039 12.5397 3.02132ZM11.2425 3.02132C11.2425 2.09848 10.7927 1.57199 10.2518 1.38848C9.68799 1.1972 8.84727 1.32095 8.0062 2.10019L7.90739 2.17596C7.69941 2.3053 7.43467 2.3053 7.22669 2.17596L7.12788 2.10019L6.9708 1.96142C6.18327 1.30631 5.41092 1.20913 4.88226 1.38848C4.34136 1.57199 3.89162 2.09847 3.89162 3.02132C3.89172 3.42889 4.1374 3.94197 4.63397 4.52221C5.11505 5.08435 5.75236 5.61769 6.34922 6.0563C7.07815 6.59189 7.25143 6.69224 7.56704 6.69224C7.88265 6.69224 8.05592 6.59189 8.78486 6.0563C9.38173 5.6177 10.019 5.08434 10.5001 4.52221C10.9967 3.94197 11.2424 3.42891 11.2425 3.02132Z" fill="#004370"/>
</svg>
